<svg class="c-svg-icon" version="1.1" id="Calque_1" xmlns="http://www.w3.org/2000/svg" xmlns:xlink="http://www.w3.org/1999/xlink" x="0px" y="0px"
	 viewBox="0 0 366.6 334.7" style="enable-background:new 0 0 366.6 334.7;" xml:space="preserve">
<style type="text/css">
	.st50{fill:#f2f5fa;}
</style>
<g>
	<path class="st50" d="M204.5,168.4c0-12.5-9.5-22.6-21.2-22.6c-11.7,0-21.2,10.1-21.2,22.6c0,12.5,9.5,22.6,21.2,22.6
		C195,190.9,204.5,180.8,204.5,168.4z M69.1,309c2.9,4.9,6.8,9,11.6,11.8c9.5,5.6,21.4,6.1,34.1,2.4s26.8-11.4,42-22.9
		c3.3-2.6,4-7.9,1.4-11.2c-2.6-3.3-7.9-4-11.2-1.5c-14.1,10.8-26.8,17.4-36.7,20.2c-9.9,2.9-16.8,1.9-21.5-0.9
		c-4.7-2.8-8.3-8-10-17.6c-1.7-9.6-1.3-23.3,2.4-40.2c4.9-22.5,15.9-47.7,29-73c20.1,43.7,47.8,90.9,79.4,123.1
		c12.8,12.8,25.6,22.7,37.9,28.8c12.3,6.1,24.7,8.6,35.9,4.9c11.2-3.8,18.7-13.5,22.7-25.5c4-12,4.9-26.8,3.5-43.6
		c-2.9-33.7-15.1-76.2-36.5-120.4c-1.8-3.8-7-5.5-10.7-3.7c-3.8,1.8-5.5,7-3.7,10.7c20.7,42.9,32.4,83.8,35,114.8
		c1.3,15.5,0.2,28.4-2.7,37.3c-2.9,8.9-7,13.5-12.7,15.4c-5.6,1.9-13.7,0.9-23.6-4c-10-4.9-21.6-13.9-33.6-25.9
		c-38.2-43.1-61.8-83.1-80.7-130.1c9.5-16.4,19.7-31.7,31-46.8c60.8-1.3,126,8.9,165.8,29.3c12.3,6.3,21.2,13,26.5,19.2
		c5.4,6.2,7.4,11.5,7.1,16.3c-0.2,4.8-2.6,9.7-8.6,15.3c-5.9,5.6-15.3,11.5-28.2,16.5c-3.9,1.5-6.1,6.5-4.5,10.5
		c1.5,3.9,6.5,6.1,10.5,4.5c14.2-5.5,25.2-12.1,33.3-19.6c8-7.6,12.9-16.7,13.3-26.4c0.5-9.7-3.6-19.2-10.9-27.6
		c-7.2-8.4-17.6-16-31.2-22.9c-41-20.9-101.8-30.8-161-30.8c16-19.4,32.5-37.1,49.1-49.8c13.9-10.7,26.2-17.4,36.1-20.2
		c9.9-2.9,16.9-2.1,21.6,0.6c4.7,2.6,8.4,7.7,10.2,17c1.9,9.3,1.5,22.4-2,38.9c-0.9,4.1,2.1,8.6,6.2,9.5c4.1,0.8,8.6-2.1,9.5-6.2
		c3.7-17.9,4.5-33,2-45.4s-8.8-22.4-18.3-27.8c-9.5-5.4-21.3-5.6-33.9-2c-12.5,3.7-26.4,11.5-41.5,22.9
		c-20.8,15.8-40.6,38-59.5,62.1c-14.6,0.6-27.8,1.8-41.5,3.9c-2.2-10.1-5.4-19.9-6.1-28.6c-1.3-15.5-0.2-28.4,2.7-37.3
		c2.9-8.9,7-13.5,12.7-15.4c8.8-3,24.9,1.7,44.5,17.9c3,3.5,9.3,3.5,12.2-0.1c3-3.6,1.9-9.7-2.1-12.1C144.1,4.8,123.6-4.1,105.9,1.8
		C94.7,5.6,87.2,15.3,83.2,27.4c-4,12-4.9,26.8-3.5,43.6c0.8,9.1,3.4,19.4,5.6,29.7c-30.4,6.1-74.5,22.3-83.9,48.6
		c-3.3,10.6-0.8,22,6.3,31.9C15,191.1,26.7,200,42.4,208c3.8,2.4,9.5,0.9,11.5-3.1c2-4-0.2-9.5-4.5-11.1
		c-14.3-7.3-23.8-15.1-28.8-21.9c-4.9-6.8-5.6-12.1-3.9-17.7c11.2-19.6,41.7-32.5,71.4-37.4c3.3,12.5,8.4,26.7,13.6,40.1
		c-16.7,30.3-30,60.6-36.2,88.8c-4,18.3-4.9,33.8-2.6,46.5C64.2,298.4,66.8,304.2,69.1,309L69.1,309z M112.5,138
		c-2.8-7.9-5.6-15.8-7.7-23.3c8.6-1.3,16.7-2.6,25.7-3.2C124.2,120.3,118.1,128.7,112.5,138L112.5,138L112.5,138z"/>
</g>
</svg>
