<svg class="c-svg-cv" version="1.1" id="Calque_1" xmlns="http://www.w3.org/2000/svg" xmlns:xlink="http://www.w3.org/1999/xlink" x="0px" y="0px"
	 viewBox="0 0 320 432" style="enable-background:new 0 0 320 432;" xml:space="preserve">
<path d="M160,0c-26.3,0-48,21.7-48,48H80H48C21.7,48,0,69.7,0,96v288c0,26.3,21.7,48,48,48h224c26.3,0,48-21.7,48-48V96
	c0-26.3-21.7-48-48-48h-32h-32C208,21.7,186.3,0,160,0z M160,32c9,0,16,7,16,16s-7,16-16,16s-16-7-16-16S151,32,160,32z M48,80h32
	c0,17.7,14.3,32,32,32h96c17.7,0,32-14.3,32-32h32c9,0,16,7,16,16v288c0,9-7,16-16,16H48c-9,0-16-7-16-16V96C32,87,39,80,48,80z
	 M160,176c-28.3,0-40,19.6-40,43.3c0,8,3.5,16,3.5,16c-1.4,0.9-3.7,3.7-3.2,8.7c1.1,9.3,4.8,11.6,7.2,11.8
	c0.9,8.6,13.5,19.7,16.5,21.3v14.5C138,311,96,304,96,336h128c0-32-42-25-48-44.4v-14.5c3-1.6,15.6-12.7,16.5-21.3
	c2.4-0.2,6.1-2.5,7.2-11.8c0.6-5-1.8-7.8-3.2-8.7c0,0,3.5-7.2,3.5-16c0-17.5-6.4-32.5-20-32.5C180,186.8,175.3,176,160,176z"/>
</svg>
