<svg class="c-svg-icon" version="1.1" id="Calque_1" xmlns="http://www.w3.org/2000/svg" xmlns:xlink="http://www.w3.org/1999/xlink" x="0px" y="0px"
	 viewBox="0 0 334.7 334.7" style="enable-background:new 0 0 334.7 334.7;" xml:space="preserve">
<style type="text/css">
	.st60{fill:#f2f5fa;}
</style>
<path class="st60" d="M328.4,152.4L182.3,6.3c-8.4-8.4-22.1-8.4-30.5,0l-30.3,30.3l38.5,38.5c8.9-3,19.2-1,26.3,6.1
	c7.2,7.2,9.2,17.5,6.1,26.5l37.1,37.1c9-3.1,19.3-1.1,26.5,6.1c10,10,10,26.2,0,36.3c-10,10-26.3,10-36.3,0
	c-7.5-7.5-9.4-18.6-5.6-27.9l-34.6-34.6l0,91c2.5,1.2,4.8,2.9,6.8,4.9c10,10,10,26.2,0,36.3c-10,10-26.3,10-36.3,0
	c-10-10-10-26.3,0-36.3c2.4-2.4,5.3-4.3,8.4-5.6v-91.9c-3.1-1.3-6-3.2-8.4-5.6c-7.6-7.6-9.4-18.7-5.5-28l-37.9-38L6.3,151.8
	c-8.4,8.4-8.4,22.1,0,30.5l146.1,146.1c8.4,8.4,22.1,8.4,30.5,0l145.5-145.5C336.8,174.5,336.8,160.9,328.4,152.4"/>
</svg>
