<svg class="c-svg-hello" version="1.1" id="Layer_6" xmlns="http://www.w3.org/2000/svg" xmlns:xlink="http://www.w3.org/1999/xlink" x="0px" y="0px"
	 viewBox="0 0 682.4 655.7" style="enable-background:new 0 0 682.4 655.7;" xml:space="preserve">
<style type="text/css">
	.st0{fill:#FECE2F;}
	.st1{fill:#FFFFFF;}
	.st2{fill:#191919;}
	.st3{fill:#1A1A1A;}
	.st4{fill:#181818;}
</style>
<g>
	<path class="st0" d="M652.6,261.7c0,141.9-172,300.6-337.5,300.4c-173.1-0.2-270.8-57-279.8-276.7C29.5,143.6,162.8,89,326,61.3
		C552.5,22.7,652.6,119.8,652.6,261.7z"/>
	<path class="st1" d="M201.6,401.2H138c-3,0-5.4-2.4-5.4-5.4V317h23.3c0.6,0,1.1-0.5,1.1-1.1s-0.5-1.1-1.1-1.1h-24.4l0,0l0,0h-14.9
		c-3,0-5.4-2.4-5.4-5.4v-70.5c0-3,2.4-5.4,5.4-5.4h47.8c0.6,0,1.1-0.5,1.1-1.1s-0.5-1.1-1.1-1.1H136v-29.5c0-0.6-0.5-1.1-1.1-1.1
		s-1.1,0.5-1.1,1.1v29.5h-17.2c-4.2,0-7.7,3.4-7.7,7.7v70.5c0,4.2,3.4,7.7,7.7,7.7h13.8v78.9c0,4.2,3.4,7.7,7.7,7.7h63.6
		c0.6,0,1.1-0.5,1.1-1.1C202.8,401.7,202.3,401.2,201.6,401.2z"/>
	<path class="st1" d="M222.5,403.5h-12c-0.6,0-1.1-0.5-1.1-1.1s0.5-1.1,1.1-1.1h12c0.6,0,1.1,0.5,1.1,1.1S223.2,403.5,222.5,403.5z"
		/>
	<path class="st1" d="M235.6,403.5h-6c-0.6,0-1.1-0.5-1.1-1.1s0.5-1.1,1.1-1.1h6c0.6,0,1.1,0.5,1.1,1.1S236.2,403.5,235.6,403.5z"/>
	<path class="st1" d="M134.9,195.4c-0.6,0-1.1-0.5-1.1-1.1v-11.8c0-0.6,0.5-1.1,1.1-1.1s1.1,0.5,1.1,1.1v11.8
		C136,194.8,135.5,195.4,134.9,195.4z"/>
	<path class="st0" d="M682.4,617.6c0,2.6-4.7,5.2-13.3,7.6c-16.9,4.7-49.2,8.8-92.1,12.1s-96.5,5.6-156,6.6
		c-22.9,0.4-46.7,0.6-71.2,0.6c-183.7,0-332.7-12.1-332.7-26.9c0-14.9,148.9-26.9,332.7-26.9S682.4,602.7,682.4,617.6z"/>
	<path class="st0" d="M420.9,655.7c-0.6,0-1.1-0.5-1.1-1.1s0.5-1.1,1.1-1.2c58.2-1,112.2-3.3,156-6.6c43.6-3.3,75.3-7.5,91.9-12.1
		c0.6-0.1,1.2,0.2,1.4,0.8c0.1,0.6-0.2,1.2-0.8,1.4c-16.7,4.6-48.7,8.8-92.4,12.1C533.1,652.3,479.2,654.6,420.9,655.7L420.9,655.7z
		"/>
	<path class="st2" d="M508.5,315.8c0-13.2-10.8-24-24-24H178.8c-13.2,0-24,10.8-24,24c0,0.3,0,0.6,0,1c0,0.3,0,0.6,0,1
		c0,13.2,10.8,24,24,24h305.7c13.2,0,24-10.8,24-24c0-0.3,0-0.6,0-1C508.4,316.4,508.5,316.1,508.5,315.8z"/>
	<path class="st1" d="M484.5,294H178.7c-12,0-21.7,9.7-21.7,21.7s9.7,21.7,21.7,21.7h305.7c12,0,21.7-9.7,21.7-21.7
		C506.2,303.8,496.5,294,484.5,294z"/>
	<path class="st3" d="M178,306.9c0.7-0.1,1.5-0.3,2.4-0.3c0.9-0.1,1.8-0.1,2.6-0.1c0.9,0,1.8,0.1,2.7,0.2s1.7,0.4,2.5,0.9
		c0.7,0.4,1.3,1,1.8,1.9c0.4,0.8,0.7,1.8,0.7,3.1c0,1.1-0.2,2.1-0.6,2.8c-0.4,0.7-0.9,1.5-1.6,1.9c-0.7,0.5-1.4,0.9-2.2,1.1
		c-0.9,0.2-1.7,0.3-2.6,0.3c-0.1,0-0.2,0-0.4,0c-0.2,0-0.4,0-0.6,0s-0.4,0-0.6,0s-0.3,0-0.4,0v6.3h-3.6L178,306.9L178,306.9z
		 M183.3,309.5c-0.3,0-0.7,0-1,0c-0.3,0-0.6,0.1-0.7,0.1v5.9c0.1,0,0.2,0,0.3,0s0.3,0,0.4,0c0.1,0,0.3,0,0.4,0c0.1,0,0.3,0,0.3,0
		c0.5,0,0.9,0,1.4-0.1c0.4-0.1,0.9-0.3,1.2-0.5c0.3-0.2,0.7-0.6,0.9-1c0.2-0.4,0.3-1,0.3-1.6s-0.1-1-0.3-1.4
		c-0.2-0.4-0.5-0.7-0.8-0.9c-0.3-0.2-0.7-0.4-1.2-0.5C184.2,309.5,183.7,309.5,183.3,309.5z"/>
	<path class="st3" d="M193.3,306.9c0.4-0.1,0.8-0.1,1.3-0.2c0.4-0.1,0.9-0.1,1.4-0.1c0.4,0,0.9-0.1,1.3-0.1s0.8,0,1.2,0
		c0.9,0,1.7,0.1,2.5,0.3c0.8,0.1,1.6,0.4,2.2,0.9c0.6,0.4,1.2,0.9,1.6,1.6s0.6,1.5,0.6,2.5c0,0.7-0.1,1.4-0.2,1.9
		c-0.1,0.6-0.3,1-0.6,1.5s-0.6,0.8-0.9,1.1c-0.4,0.3-0.8,0.6-1.2,0.8l4.4,8h-4.1l-3.7-7.1H197v7.1h-3.6L193.3,306.9L193.3,306.9z
		 M198.8,309.6c-0.4,0-0.7,0-1.1,0s-0.6,0-0.8,0.1v5.3h1.4c1,0,1.8-0.2,2.4-0.7c0.6-0.4,0.9-1.2,0.9-2.2c0-0.8-0.3-1.4-0.7-1.8
		C200.4,309.9,199.7,309.6,198.8,309.6z"/>
	<path class="st3" d="M208.7,321.7h4.6v-11.9h-4.6v-3.2h12.8v3.2h-4.6v11.9h4.6v3.2h-12.8V321.7z"/>
	<path class="st3" d="M227.8,314.1h-0.2l0.1,2.2v8.6h-3.4v-18.3h3.1l6.3,11.2h0.1l-0.2-2.2v-9h3.4v18.3h-3.1L227.8,314.1z"/>
	<path class="st3" d="M241.6,322.1h3v-12.5h-2.5v3.1h-2.9v-6h14.3v6h-2.9v-3.1h-2.5v12.5h2.9v2.9h-9.4V322.1z"/>
	<path class="st3" d="M266.1,327.8c-1.2-0.2-2.4-0.6-3.5-1.2s-2.2-1.3-3.1-2.3s-1.6-2.2-2.1-3.5s-0.8-3-0.8-4.9
		c0-1.8,0.3-3.4,0.8-4.8s1.2-2.6,2.1-3.6s1.9-1.8,3.1-2.4s2.3-1,3.5-1.2l0.6,2.8c-0.6,0.1-1.3,0.4-2.1,0.7c-0.8,0.4-1.5,0.9-2.2,1.6
		s-1.3,1.6-1.8,2.7s-0.7,2.5-0.7,4.2c0,1.6,0.3,2.9,0.7,4c0.5,1.1,1.1,2,1.8,2.7s1.5,1.2,2.2,1.6s1.4,0.6,1.9,0.7L266.1,327.8z"/>
	<path class="st3" d="M272.8,308.1c0-0.2,0-0.4,0.1-0.7c0.1-0.2,0.2-0.4,0.4-0.6c0.2-0.2,0.4-0.3,0.6-0.4c0.3-0.1,0.5-0.2,0.9-0.2
		c0.3,0,0.7,0.1,1,0.2s0.6,0.3,0.8,0.6c0.2,0.2,0.3,0.5,0.4,0.8s0.1,0.6,0.1,1c0,0.7-0.1,1.3-0.3,1.8s-0.6,1-1,1.5
		c-0.2,0.2-0.4,0.4-0.6,0.5c-0.3,0.1-0.5,0.3-0.7,0.4s-0.4,0.2-0.6,0.3c-0.1,0.1-0.3,0.1-0.3,0.1l-1-1.5c0.2-0.1,0.4-0.1,0.6-0.3
		c0.2-0.1,0.4-0.3,0.7-0.4c0.2-0.1,0.4-0.4,0.5-0.6s0.2-0.5,0.2-0.8c-0.5,0-0.9-0.1-1.3-0.4C273,309.1,272.8,308.6,272.8,308.1z
		 M278.3,308.1c0-0.2,0-0.4,0.1-0.7c0.1-0.2,0.2-0.4,0.4-0.6c0.2-0.2,0.4-0.3,0.6-0.4c0.3-0.1,0.5-0.2,0.9-0.2c0.3,0,0.7,0.1,1,0.2
		s0.6,0.3,0.8,0.6c0.2,0.2,0.3,0.5,0.4,0.8s0.1,0.6,0.1,1c0,0.7-0.1,1.3-0.3,1.8s-0.6,1-1,1.5c-0.2,0.2-0.4,0.4-0.6,0.5
		c-0.3,0.1-0.5,0.3-0.7,0.4s-0.4,0.2-0.6,0.3c-0.1,0.1-0.3,0.1-0.3,0.1l-1-1.5c0.2-0.1,0.4-0.1,0.6-0.3c0.2-0.1,0.4-0.3,0.7-0.4
		c0.2-0.1,0.4-0.4,0.5-0.6s0.2-0.5,0.2-0.8c-0.5,0-0.9-0.1-1.3-0.4C278.5,309.1,278.3,308.6,278.3,308.1z"/>
	<path class="st3" d="M296.2,317.3h-5.9v7.6h-3.6v-18.3h3.6v7.5h5.9v-7.4h3.6V325h-3.6V317.3z"/>
	<path class="st3" d="M302.9,306.7h11.9v3.2h-8.4v4.3h7.7v3.2h-7.7v4.4h8.5v3.2h-12.1L302.9,306.7L302.9,306.7z"/>
	<path class="st3" d="M327.5,317.5h3.2v7.4h-12v-18.3h3.6v15h5.2L327.5,317.5L327.5,317.5z"/>
	<path class="st3" d="M343.1,317.5h3.2v7.4h-12v-18.3h3.6v15h5.2L343.1,317.5L343.1,317.5z"/>
	<path class="st3" d="M348.9,315.8c0-1.5,0.1-2.8,0.4-4s0.7-2.2,1.3-3c0.6-0.8,1.3-1.4,2.2-1.9c0.9-0.4,1.9-0.6,3-0.6
		c1.2,0,2.3,0.2,3.2,0.7c0.9,0.5,1.6,1.1,2.1,1.9c0.6,0.8,0.9,1.8,1.2,3c0.3,1.2,0.4,2.4,0.4,3.8c0,3-0.6,5.3-1.7,7
		s-2.9,2.5-5.2,2.5c-1.3,0-2.3-0.2-3.2-0.7c-0.9-0.5-1.6-1.1-2.1-1.9c-0.6-0.8-0.9-1.8-1.2-3C349,318.5,348.9,317.2,348.9,315.8z
		 M352.7,315.8c0,0.9,0,1.7,0.1,2.5c0.1,0.7,0.2,1.4,0.4,2s0.5,1,0.9,1.3s0.9,0.5,1.6,0.5c0.6,0,1.1-0.1,1.5-0.4s0.7-0.6,1-1.2
		s0.4-1.2,0.5-2s0.1-1.7,0.1-2.8c0-0.9,0-1.6-0.1-2.4c-0.1-0.7-0.2-1.4-0.4-2c-0.2-0.6-0.5-1-0.9-1.4s-1-0.5-1.7-0.5
		c-1.2,0-2.1,0.5-2.5,1.6C352.9,312.2,352.7,313.7,352.7,315.8z"/>
	<path class="st3" d="M383.8,316.9v2.2h0.1l0.4-2.1l1.6-4.9h2.7l1.5,4.9l0.5,2.1h0.1v-2.2l0.7-10.2h3.3l-1.9,18.3h-3l-1.9-5.7
		l-0.6-2.5h-0.1l-0.6,2.5l-2.1,5.7h-3.1l-1.9-18.3h3.6L383.8,316.9z"/>
	<path class="st3" d="M395.8,315.8c0-1.5,0.1-2.8,0.4-4s0.7-2.2,1.3-3c0.6-0.8,1.3-1.4,2.2-1.9c0.9-0.4,1.9-0.6,3-0.6
		c1.2,0,2.3,0.2,3.2,0.7c0.9,0.5,1.6,1.1,2.1,1.9c0.6,0.8,0.9,1.8,1.2,3c0.3,1.2,0.4,2.4,0.4,3.8c0,3-0.6,5.3-1.7,7
		s-2.9,2.5-5.2,2.5c-1.3,0-2.3-0.2-3.2-0.7c-0.9-0.5-1.6-1.1-2.1-1.9c-0.6-0.8-0.9-1.8-1.2-3C396,318.5,395.8,317.2,395.8,315.8z
		 M399.6,315.8c0,0.9,0,1.7,0.1,2.5c0.1,0.7,0.2,1.4,0.4,2c0.2,0.6,0.5,1,0.9,1.3s0.9,0.5,1.6,0.5c0.6,0,1.1-0.1,1.5-0.4
		s0.7-0.6,1-1.2s0.4-1.2,0.5-2s0.1-1.7,0.1-2.8c0-0.9,0-1.6-0.1-2.4c-0.1-0.7-0.2-1.4-0.4-2c-0.2-0.6-0.5-1-0.9-1.4
		c-0.4-0.3-1-0.5-1.7-0.5c-1.2,0-2.1,0.5-2.5,1.6C399.8,312.2,399.6,313.7,399.6,315.8z"/>
	<path class="st3" d="M412.1,306.9c0.4-0.1,0.8-0.1,1.3-0.2c0.4-0.1,0.9-0.1,1.4-0.1c0.4,0,0.9-0.1,1.3-0.1s0.8,0,1.2,0
		c0.9,0,1.7,0.1,2.5,0.3c0.8,0.1,1.6,0.4,2.2,0.9c0.6,0.4,1.2,0.9,1.6,1.6s0.6,1.5,0.6,2.5c0,0.7-0.1,1.4-0.2,1.9s-0.3,1-0.6,1.5
		s-0.6,0.8-0.9,1.1c-0.4,0.3-0.8,0.6-1.2,0.8l4.4,8h-4.1l-3.7-7.1h-2.1v7.1h-3.6L412.1,306.9L412.1,306.9z M417.6,309.6
		c-0.4,0-0.7,0-1.1,0s-0.6,0-0.8,0.1v5.3h1.4c1,0,1.8-0.2,2.4-0.7c0.6-0.4,0.9-1.2,0.9-2.2c0-0.8-0.3-1.4-0.7-1.8
		S418.5,309.6,417.6,309.6z"/>
	<path class="st3" d="M437,317.5h3.2v7.4h-12v-18.3h3.6v15h5.2L437,317.5L437,317.5z"/>
	<path class="st3" d="M443.1,306.7c0.1,0,0.4,0,0.8-0.1c0.4,0,0.8-0.1,1.3-0.1s1,0,1.5-0.1c0.5,0,1,0,1.4,0c1.6,0,2.9,0.2,4,0.7
		c1,0.5,1.9,1.1,2.5,1.9s1,1.8,1.3,2.9s0.4,2.4,0.4,3.7c0,1.2-0.1,2.4-0.4,3.5c-0.3,1.2-0.7,2.2-1.3,3.1s-1.5,1.6-2.6,2.2
		s-2.6,0.8-4.3,0.8c-0.3,0-0.6,0-1.1,0c-0.4,0-0.9,0-1.3-0.1c-0.5,0-0.9,0-1.3-0.1s-0.7-0.1-1-0.1L443.1,306.7L443.1,306.7z
		 M448.3,309.6c-0.3,0-0.6,0-1,0c-0.3,0-0.6,0-0.7,0.1v12.2c0.1,0,0.2,0,0.3,0c0.1,0,0.3,0,0.4,0s0.3,0,0.4,0s0.3,0,0.3,0
		c1,0,1.8-0.2,2.4-0.6s1-0.9,1.3-1.5s0.5-1.3,0.6-2.1c0.1-0.7,0.1-1.5,0.1-2.3c0-0.7,0-1.3-0.1-2.1c-0.1-0.7-0.3-1.4-0.6-1.9
		c-0.3-0.6-0.7-1.1-1.3-1.5C450.1,309.8,449.3,309.6,448.3,309.6z"/>
	<path class="st3" d="M460.4,308.1c0-0.2,0-0.4,0.1-0.7s0.2-0.4,0.4-0.6s0.4-0.3,0.6-0.4c0.3-0.1,0.5-0.2,0.9-0.2
		c0.3,0,0.7,0.1,1,0.2s0.6,0.3,0.8,0.6c0.2,0.2,0.3,0.5,0.4,0.8c0.1,0.3,0.1,0.6,0.1,1c0,0.7-0.1,1.3-0.3,1.8s-0.6,1-1,1.5
		c-0.2,0.2-0.4,0.4-0.6,0.5c-0.3,0.1-0.5,0.3-0.7,0.4s-0.4,0.2-0.6,0.3c-0.1,0.1-0.3,0.1-0.3,0.1l-1-1.5c0.2-0.1,0.4-0.1,0.6-0.3
		c0.2-0.1,0.4-0.3,0.7-0.4c0.2-0.1,0.4-0.4,0.5-0.6s0.2-0.5,0.2-0.8c-0.5,0-0.9-0.1-1.3-0.4C460.6,309.1,460.4,308.6,460.4,308.1z
		 M465.9,308.1c0-0.2,0-0.4,0.1-0.7c0.1-0.2,0.2-0.4,0.4-0.6s0.4-0.3,0.6-0.4c0.3-0.1,0.5-0.2,0.9-0.2c0.3,0,0.7,0.1,1,0.2
		s0.6,0.3,0.8,0.6c0.2,0.2,0.3,0.5,0.4,0.8c0.1,0.3,0.1,0.6,0.1,1c0,0.7-0.1,1.3-0.3,1.8c-0.2,0.6-0.6,1-1,1.5
		c-0.2,0.2-0.4,0.4-0.6,0.5c-0.3,0.1-0.5,0.3-0.7,0.4s-0.4,0.2-0.6,0.3c-0.1,0.1-0.3,0.1-0.3,0.1l-1-1.5c0.2-0.1,0.4-0.1,0.6-0.3
		c0.2-0.1,0.4-0.3,0.7-0.4c0.2-0.1,0.4-0.4,0.5-0.6s0.2-0.5,0.2-0.8c-0.5,0-0.9-0.1-1.3-0.4C466.1,309.1,465.9,308.6,465.9,308.1z"
		/>
	<path class="st3" d="M476.2,324.9c0.5-0.1,1.2-0.3,1.9-0.7c0.7-0.4,1.5-0.9,2.2-1.6s1.3-1.6,1.8-2.7s0.7-2.4,0.7-4
		c0-1.7-0.2-3.1-0.7-4.2s-1.1-2-1.8-2.7s-1.4-1.2-2.2-1.6s-1.5-0.6-2.1-0.7l0.6-2.8c1.2,0.2,2.4,0.6,3.5,1.2
		c1.2,0.6,2.2,1.4,3.1,2.4c0.9,1,1.6,2.2,2.1,3.6s0.8,3,0.8,4.8s-0.3,3.5-0.8,4.9s-1.2,2.6-2.1,3.5c-0.9,1-1.9,1.8-3.1,2.3
		c-1.2,0.6-2.3,1-3.5,1.2L476.2,324.9z"/>
	<path class="st3" d="M-63.4-68.4"/>
	<path class="st2" d="M232.2,277c-1,0-2.1-0.3-3-0.9l-59-36.2c-1.7-1-2.7-2.9-2.7-4.9s1-3.8,2.7-4.9l59-36.2c1.8-1.1,4.1-1.1,6,0
		l59,36.2c1.7,1,2.7,2.9,2.7,4.9s-1,3.8-2.7,4.9l-59,36.2C234.3,276.8,233.2,277,232.2,277z M232.2,195.4c-0.6,0-1.3,0.2-1.8,0.5
		l-59,36.2c-1,0.6-1.6,1.8-1.6,2.9c0,1.2,0.6,2.3,1.6,2.9l59,36.2c1.1,0.7,2.5,0.7,3.7,0l59-36.2c1-0.6,1.6-1.8,1.6-2.9
		c0-1.2-0.6-2.3-1.6-2.9l-59-36.2C233.4,195.5,232.8,195.4,232.2,195.4z M293.6,239L293.6,239L293.6,239z"/>
	<path class="st1" d="M293.6,236.3l-59,36.2c-1.5,0.9-3.3,0.9-4.8,0l-59-36.2c-2.9-1.8-2.9-6,0-7.8l59-36.2c1.5-0.9,3.3-0.9,4.8,0
		l59,36.2C296.5,230.2,296.5,234.5,293.6,236.3z"/>
	<path class="st2" d="M232.2,274.3c-1,0-2.1-0.3-3-0.9l-59-36.2c-1.7-1-2.7-2.9-2.7-4.9s1-3.8,2.7-4.9l59-36.2c1.8-1.1,4.1-1.1,6,0
		l59,36.2c1.7,1,2.7,2.9,2.7,4.9s-1,3.8-2.7,4.9l-59,36.2C234.3,274,233.2,274.3,232.2,274.3z M232.2,192.6c-0.6,0-1.3,0.2-1.8,0.5
		l-59,36.2c-1,0.6-1.6,1.8-1.6,2.9c0,1.2,0.6,2.3,1.6,2.9l59,36.2c1.1,0.7,2.5,0.7,3.7,0l59-36.2c1-0.6,1.6-1.8,1.6-2.9
		c0-1.2-0.6-2.3-1.6-2.9l-59-36.2C233.4,192.8,232.8,192.6,232.2,192.6z M293.6,236.3L293.6,236.3L293.6,236.3z"/>
	<path class="st3" d="M215.5,236.7h0.1l3.9-14.6h4l-6,19.9h-4.4l-6.1-19.9h4.3L215.5,236.7z"/>
	<path class="st3" d="M235.2,237.6h-5.9l-1.4,4.4H224l6.4-19.9h3.9l6.4,19.9h-4.1L235.2,237.6z M230.1,234.5h4.3l-2-6.6h-0.3
		L230.1,234.5z"/>
	<path class="st3" d="M242.6,222.3c0.4-0.1,0.9-0.1,1.4-0.2s1-0.1,1.5-0.1s1-0.1,1.5-0.1s0.9,0,1.3,0c0.9,0,1.8,0.1,2.7,0.3
		c0.9,0.2,1.7,0.5,2.4,0.9c0.7,0.4,1.3,1,1.7,1.8c0.4,0.7,0.6,1.6,0.6,2.8c0,0.8-0.1,1.5-0.2,2.1s-0.4,1.1-0.7,1.6
		c-0.3,0.4-0.6,0.9-1,1.2c-0.4,0.3-0.9,0.6-1.3,0.9l4.8,8.7h-4.5l-4-7.8h-2.2v7.8h-3.9L242.6,222.3L242.6,222.3z M248.6,225.3
		c-0.4,0-0.8,0-1.2,0c-0.4,0-0.7,0.1-0.9,0.1v5.7h1.5c1.1,0,1.9-0.3,2.7-0.7c0.7-0.5,1-1.3,1-2.4c0-0.9-0.3-1.5-0.8-2
		C250.4,225.6,249.6,225.3,248.6,225.3z"/>
	<path class="st3" d="M360.8,165c-0.1,0-0.2,0-0.4-0.1c-0.6-0.2-0.9-0.8-0.7-1.4c0.1-0.3,8.4-24.5,30.4-43.3
		c0.5-0.4,1.2-0.3,1.6,0.1c0.4,0.5,0.3,1.2-0.1,1.6c-21.5,18.4-29.7,42.1-29.8,42.3C361.7,164.7,361.3,165,360.8,165z"/>
	<path class="st1" d="M576.8,319.7l36.8,271l-15.5-2.7c0,0-37.2-266-36.8-267.2S576.8,319.7,576.8,319.7z"/>
	<polygon class="st0" points="567.9,319.9 604.8,595.7 597.2,581.2 562.3,324.5 	"/>
	<path class="st2" d="M646.9,614.6l-31.3-16.9l-21.4-157.9c0-0.1,0-0.2,0-0.3v-0.1l-16.3-119.9c-0.1-0.6-0.6-1-1.3-1
		c-0.6,0.1-1,0.6-1,1.3l0.2,1.7c-1.5,1.2-2.8-5.7-8.6-4.1l-4.6,2c-0.1-0.6-0.6-1-1.3-1c-0.6,0.1-1,0.6-1,1.3L600.7,618
		c0.1,0.4,0.4,0.9,0.9,0.9c0.1,0,7.6,1.7,16.8,2.5c3.2,0.3,6.2,0.4,9,0.4c8.1,0,14.6-1.1,19.3-3.4c0.8-0.4,1.3-1.2,1.3-2
		C648.1,615.7,647.6,615,646.9,614.6z M590.9,527.7c2.2,0.5,4.5,0.7,6.5,0.7c2.8,0,5.2-0.4,6.5-0.6l3.5,26c-2.5,0.5-8.2,1.3-13-0.2
		L590.9,527.7z M575.2,411c2,0.4,4,0.6,6,0.6c2.9,0,5.6-0.4,6.9-0.6l3.8,27.8c-2.3,0.4-8.1,1.1-12.7-0.2c-0.1,0-0.2,0-0.3,0
		L575.2,411z M583.8,379.2c-2.3,0.4-8.1,1.1-12.7-0.1c-0.1,0-0.1,0-0.2,0l-3.8-28.1c2,0.4,4,0.6,6,0.6c2.9,0,5.5-0.3,6.9-0.6
		L583.8,379.2z M577.2,382c2.9,0,5.4-0.3,6.8-0.6l3.7,27.4c-2.2,0.4-8.1,1.1-12.8-0.1c0,0,0,0-0.1,0l-3.7-27.3
		C573.2,381.8,575.3,382,577.2,382z M585.4,441.6c2.8,0,5.4-0.3,6.8-0.6l3.6,26.7c-2.3,0.4-8.3,1.3-12.7-0.2c-0.1,0-0.2,0-0.3,0
		l-3.6-26.5C581.2,441.5,583.4,441.6,585.4,441.6z M589.1,470.7c2.9,0,5.5-0.4,7-0.6l3.6,26.7c-2,0.4-7.8,1.5-12.9-0.1h-0.1
		l-3.6-26.5C585.1,470.5,587.1,470.7,589.1,470.7z M593.1,499.6c2.9,0,5.5-0.4,6.8-0.7l3.6,26.7c-2.1,0.4-7.5,1.2-12.8-0.2
		c-0.1,0-0.1,0-0.2,0l-3.6-26.4C589.1,499.4,591.2,499.6,593.1,499.6z M578.1,337.4l1.5,11.2c-2.2,0.4-8,1.1-12.7-0.1
		C567.9,346,571.1,339.2,578.1,337.4z M598.3,581.5l-3.5-25.5c2,0.5,4.1,0.7,6,0.7c2.9,0,5.4-0.4,7-0.7l3.5,25.6
		C609.1,582.1,604.4,582.8,598.3,581.5z"/>
	<path class="st1" d="M598.2,581.4l4.8,35.7c0.9,0.2,2.4,0.5,4.4,0.8l-4.5-35.7L598.2,581.4z"/>
	<path class="st1" d="M463.6,212c-2.3,0.6-3.9-3.1-9-3.2c-10-0.1-2.5,16.6,7.3,29.9s28.5,40.1,40,34.9c3.1-1.4,8.6-7.8,5.6-23.9
		s-14.7-39.7-27.5-34C480,215.6,471.4,209.8,463.6,212z"/>
	<path class="st2" d="M508.6,249.4c-1.2-6.5-3.8-13.8-6.9-19.9c-2.6-5-6.8-11.6-12.3-14.4c-3.3-1.7-6.6-1.9-9.9-0.4c0,0,0,0-0.1,0
		c-4.6-3.6-10.1-4.9-16-3.8c-2.6-2.1-5.6-3.5-8.9-3.2c-3.2,0.3-4.6,1.9-5.2,3.2c-1.2,2.7-0.5,7,2,12.6c2.1,4.7,5.5,10.3,9.6,15.8
		c0.7,1,1.5,2.1,2.4,3.2c9.9,13.3,24.2,32.8,35.4,32.8c1.3,0,2.5-0.3,3.6-0.8C503.4,274,512.4,269.3,508.6,249.4z M501.5,272.4
		c-4.2,1.9-10.1-1-17.7-8.6c-6.7-6.7-13.6-16-18.6-22.7c-0.8-1.1-1.6-2.2-2.4-3.2c-8.7-11.6-13.3-22.1-11.4-26.1
		c0.5-1.2,1.6-1.8,3.3-1.9c9.1-0.8,16,14.6,16.1,14.8c0.3,0.6,0.9,0.8,1.5,0.6c0.6-0.3,0.8-0.9,0.6-1.5c-0.2-0.4-2.9-6.4-7.3-11
		c6-0.7,11.3,1.6,15.7,6.7c3.6,4.3,5.3,9,5.3,9.1c0.1,0.5,0.6,0.8,1,0.8c0.1,0,0.2,0,0.3-0.1c0.6-0.2,0.9-0.8,0.7-1.4
		c-0.1-0.2-1.8-5.2-5.7-9.8c-0.6-0.6-1.1-1.2-1.7-1.8c2.3-0.7,4.6-0.5,7,0.7c8.2,4.3,15.7,20,18.1,32.8
		C509.9,268.4,501.8,272.3,501.5,272.4z"/>
	<path class="st1" d="M615.8,259.5c0,0-0.4-21.2-19.4-40.5c-14.1-14.4-32.4-17.3-40.9-17.8c-1.4-6-3.2-12.2-5.5-18.1
		c-5.2-14-14.7-34.2-30.7-50.9c-8.2-8.5-17.2-15.2-26.8-19.8c-10.8-5.2-22.2-7.8-34.2-7.8c-0.1,0-0.1,0-0.3,0
		c-38,0.1-68.7,22.6-88.7,65c-14.4,30.7-18.2,60.9-18.4,62.2c-0.7,5.4,3.2,10.3,8.6,11c0.4,0,0.8,0.1,1.2,0.1c4.9,0,9.2-3.7,9.8-8.7
		c0-0.3,3.6-28.7,16.8-56.5c16.7-35.2,40.5-53.1,70.7-53.2c0.1,0,0.1,0,0.2,0c17.4,0,33.1,7.2,46.8,21.5
		c15.3,15.9,25.5,38.1,30.5,57c-25.5,6.4-45.7,28.3-48,43.5c-2.7,18.1-4.2,54.2,24.7,72.8c28.9,18.6,57.3,15,80.7-3.1
		C616.6,298,615.8,259.5,615.8,259.5z"/>
	<polygon class="st1" points="535.4,331.5 501.6,593.1 488,581.2 522.7,317.9 	"/>
	<polygon class="st0" points="491.7,584.5 526.7,322.2 522.7,317.9 488,581.2 	"/>
	<path class="st2" d="M536.6,322.1c-0.6-0.1-1.2,0.3-1.3,1l-33.5,258.5c-6.2,1.3-10.9,0.5-12.8,0l33.4-258.2c0.1-0.6-0.3-1.2-1-1.3
		c-0.6-0.1-1.2,0.3-1.3,1l-35.5,274.7l-30.9,16.6c-0.8,0.4-1.3,1.3-1.3,2.2s0.6,1.8,1.4,2.1c5.3,2.4,12.2,3.2,19.1,3.2
		c12.6,0,24.8-2.7,25.6-2.9c0.4-0.1,0.8-0.5,0.9-0.9l38.2-294.7C537.7,322.7,537.2,322.2,536.6,322.1z"/>
	<path class="st1" d="M486.2,599.4l-30,16.1c7.4,0.8,25.2-9.3,31-12.8c1.2-0.7,2-1.9,2.2-3.4l2.5-17.4l-2.9-0.6l-2.2,17.1
		C486.7,599,486.6,599.3,486.2,599.4z"/>
	<path class="st2" d="M499.7,556.7c-4.5,0-8.2-1-8.5-1c-0.6-0.1-1-0.8-0.8-1.4c0.1-0.6,0.8-1,1.4-0.8c0.1,0,8.2,2.1,14.5,0
		c0.6-0.2,1.2,0.1,1.4,0.7c0.2,0.6-0.1,1.2-0.7,1.4C504.6,556.4,502.1,556.7,499.7,556.7z"/>
	<path class="st2" d="M502.9,528.4c-4.3,0-7.5-0.8-7.7-0.9c-0.6-0.1-1-0.8-0.8-1.4c0.1-0.6,0.8-1,1.4-0.8l0,0c0.1,0,6.9,1.8,13.7,0
		c0.6-0.1,1.2,0.2,1.4,0.8c0.1,0.6-0.2,1.2-0.8,1.4C507.6,528.1,505.1,528.4,502.9,528.4z"/>
	<path class="st2" d="M506.6,499.6c-4.3,0-7.7-1-7.9-1c-0.6-0.2-0.9-0.8-0.8-1.4c0.2-0.6,0.8-0.9,1.4-0.8c0.1,0,7.4,2.1,13.6,0
		c0.6-0.2,1.2,0.1,1.4,0.7c0.2,0.6-0.1,1.2-0.7,1.4C511.3,499.4,508.8,499.6,506.6,499.6z"/>
	<path class="st2" d="M511.2,470.7c-4.3,0-7.9-0.8-8.2-0.9c-0.6-0.1-1-0.7-0.8-1.3c0.1-0.6,0.7-1,1.3-0.8c0.1,0,8.1,1.8,13.7,0
		c0.6-0.2,1.2,0.1,1.4,0.7c0.2,0.6-0.1,1.2-0.7,1.4C515.8,470.4,513.4,470.7,511.2,470.7z"/>
	<path class="st2" d="M514.9,441.6c-4.2,0-7.8-0.7-8-0.8c-0.6-0.1-1-0.7-0.9-1.3c0.1-0.6,0.7-1,1.3-0.9c0.1,0,7.8,1.6,13.7,0
		c0.6-0.1,1.2,0.2,1.4,0.8c0.1,0.6-0.2,1.2-0.8,1.4C519.5,441.5,517.1,441.6,514.9,441.6z"/>
	<path class="st2" d="M518.2,411.6c-4.2,0-7.8-0.7-8-0.8c-0.6-0.1-1-0.7-0.9-1.3c0.1-0.6,0.7-1,1.3-0.9c0.1,0,7.8,1.6,13.7,0
		c0.6-0.1,1.2,0.2,1.4,0.8c0.1,0.6-0.2,1.2-0.8,1.4C522.8,411.4,520.4,411.6,518.2,411.6z"/>
	<path class="st2" d="M522.1,382c-4.2,0-7.8-0.7-8-0.8c-0.6-0.1-1-0.7-0.9-1.3c0.1-0.6,0.7-1,1.3-0.9c0.1,0,7.8,1.6,13.7,0
		c0.6-0.1,1.2,0.2,1.4,0.8c0.1,0.6-0.2,1.2-0.8,1.4C526.7,381.8,524.3,382,522.1,382z"/>
	<path class="st2" d="M526.3,351.4c-4.2,0-7.8-0.7-8-0.8c-0.6-0.1-1-0.7-0.9-1.3c0.1-0.6,0.7-1,1.3-0.9c0.1,0,7.8,1.6,13.7,0
		c0.6-0.1,1.2,0.2,1.4,0.8c0.1,0.6-0.2,1.2-0.8,1.4C530.9,351.2,528.5,351.4,526.3,351.4z"/>
	<path class="st2" d="M532.7,352.8L532.7,352.8c-0.7,0-1.1-0.5-1.1-1.1c-0.1-6.9-1.7-11.5-4.8-13.8s-6.8-1.3-6.8-1.3
		c-0.4,0.1-0.7,0-1-0.2s-0.4-0.6-0.4-1l1.6-12.4c0-0.4,0.3-0.7,0.7-0.9s0.8-0.1,1.1,0.2l6.6,5.5l7.2,2.7c0.5,0.2,0.8,0.7,0.7,1.2
		l-2.7,20.2C533.7,352.4,533.3,352.8,532.7,352.8z"/>
	<path class="st1" d="M571.6,204.4c0,0,5.2-15.1,13.3-30.6s15.2-22.3,23-18.7c7.8,3.5,4.6,16.9,4.6,16.9s9.2-10.6,16.5-5.1
		s1.4,17.7-3,22.5c0,0,12.8,2.8,6.1,14.9c-6.8,12.1-26.9,25.4-26.9,25.4S594.6,210.8,571.6,204.4z"/>
	<path class="st2" d="M633.6,193c-1.6-2.5-4.2-3.7-5.9-4.2c1-1.5,2.6-4.1,3.8-7.2c2.5-6.5,2.1-11.7-1.4-15.1
		c-2.1-2-5.8-3.6-12.1-0.1c-1.5,0.9-2.9,1.9-4,2.7c0.3-3.3,0.3-8.6-2.3-12.2c-1.6-2.2-3.9-3.6-6.9-3.9c-6.8-0.8-14.7,7.7-23.4,25.1
		c-6.3,12.7-10.8,25.8-10.9,25.9c-0.2,0.6,0.1,1.2,0.7,1.4c0.6,0.2,1.2-0.1,1.4-0.7c4.9-14.2,20.1-50.9,31.9-49.5
		c2.4,0.3,4.1,1.2,5.3,3c2.9,4.1,1.9,11.2,1.5,13.1c-1.2,0.7-4.4,2.8-7.7,5.4c-5.6,4.5-8.4,8.3-8.4,11.5c0,1.3,0.6,3.2,3.1,4.7
		c1.2,0.7,2.4,1,3.5,1c0.9,0,1.8-0.2,2.6-0.6c6.3-3.2,8.6-18,8.9-20.8c1.6-1.5,10.2-9.1,15-4.4c6.2,6-1.7,18.1-3.3,20.3
		c-1.8,0.3-7.7,1.4-10.8,5.4c-1.6,2-2.2,4.4-1.9,7.2c0.3,2,1.2,2.6,1.9,2.8c0.1,0,0.3,0,0.4,0c1.3,0,3.3-1.1,7.4-6.9
		c1.8-2.5,3.4-5,4.1-6.2c1.3,0.3,3.9,1.2,5.3,3.4c1.2,1.9,1.2,4.5,0.1,7.7c-3.6,10.3-27.3,26.8-27.5,27c-0.5,0.3-0.6,1-0.3,1.6
		c0.2,0.3,0.6,0.5,0.9,0.5c0.2,0,0.4-0.1,0.6-0.2c1-0.7,24.5-17.1,28.3-28.1C635.3,198.7,635.2,195.5,633.6,193z M603.5,191.3
		c-1.2,0.6-2.5,0.5-4-0.3c-1.3-0.8-2-1.7-2-2.8c0-2.3,2.7-5.7,7.5-9.7c2.2-1.7,4.3-3.2,5.9-4.2C610,179.8,607.6,189.3,603.5,191.3z
		 M615,201.5c0-0.1-0.1-0.3-0.2-0.8c-0.3-2.2,0.2-4,1.4-5.5c1.9-2.4,5.2-3.6,7.4-4.1C620,196.8,616.3,201.4,615,201.5z"/>
	<path class="st0" d="M523.2,314.7c-29-18.6-27.5-54.7-24.7-72.8c1.8-12.2,15.2-28.7,33.6-38c-23.7,7.5-42.2,28-44.4,42.4
		c-2.7,18.1-4.2,54.2,24.7,72.8c23.9,15.3,47.3,15.6,67.9,5C562.6,329.7,543,327.4,523.2,314.7z"/>
	<path class="st0" d="M552.5,190.1c-0.7-2.4-1.5-4.7-2.4-7c-5.2-14-14.7-34.2-30.7-50.9c-8.2-8.5-17.2-15.2-26.8-19.8
		c-10.8-5.2-22.2-7.8-34.2-7.8c-0.1,0-0.1,0-0.3,0c-38,0.1-68.7,22.6-88.7,65c-7.5,16-12.2,31.9-14.9,43.6l8.2,0.7
		c0,0,9-56.1,47.3-86.2s90.7-19.8,117.5,26.4C541.8,178.7,548.5,187.6,552.5,190.1z"/>
	<path class="st0" d="M523.9,303.4c-0.2,0-0.5-0.1-0.7-0.2c-4.7-3.6-7.6-9.5-7.5-15.5c0-0.6,0.5-1.1,1.1-1.1l0,0
		c0.6,0,1.1,0.5,1.1,1.2c-0.1,5.2,2.4,10.5,6.6,13.6c0.5,0.4,0.6,1.1,0.2,1.6C524.6,303.2,524.3,303.4,523.9,303.4z"/>
	<path class="st0" d="M532.8,304.8c-0.1,0-0.3,0-0.4-0.1c-4.7-1.9-8.2-6.5-9-11.5c-0.1-0.6,0.3-1.2,0.9-1.3c0.6-0.1,1.2,0.3,1.3,0.9
		c0.7,4.3,3.7,8.1,7.6,9.7c0.6,0.2,0.8,0.9,0.6,1.5C533.6,304.6,533.2,304.8,532.8,304.8z"/>
	<path class="st4" d="M599.9,271.9c0,0,16.3,11.2,6.1,29.5c0,0,9.6-16.2,9.9-28.6L599.9,271.9z"/>
	<path class="st2" d="M617,272.8L617,272.8c0.2-2.1,0.3-4.3,0.3-6.5c0-24.1-13-45.3-32.3-56.9l-0.1-0.1c-0.1-0.1-1.3-0.9-3.5-1.9
		c-7.5-3.9-15.9-6.5-24.8-7.2c-1.4-5.7-3.2-11.6-5.4-17.5c-5.2-14.1-14.8-34.4-31-51.3c-8.3-8.6-17.4-15.4-27.2-20
		c-10.9-5.2-22.6-7.9-34.7-7.9H458c-38.5,0.1-69.5,22.8-89.7,65.6c-6.8,14.3-11.2,28.5-14,39.8l0,0l0,0c-1,4-1.8,7.7-2.5,10.8l0,0
		l0,0c-1.4,6.9-1.9,11.4-2,11.8c-0.7,6,3.6,11.5,9.6,12.2c0.4,0,0.9,0.1,1.3,0.1c5.6,0,10.2-4.1,10.9-9.7c0-0.1,0.4-3.6,1.6-9.3
		l5.5-21.7c2.4-7.9,5.6-16.6,9.7-25.2c16.5-34.8,39.9-52.5,69.7-52.6h0.2c17,0,32.5,7.1,46,21.2c14.9,15.5,24.9,36.9,30,55.4
		c-28.6,7.4-49.7,33.4-49.7,64.2c0,36.6,29.8,66.3,66.3,66.3c23.4,0,44-12.1,55.8-30.5c0.1-0.1,0.1-0.1,0.2-0.2c0,0,0.1-0.3,0.4-0.7
		c3.2-5.2,5.8-10.9,7.5-16.9C616.1,280.1,616.9,276.2,617,272.8z M550.9,330.4c-35.4,0-64.1-28.7-64.1-64.1
		c0-29.8,20.5-54.9,48-62.1c2.5,9.8,3.7,18.6,3.4,25.1c0,0.6,0.4,1.2,1.1,1.2c0.6,0,1.2-0.4,1.2-1.1c0.8-19.4-10.7-59.4-34.6-84.3
		c-13.9-14.5-29.9-21.9-47.6-21.9h-0.2c-30.6,0.1-54.7,18.2-71.7,53.9c-4.1,8.6-7.3,17.4-9.7,25.3c-7.3,10.1-17.1,7.2-20,6.1
		c2.8-11,7.1-24.7,13.6-38.4c19.8-42,50.1-64.2,87.6-64.4h0.3c11.8,0,23.1,2.6,33.7,7.7c9.5,4.6,18.4,11.2,26.5,19.6
		c15.9,16.6,25.4,36.6,30.5,50.5c6.3,17,9.5,34,9,46.7c0,0.6,0.4,1,0.9,1.2l0,0c0.3,0,0.7,0.1,1,0.1c4.7,0,7.5-5.5,10.3-10.8
		c2.4-4.6,4.9-9.4,8.3-10.4c1.4-0.4,2.9-0.2,4.6,0.7c19,11.1,31.9,31.8,31.9,55.4c0,1.8-0.1,3.5-0.2,5.3l-14.9-0.8
		c-0.5,0-1,0.3-1.1,0.7c-0.1,0.5,0,1,0.4,1.3c0,0,4,2.8,6.6,7.6c3.4,6.2,3.2,13-0.6,20.1C593.8,318.4,573.7,330.4,550.9,330.4z"/>
	<path class="st1" d="M659.3,231.1c1.8,1.5,4.9-1.3,9.5,0.7c9.2,4-4.5,16.2-18.9,24.3c-14.4,8-42.4,25-50.8,15.5
		c-2.3-2.6-4.7-10.6,4.7-24.1c9.3-13.4,29.7-30.2,39-19.8C642.9,227.7,653.1,226,659.3,231.1z"/>
	<path class="st2" d="M669.4,230.8c-2.9-1.6-6.3-1.6-9.4-0.7c-5-3.5-10.5-4.5-16.1-3.1c0,0,0,0,0-0.1c-2.4-2.6-5.4-3.8-9.2-3.6
		c-6.2,0.4-12.7,4.6-17.1,8.1c-5.4,4.3-10.6,9.9-14.4,15.3c-11.6,16.7-5.3,24.6-4.6,25.5c2,2.3,4.9,3.2,8.4,3.2
		c11.1,0,28.1-9.6,40.3-16.5c1.2-0.7,2.4-1.3,3.5-1.9c5.2-2.9,22.2-13.1,22.2-21.2C672.8,234.4,672.2,232.4,669.4,230.8z
		 M649.4,255.1c-1.1,0.6-2.2,1.3-3.5,1.9c-7.3,4.1-17.3,9.8-26.2,13.2c-10,3.8-16.6,4-19.7,0.6c-0.3-0.3-6-7.2,4.7-22.7
		c7.4-10.6,20.6-22,29.9-22.5c2.7-0.1,4.9,0.6,6.7,2.2c-0.7,0.3-1.5,0.6-2.3,1c-5.5,2.6-9,6.5-9.1,6.6c-0.4,0.4-0.4,1.2,0.1,1.6
		c0.2,0.2,0.5,0.3,0.7,0.3c0.3,0,0.6-0.1,0.8-0.4c0,0,3.5-3.7,8.5-6.2c6.1-2.9,11.8-2.8,17.1,0.3c-5.9,2.4-10.8,6.7-11.1,7
		c-0.4,0.4-0.5,1.1-0.1,1.6c0.4,0.4,1.1,0.5,1.6,0.1c0.1-0.1,12.8-11.3,20.7-6.9c1.5,0.8,2.2,1.9,2.2,3.1
		C670.5,240.3,662,248.1,649.4,255.1z"/>
	<ellipse class="st1" cx="352.2" cy="249.4" rx="31.7" ry="31.7"/>
	<ellipse class="st1" cx="357.8" cy="244.9" rx="16.8" ry="16.8"/>
	<path class="st2" d="M357.8,262.8c-9.9,0-17.9-8-17.9-17.9s8-17.9,17.9-17.9s17.9,8,17.9,17.9S367.7,262.8,357.8,262.8z
		 M357.8,229.2c-8.6,0-15.6,7-15.6,15.6s7,15.6,15.6,15.6s15.6-7,15.6-15.6C373.5,236.3,366.5,229.2,357.8,229.2z"/>
	<ellipse class="st2" cx="357.8" cy="244.9" rx="11.2" ry="11.2"/>
	<circle class="st1" cx="360.8" cy="238.9" r="6"/>
	<path class="st0" d="M361.1,291.8c1.6-21.5-11.4-24.9-11.4-24.9l-8.5,24.9H361.1z"/>
	<path class="st0" d="M324.1,264.3c0,0-2.4,3.4-4.9,22.4s0.5,36.8,4.2,36.8s25.6-38.1,26.2-56.5
		C349.7,266.9,339.6,260.4,324.1,264.3z"/>
	<path class="st2" d="M385.1,249.4c0-18.1-14.7-32.8-32.8-32.8c-1.2,0-2.4,0.1-3.6,0.2c1.3-3.2,1.5-8.5-0.1-12.6
		c-1.2-3.1-3.1-3.8-4.4-3.8c-1.6,0-2.9,1-4,1.8c-1.8,1.4-2.6,1.9-3.8,1c-1.2-0.9-2.2-3.6-3.2-6.1c-1.7-4.1-3.4-8.4-6.6-8
		c-3.7,0.6-4.5,5-5.2,8.7c-0.4,2.1-0.9,4.7-1.8,5c-1.6,0.5-3.7-2.5-5.6-5.2c-2.2-3.1-4.4-6.1-6.9-6.3c-1.1-0.1-2.1,0.3-3.1,1.2
		c-1.9,1.8-3.4,6.9,5.4,31.4c4.2,11.7,9,23,10.1,25.5v0.1c0,5.3,1.3,10.4,3.5,14.8c-0.8,1.6-2.8,7-4.8,22.2c-2,15.5-0.5,32.7,3.2,37
		c0.6,0.7,1.3,1.1,2.1,1.1c0.6,0,2,0,6.5-6.7c2.7-4.1,5.8-9.5,8.7-15.2c1.3-2.5,3.1-6.3,5-10.8h9.4c1.7-11.9-1-19.7-2.6-23
		c0-0.1,0-0.1,0-0.2c3.1,1.5,10.5,7,9.3,23.2h2.3c0.3-4,0.1-7.7-0.6-10.9C375.2,276.8,385.1,264.3,385.1,249.4z M337.1,300.9
		c-6.2,12.4-12.1,20.7-13.7,21.4c-0.1,0-0.2-0.1-0.4-0.3c-2.6-2.9-4.9-18.1-2.7-35.2c2-15.3,4-20.3,4.6-21.5
		c12.6-3,21.4,1.2,23.6,2.4C348,275.3,343.9,287.3,337.1,300.9z M361.1,278.7c-0.7-2.3-1.6-4.4-2.8-6.2c-3.2-4.8-7.2-6.3-8.1-6.6
		c-1.3-0.8-10.9-6.3-25.4-2.9c-1.8-3.7-2.9-7.7-3.1-12h0.1c0.2,0,0.4,0,0.7-0.1c2.2-0.6,3.9-3.7,5.3-9.7c1.9-8.4,5.8-14.9,11.3-18.7
		c1.5-1,2.8-1.7,4-2.2c2.9-0.9,6-1.4,9.2-1.4c16.9,0,30.6,13.7,30.6,30.6C382.8,263.2,373.6,274.9,361.1,278.7z"/>
	<circle class="st3" cx="164.4" cy="232.3" r="10.5"/>
	<ellipse class="st1" cx="164.3" cy="232.3" rx="4.4" ry="4.4"/>
	<circle class="st2" cx="153.9" cy="315.8" r="10.5"/>
	<circle class="st1" cx="153.9" cy="315.8" r="4.4"/>
	<path class="st2" d="M409.1,599.8l0.1-0.1c0.1-0.2,0.2-0.4,0.2-0.6c0-0.1,0-0.1,0-0.2c0-0.1,0-0.2-0.1-0.3l-16.5-45.3
		c0-0.1-0.1-0.3-0.2-0.4c-1-1.9-3.3-2.7-5.3-1.8c-1.9,1-2.7,3.3-1.8,5.3l20.1,40.5c-1.2-0.3-2.6-0.4-4.1-0.4c-4.3,0-7.7,1.2-7.7,2.6
		s3.5,2.6,7.7,2.6c3.4,0,6.2-0.7,7.2-1.7C409,599.9,409,599.8,409.1,599.8L409.1,599.8z"/>
	<path class="st1" d="M384.9,497.3c0,0-23.1-38-30.9-30.5c-6,5.8,9.8,37.4,8.5,46c-1.2,8.5-15.9,61.3,37.4,54.8"/>
	<path class="st0" d="M367.7,511.6c-0.2,7.9-7.4,53.9,31.4,52L385,497.3c0,0-23.1-38-30.9-30.5C348.7,473.3,367.9,502.9,367.7,511.6
		z"/>
	<path class="st2" d="M388.1,602.2c0.1-0.2,0.2-0.4,0.2-0.6v-0.1c0-0.1,0-0.2,0-0.3l-12.9-45.6c0-0.1-0.1-0.3-0.1-0.4
		c-0.8-2-3.1-3-5.1-2.2s-3,3.1-2.2,5.1l16.8,41.3c-1.2-0.3-2.7-0.4-4.3-0.4c-4.3,0-7.7,1.2-7.7,2.6s3.5,2.6,7.7,2.6
		c3.3,0,6.1-0.7,7.2-1.7C387.9,602.5,388,602.3,388.1,602.2z"/>
	<ellipse transform="matrix(0.6314 -0.7754 0.7754 0.6314 -231.193 444.769)" class="st2" cx="352.3" cy="465.6" rx="5.2" ry="6"/>
	<circle class="st2" cx="366.5" cy="489.2" r="2.9"/>
	<path class="st2" d="M409.8,421.4c0-14.4-11.7-26-26-26h-81.3c-14.4,0-26,11.7-26,26c0,0.5,0,1,0,1.5s0,1,0,1.5
		c0,14.4,11.7,26,26,26h81.3c14.4,0,26-11.7,26-26c0-0.5,0-1,0-1.5C409.8,422.3,409.8,421.9,409.8,421.4z"/>
	<path class="st1" d="M383.8,397.6h-81.3c-13.1,0-23.8,10.7-23.8,23.8c0,13.1,10.7,23.8,23.8,23.8h81.3c13.1,0,23.8-10.7,23.8-23.8
		C407.6,408.2,396.9,397.6,383.8,397.6z"/>
	<path class="st3" d="M305.5,422.5l0.1,2.4h0.1l0.5-2.2l1.7-5.3h2.9l1.6,5.3l0.5,2.2h0.1l0.1-2.4l0.8-11h3.6l-2.1,19.9h-3.3
		l-2.1-6.3l-0.6-2.7h-0.1l-0.7,2.7l-2.3,6.3h-3.4l-2.1-19.9h3.9L305.5,422.5z"/>
	<path class="st3" d="M329.3,423h-6.4v8.3H319v-19.9h3.9v8.1h6.4v-8.1h3.9v19.9h-3.9V423z"/>
	<path class="st3" d="M336.1,427.9h5v-13h-5v-3.5h14v3.5h-5v13h5v3.5h-14V427.9z"/>
	<path class="st3" d="M363.4,423.2h3.5v8.1h-13.1v-19.9h3.9v16.4h5.6L363.4,423.2L363.4,423.2z"/>
	<path class="st3" d="M370.7,411.4h13v3.5h-9.1v4.6h8.4v3.5h-8.4v4.9h9.3v3.5h-13.2L370.7,411.4L370.7,411.4z"/>
	<path class="st2" d="M481.7,535.4c-2.7-4.1-5.6-8-8.9-11.7c-1.6-1.8-3.4-3.6-5.2-5.3c-0.9-0.9-1.8-1.6-2.8-2.5
		c-0.4-0.4-0.9-0.8-1.4-1.2s-1-0.8-1.5-1.2c-0.6-0.5-1.3-1-2-1.5c4.9,1.3,9.6,2.9,14.4,4.6l0,0c0.4,0.1,0.7,0,0.9-0.4
		c0.1-0.4,0-0.8-0.4-1c-7.1-3-14.3-5.6-21.7-7.8c-0.2-0.1-0.4-0.1-0.6-0.1c-5.3-3.1-11.1-5.5-17-7.3c-4.8-1.5-9.7-2.5-14.6-3.2
		c0.4,0,0.7,0,1.1,0c2.1,0.1,4.1,0.3,6.2,0.6l1.5,0.2c0.5,0.1,1,0.1,1.5,0.2l3.1,0.6c0.5,0.1,1,0.2,1.5,0.3l1.5,0.3l3.1,0.7
		c0.5,0.1,1,0.3,1.5,0.4l1.5,0.4l3,0.9l0,0c0.3,0.1,0.7-0.1,0.9-0.4c0.1-0.4,0-0.8-0.4-0.9l-3-1.2l-1.5-0.6c-0.5-0.2-1-0.4-1.5-0.6
		l-3-1l-1.5-0.5c-0.5-0.1-1-0.3-1.5-0.4l-2.4-0.7c0.9,0.1,1.8,0.2,2.7,0.4c5.6,0.9,11.2,2.1,16.7,3.7c0.4,0.1,0.7-0.1,0.9-0.4
		c0.1-0.4,0-0.8-0.4-0.9c-5.4-2-11-3.7-16.6-5s-11.5-2.2-17.3-2.6c-5.9-0.4-11.8-0.4-17.7,0.2c-2.9,0.3-5.9,0.7-8.8,1.3
		c-1.5,0.3-2.9,0.6-4.4,1c-0.7,0.2-1.5,0.4-2.2,0.6c-0.4,0.1-0.7,0.2-1.1,0.4l-0.4,0.1c-1.9-2.9-5.1-7.8-8.7-12.7
		c-7.9-10.5-14-16.1-18.3-16.6c-1.6-0.2-3,0.3-4.1,1.3c-4.1,3.9-0.3,15.7,3.7,28.1c2.4,7.5,4.9,15.3,4.4,18.6
		c-0.1,0.7-0.3,1.6-0.5,2.8c-1.8,9.6-6.1,32.2,5.9,45c5.6,5.9,13.9,8.9,24.8,8.9c1.9,0,4-0.1,6-0.3c1.6,1.5,3.2,2.8,4.9,4.1
		c5.7,4.4,12,8,18.6,10.7s13.5,4.5,20.5,5.5c0.4,0,0.7-0.2,0.8-0.6c0.1-0.4-0.2-0.8-0.6-0.9l0,0c-6.8-1.4-13.4-3.6-19.6-6.5
		c-4.4-2.2-8.7-4.7-12.6-7.7l1.3,0.7c0.6,0.3,1.2,0.6,1.7,0.9c3.2,1.6,6.4,2.9,9.7,4.1c0.3,0.1,0.5,0.3,0.7,0.4
		c2.9,1.7,5.9,3.2,9,4.6c0.3,0.1,0.7,0,0.9-0.3c0.2-0.4,0-0.8-0.3-1l0,0c-1.6-0.9-3.3-1.8-4.9-2.7c0.1-0.3-0.1-0.7-0.4-0.9
		c-0.9-0.3-1.8-0.7-2.7-1.1c-0.2-0.1-0.4-0.2-0.5-0.4c-0.7-0.4-1.3-1-2-1.4l-1-0.7c-0.3-0.3-0.6-0.5-1-0.7c-0.6-0.5-1.3-1-1.9-1.5
		l-1.9-1.6c-1-0.9-1.9-1.7-2.8-2.6c0.3,0.2,0.6,0.4,1,0.6c0.7,0.5,1.5,1,2.3,1.5c6.1,3.9,12.5,7.2,19.1,10.1c0.3,0.1,0.7,0,0.9-0.3
		c0.2-0.4,0-0.8-0.3-1l0,0c-6.3-3.2-12.4-6.9-18.2-11.1c-0.7-0.5-1.4-1-2.1-1.6c-0.7-0.5-1.4-1-2.1-1.6c-1.4-1.1-2.8-2.2-4.1-3.4
		c-2.7-2.3-5.3-4.7-7.8-7.2c-1-1-2-2.1-2.9-3.1c-0.1-0.2-0.3-0.4-0.4-0.6l0,0c2.1,2.1,4.3,4.1,6.5,6.1c1.8,1.6,3.6,3.1,5.5,4.6
		s3.8,2.9,5.8,4.2s4,2.6,6.1,3.7c2.1,1.2,4.3,2.2,6.5,3.1c0.3,0.1,0.7,0,0.9-0.3c0.2-0.4,0-0.8-0.3-1l0,0c-2.1-1.1-4-2.3-5.9-3.5
		c-1.9-1.3-3.8-2.7-5.6-4.1c-0.2-0.2-0.5-0.4-0.7-0.6l0.6,0.4c0.7,0.4,1.3,0.8,2,1.2l4.1,2.3c1.3,0.8,2.7,1.5,4.1,2.2l2.1,1.1
		c0.7,0.4,1.4,0.7,2.1,1l4.2,2.1c0.3,0.2,0.7,0,1-0.3c0.2-0.3,0.1-0.8-0.3-1l0,0l-4-2.4c-0.7-0.4-1.3-0.8-2-1.2l-1.9-1.2
		c-1.3-0.8-2.6-1.6-3.9-2.5l-3.8-2.6c-0.6-0.4-1.3-0.9-1.9-1.3l-1.9-1.3c-1.3-0.9-2.5-1.8-3.8-2.7l-3.7-2.7l-3.7-2.8
		c-1.1-0.9-2.2-1.7-3.3-2.6c-0.2-0.2-0.4-0.5-0.6-0.7c0.1,0.1,0.3,0.2,0.4,0.3c5.2,3.4,10.3,6.8,15.3,10.2c5.1,3.5,10.1,7,14.9,10.8
		l0,0c0.3,0.2,0.7,0.2,1-0.1s0.3-0.7,0-1c-1.8-1.6-3.6-3.2-5.5-4.7c0.3,0,0.5,0,0.7-0.3c0.1-0.1,0.2-0.3,0.1-0.5
		c1.3,1.2,2.6,2.4,3.8,3.6c5,5,9.9,10.2,14.3,15.8l0,0c0.2,0.3,0.7,0.4,1,0.1c0.3-0.2,0.4-0.7,0.2-1c-4.1-5.9-8.7-11.5-13.5-16.8
		c-4.6-5-9.3-9.7-14.3-14.4c0.6,0.5,1.2,0.9,1.7,1.4c4.4,3.6,8.7,7.4,12.6,11.4l0,0c0.3,0.3,0.7,0.3,1,0s0.3-0.7,0.1-1
		c-2.8-3.4-5.8-6.6-9-9.7c2.5,2,5,4,7.5,6.1c1,0.9,1.9,1.7,2.9,2.6c0.5,0.7,0.9,1.5,1.3,2.3c1.7,3.1,3.1,6.4,4.2,9.7l0,0
		c0.1,0.4,0.5,0.6,0.9,0.5s0.6-0.5,0.5-0.9c-0.7-2.5-1.5-5-2.5-7.5c0.4,0.4,0.9,0.8,1.3,1.3c2.8,2.8,5.5,5.6,8.1,8.6l0,0
		c0.3,0.3,0.7,0.3,1,0.1c0.3-0.3,0.4-0.7,0.1-1c-2.4-3.1-5-6.2-7.7-9.1c-1.9-2.1-3.9-4.1-5.9-6.2c-1.2-2-2.4-4-3.8-5.9
		c-2.2-2.9-4.6-5.8-7.1-8.4c-1.2-1.2-2.3-2.3-3.5-3.4c3.5,2.2,6.9,4.7,10.3,7.2l2.9,2.4c1,0.8,1.9,1.6,2.8,2.5l1.4,1.3
		c0.4,0.4,0.9,0.9,1.3,1.3l2.7,2.7l0,0c0.3,0.3,0.7,0.3,1,0s0.3-0.7,0.1-1l-2.5-2.9c-0.4-0.5-0.8-1-1.3-1.5l-1.3-1.4
		c-0.9-0.9-1.8-1.9-2.7-2.8l-2.8-2.7c-3.8-3.5-7.7-6.8-11.9-9.8c-2.4-1.7-4.8-3.4-7.2-5c1.4,0.6,2.8,1.3,4.1,2
		c3.4,1.7,6.8,3.6,10.1,5.6c3.3,2,6.5,4.2,9.5,6.5l2.3,1.8l2.2,1.9c0.7,0.6,1.5,1.3,2.2,1.9l1.1,1l0.5,0.5l0.5,0.5l2.1,2.1
		c0.7,0.7,1.3,1.4,2,2.1l1,1.1c0.3,0.4,0.6,0.7,0.9,1.1l1.8,2.2l0,0c0.3,0.3,0.7,0.3,1,0.1s0.4-0.7,0.1-1l-1.3-1.9
		c-0.3-0.4-0.6-0.8-0.9-1.2l-0.9-1.2c-0.6-0.7-1.2-1.5-1.9-2.3l-2-2.2l-0.5-0.6l-0.5-0.5l-1-1c-0.7-0.7-1.4-1.4-2.1-2.1l-2.2-2
		l-2.2-1.9c-2.1-1.8-4.2-3.5-6.4-5.1c0.9,0.6,1.9,1.2,2.8,1.9c3.9,2.7,7.6,5.6,10.8,9l0,0c0.3,0.3,0.7,0.3,1,0.1
		c0.3-0.3,0.4-0.7,0.1-1c-3-3.8-6.5-7.2-10.3-10.3c-1.1-0.9-2.3-1.9-3.5-2.8c2.3,1.4,4.6,3,6.8,4.6l0,0c0.3,0.2,0.7,0.2,1-0.1
		s0.3-0.7,0-1c-3.6-3.3-7.5-6.3-11.6-8.9c-4.1-2.7-8.5-5-13-7c-0.8-0.4-1.6-0.7-2.4-1c1.6,0.4,3.2,0.9,4.9,1.4l2.9,0.9l2.9,1
		c0.7,0.3,1.5,0.6,2.2,0.9c0.6,0.5,1.3,0.9,1.9,1.4c3.4,2.6,6.7,5.5,9.7,8.6c0.8,0.7,1.5,1.6,2.2,2.4c0.7,0.8,1.5,1.6,2.1,2.5
		c1.4,1.7,2.7,3.4,3.9,5.2l0,0c0.2,0.3,0.6,0.4,0.9,0.2c0.3-0.2,0.5-0.6,0.3-1c-1.1-1.9-2.2-3.9-3.5-5.7c-0.6-0.9-1.3-1.8-1.9-2.8
		c-0.7-0.9-1.3-1.8-2.1-2.7c-0.8-1-1.6-1.9-2.4-2.8c0.1,0,0.2,0.1,0.3,0.1l2.7,1.5c1.2,0.7,2.5,1.5,3.7,2.3c0.8,1.6,1.5,3.2,2.2,4.8
		l0,0c0.1,0.3,0.5,0.5,0.9,0.4s0.6-0.6,0.4-0.9c-0.3-0.8-0.6-1.6-0.9-2.5c4.6,3.2,9,6.7,13.2,10.5l0,0c0.3,0.3,0.7,0.3,1,0
		s0.3-0.7,0-1c-4.9-5-10.2-9.6-16-13.7c-0.1-0.3-0.3-0.6-0.5-1c-0.6-1.3-1.3-2.4-2.1-3.7c-0.2-0.3-0.4-0.6-0.5-0.8
		c5.9,3.6,11.6,7.7,16.8,12.3l0,0c0.3,0.3,0.7,0.2,1,0c0.3-0.3,0.3-0.7,0-1c-5.6-5.4-11.6-10.3-18.1-14.6c-0.4-0.3-0.8-0.6-1.2-0.8
		l-0.5-0.3c0.7,0.2,1.5,0.4,2.2,0.7c2.5,0.9,5,1.8,7.5,2.9l0,0c0.3,0.1,0.7,0,0.9-0.3c0.2-0.4,0-0.8-0.3-1c-2.4-1.3-4.9-2.5-7.4-3.5
		c-2.5-1-5-2.1-7.6-2.9c-0.3-0.1-0.6-0.2-0.9-0.3c-2-1.9-4.1-3.5-6.4-5c-1.2-0.8-2.4-1.6-3.7-2.3c0.1,0,0.2,0,0.3,0.1
		c8.7,2.4,17.1,6.3,24.4,11.8c0.9,0.7,1.8,1.4,2.7,2.1l1.3,1.1l0.7,0.6l0.6,0.6c1.7,1.5,3.3,3.1,4.9,4.8c3.1,3.4,5.9,7,8.5,10.8l0,0
		c0.2,0.3,0.6,0.4,1,0.2c0.3-0.2,0.4-0.7,0.3-1c-2.4-4-5.1-7.9-8.2-11.5c-1.5-1.8-3.1-3.5-4.8-5.2l-0.6-0.6l-0.6-0.6l-1.3-1.2
		c-0.9-0.8-1.8-1.6-2.7-2.3c-5.7-4.7-12.2-8.5-19.1-11.3c0.1,0,0.1,0,0.2,0.1c2.7,0.8,5.3,1.7,7.9,2.8s5.1,2.3,7.5,3.6
		c2.4,1.4,4.7,2.9,6.9,4.7s4.2,3.7,6,5.8l0,0c0.3,0.3,0.7,0.3,1,0.1c0.3-0.3,0.4-0.7,0.1-1c-1.8-2.3-3.7-4.5-5.8-6.5
		c-2.2-1.9-4.4-3.8-6.8-5.4c-2.4-1.6-5-3.1-7.5-4.4c-1.6-0.8-3.1-1.5-4.7-2.2c1.8,0.3,3.6,0.7,5.4,1c0.9,0.2,1.9,0.4,2.8,0.6h0.1
		c3.6,1.8,7.1,3.8,10.4,6.2c0.5,0.3,1,0.7,1.5,1c0.5,0.4,1,0.7,1.4,1.1c0.9,0.7,1.9,1.5,2.8,2.3c1.8,1.5,3.5,3.2,5.2,4.9
		c3.3,3.4,6.4,7.2,9.2,11.1l0,0c0.2,0.3,0.7,0.4,1,0.2C481.9,536.2,482,535.8,481.7,535.4z M368.4,558.9c-11.1-11.9-7-33.6-5.2-42.9
		c0.2-1.2,0.4-2.2,0.5-2.9c0.6-3.8-1.8-11.2-4.6-19.6c-3.2-10.2-7.3-22.8-4.4-25.6c0.6-0.5,1.2-0.7,2.1-0.6
		c6.6,0.9,19.1,18.5,25.2,28c-1,1-1.3,2.5-0.7,3.8c-0.3,0.1-0.6,0.1-0.9,0.2c-0.6,0.1-1.2,0.3-1.8,0.5l-0.9,0.3
		c-0.3,0.1-0.6,0.2-1,0.3l0,0h-0.1c-1.7,0.6-2.6,2.5-1.9,4.3c0.3,0.8,0.9,1.5,1.6,1.8l-0.8,0.2c-0.3,0.1-0.6,0.1-0.9,0.3l0,0h-0.1
		c-1.7,0.6-2.7,2.5-2.1,4.2c0.4,1.3,1.6,2.1,2.8,2.2h-0.1c0,0-0.1,0-0.2,0c-1.8,0.3-3,2-2.7,3.8c0.2,1.2,1,2.1,2,2.5l0,0
		c-1.6,0.7-2.3,2.5-1.8,4c-0.7,0.3-1.3,0.7-1.7,1.4c-0.9,1.6-0.4,3.6,1.1,4.5l0.4,0.3l0.7,0.4c-0.1,0.4-0.1,0.9,0,1.4
		c-0.8,1-1.2,2.4-0.7,3.7c0.6,1.6,2.1,2.7,3.8,2.6c0,0.4,0.1,0.7,0.2,1.1l0.1,0.4l0.1,0.3l0.3,0.7l0,0c-0.9,1-1.3,2.5-0.8,3.8
		c0.2,0.7,0.6,1.3,1.2,1.7c-0.3,0.8-0.3,1.6,0,2.5c0.6,1.9,2.5,2.9,4.4,2.5c-0.2,0.7-0.2,1.6,0,2.4c0.6,1.7,2.3,2.7,4,2.6
		c0.5,0.7,1,1.4,1.5,2.1c2.2,2.9,4.6,5.6,7.1,8.1c0.3,0.3,0.5,0.5,0.7,0.7C383,567.6,374.1,564.9,368.4,558.9z M376.9,513.1h-0.1
		h-0.3h0.1C376.7,513.1,376.8,513,376.9,513.1L376.9,513.1C376.8,513,376.9,513,376.9,513.1z M399.9,560.3
		c3.2,3.7,6.8,7.2,10.5,10.5l-0.4-0.3l-0.7-0.6l-1.5-1.1c-1.9-1.5-3.8-3.1-5.6-4.8c-1.8-1.7-3.4-3.5-4.9-5.4s-2.9-3.9-4.1-6
		c0-0.1-0.1-0.1-0.1-0.2c0.7,0.7,1.5,1.5,2.2,2.2C396.7,556.5,398.3,558.4,399.9,560.3z M431.3,520.4c1.5,0.6,2.9,1.2,4.3,1.8
		l1.3,0.6c0.4,0.2,0.9,0.4,1.3,0.6l2.5,1.2c1,0.9,2,1.9,2.9,2.9l0.7,0.7l0.6,0.8c0.4,0.5,0.8,1,1.2,1.6c0.1,0.1,0.1,0.2,0.2,0.3
		l-1.6-1c-0.4-0.3-0.9-0.6-1.3-0.8l-1.3-0.8c-0.9-0.5-1.8-1-2.7-1.5l-2.8-1.5c-0.2-0.1-0.5-0.3-0.7-0.4c-1.8-1.7-3.7-3.3-5.7-4.8
		C430.5,520.2,430.9,520.3,431.3,520.4z"/>
	<circle class="st2" cx="277.1" cy="421.4" r="11.4"/>
	<circle class="st1" cx="277.1" cy="421.4" r="4.8"/>
	<path class="st3" d="M92.3,403.5c-0.5,0-0.9-0.3-1.1-0.8C87.4,388.3,77.6,390,77.5,390c-0.6,0.1-1.2-0.3-1.3-0.9s0.3-1.2,0.9-1.3
		c0.1,0,12-2.2,16.3,14.3c0.1,0.6-0.2,1.2-0.8,1.4C92.4,403.5,92.4,403.5,92.3,403.5z"/>
	<path class="st1" d="M274.6,567.3l-28.3,1.2c-12.6,0.5-23.3-9.3-23.8-21.9l0,0c-0.5-12.6,9.3-23.3,21.9-23.8l28.2-1.2
		c12.6-0.5,23.3,9.3,23.8,21.9l0,0C297,556.1,287.2,566.7,274.6,567.3z"/>
	<path class="st2" d="M297.6,543.4c-0.3-6.4-3-12.3-7.7-16.6s-10.8-6.6-17.2-6.3l-28.3,1.2c-13.2,0.6-23.5,11.8-23,25
		c0.3,6.4,3,12.3,7.7,16.6c4.4,4.1,10.2,6.3,16.2,6.3c0.3,0,0.7,0,1,0l28.3-1.2c6.4-0.3,12.3-3,16.6-7.7
		C295.6,555.9,297.9,549.8,297.6,543.4z M289.6,559.1c-3.9,4.3-9.3,6.8-15.1,7l-28.3,1.2c-5.8,0.3-11.3-1.8-15.6-5.7
		c-4.3-3.9-6.8-9.3-7-15.1c-0.4-10.9,7.2-20.2,17.5-22.2c0.3,2.1,1.5,6.8,6.7,9.6c7,3.8,29.8,9,29.8,9s10.5-4.2,16.4-4.7
		c0.1,0,0.3,0,0.4-0.1c0.6,1.8,0.9,3.6,1,5.5C295.6,549.3,293.6,554.9,289.6,559.1z"/>
	<path class="st2" d="M299.7,492.3l-27.3-7.6c-6.2-1.7-12.7-0.9-18.2,2.2c-5.6,3.2-9.6,8.3-11.3,14.5c-0.1,0.3-0.2,0.7-0.3,1.1
		c-0.1,0.3-0.2,0.7-0.3,1c-3.5,12.7,4,26,16.7,29.5l27.3,7.6l0,0c2.1,0.6,4.3,0.9,6.4,0.9c4.1,0,8.1-1,11.8-3.1
		c5.6-3.2,9.6-8.3,11.3-14.5c0.1-0.3,0.2-0.7,0.3-1c0.1-0.3,0.2-0.7,0.3-1C319.9,509.1,312.5,495.8,299.7,492.3z M287.5,536.4
		l-27.3-7.6c-5.6-1.5-10.3-5.2-13.1-10.2c-2.7-4.7-3.5-10.2-2.3-15.5c1.7-5.2,5.2-9.4,9.9-12.1c3.3-1.9,7-2.8,10.7-2.8
		c1.9,0,3.9,0.3,5.8,0.8l27.3,7.6c11.2,3.1,18,14.5,15.4,25.7C310.3,533.2,298.7,539.5,287.5,536.4z"/>
	<path class="st1" d="M303.5,536.5c5-2.9,8.7-7.5,10.2-13.1c3.2-11.6-3.6-23.6-15.2-26.8l-27.3-7.6c-1.9-0.5-3.9-0.8-5.8-0.8
		c-3.7,0-7.4,1-10.7,2.8c-5,2.9-8.7,7.5-10.2,13.1c-3.2,11.6,3.6,23.6,15.2,26.8l27.3,7.6l0,0C292.5,540,298.4,539.3,303.5,536.5z"
		/>
	<path class="st3" d="M267.9,499.5c0.2,0,0.4,0.1,0.9,0.1c0.4,0.1,0.9,0.2,1.4,0.3s1.1,0.3,1.6,0.4c0.6,0.1,1,0.3,1.5,0.4
		c1.7,0.5,3,1.1,4,1.9c1,0.8,1.7,1.7,2.1,2.8c0.4,1,0.6,2.2,0.5,3.4s-0.3,2.6-0.7,4c-0.3,1.3-0.8,2.5-1.4,3.6s-1.3,2.1-2.3,2.8
		s-2.1,1.3-3.4,1.5c-1.3,0.3-2.9,0.1-4.8-0.4c-0.3-0.1-0.7-0.2-1.1-0.3s-0.9-0.3-1.4-0.4c-0.4-0.1-0.9-0.3-1.3-0.4
		c-0.4-0.1-0.7-0.3-1-0.4L267.9,499.5z M272.6,504.1c-0.3-0.1-0.7-0.2-1-0.2c-0.3-0.1-0.6-0.1-0.7-0.1l-3.5,12.8
		c0.1,0,0.2,0.1,0.3,0.1c0.1,0.1,0.3,0.1,0.4,0.1s0.3,0.1,0.4,0.1s0.3,0.1,0.3,0.1c1,0.3,1.9,0.3,2.7,0.1c0.7-0.2,1.3-0.6,1.8-1.2
		c0.5-0.6,0.9-1.2,1.2-2c0.3-0.8,0.6-1.6,0.8-2.4c0.2-0.7,0.3-1.4,0.5-2.2c0.1-0.8,0.1-1.5,0-2.2s-0.4-1.3-0.9-1.9
		C274.3,504.8,273.6,504.4,272.6,504.1z"/>
	<path class="st3" d="M281.3,513.5c0.4-1.6,1-2.9,1.6-4.1c0.6-1.2,1.4-2.1,2.2-2.8s1.8-1.1,2.8-1.3s2.2-0.1,3.4,0.2
		c1.3,0.4,2.4,0.9,3.1,1.7c0.8,0.7,1.3,1.6,1.7,2.7c0.3,1,0.4,2.2,0.4,3.5s-0.3,2.7-0.7,4.1c-0.9,3.1-2.1,5.4-3.8,6.8
		c-1.7,1.4-3.7,1.8-6.2,1.1c-1.3-0.4-2.4-0.9-3.1-1.7s-1.3-1.6-1.7-2.7c-0.3-1-0.4-2.2-0.4-3.5C280.7,516.4,280.9,515,281.3,513.5z
		 M285.2,514.6c-0.3,0.9-0.4,1.8-0.6,2.7c-0.1,0.8-0.2,1.6-0.1,2.2c0.1,0.7,0.3,1.2,0.6,1.7c0.3,0.4,0.9,0.8,1.6,1
		c0.6,0.2,1.2,0.2,1.7,0c0.5-0.1,0.9-0.4,1.3-0.9s0.8-1.1,1.1-1.9c0.3-0.8,0.6-1.8,1-2.9c0.3-0.9,0.4-1.8,0.6-2.6
		c0.1-0.8,0.2-1.6,0.1-2.2s-0.3-1.2-0.6-1.7c-0.3-0.5-0.9-0.8-1.6-1c-1.3-0.3-2.3,0-3.1,0.9C286.6,510.9,285.8,512.5,285.2,514.6z"
		/>
	<circle class="st2" cx="244.2" cy="504.1" r="10.5"/>
	<circle class="st1" cx="244.2" cy="504.1" r="4.4"/>
	<path class="st1" d="M320.4,581.7l-28.2,3.2c-12.5,1.4-23.9-7.6-25.3-20.1l0,0c-1.4-12.5,7.6-23.9,20.1-25.3l28.2-3.2
		c12.5-1.4,23.9,7.6,25.3,20.1l0,0C342,569,333,580.3,320.4,581.7z"/>
	<path class="st2" d="M289.6,586.2c-5.4,0-10.6-1.8-14.9-5.2c-5-4-8.2-9.7-8.9-16.1c-1.5-13.1,8-25,21.1-26.5l28.2-3.2
		c6.4-0.7,12.6,1.1,17.7,5c5,4,8.2,9.7,8.9,16.1c1.5,13.1-8,25-21.1,26.5l0,0l-28.2,3.2C291.5,586.1,290.5,586.2,289.6,586.2z
		 M317.9,537.3c-0.8,0-1.6,0-2.5,0.1l-28.2,3.2c-11.9,1.3-20.5,12.2-19.1,24.1c1.3,11.9,12.2,20.5,24.1,19.1l28.2-3.2
		c11.9-1.3,20.5-12.2,19.1-24.1C338.2,545.5,328.8,537.3,317.9,537.3z M320.4,581.7L320.4,581.7L320.4,581.7z"/>
	<circle class="st2" cx="267.8" cy="564.7" r="10.5"/>
	<circle class="st1" cx="267.8" cy="564.7" r="4.4"/>
	<path class="st3" d="M354.2,570.8c-0.1-0.4-0.4-0.7-0.8-0.9L220,531.5c-0.4-0.1-0.8,0-1,0.2c-0.3,0.3-0.4,0.6-0.4,1l5.2,32.4
		c-11.2-9.5-13.5-25.9-15.4-39.3c-1-7.1-1.9-13.3-4-17.3c-2-3.9-4.7-6.3-8.1-7.1c-4.9-1.2-8.9,1.5-9.4,1.9c-1.3,0.9-1.7,2.8-0.7,4.1
		c0.9,1.3,2.8,1.7,4.1,0.7c0,0,2.2-1.5,4.5-0.9c1.6,0.4,3,1.8,4.2,4c1.6,3.2,2.4,8.8,3.4,15.4c2.2,15.5,5.2,36.7,22.7,46.8
		c0.1,0,0.1,0.1,0.3,0.1c0.1,0.1,0.2,0.1,0.3,0.2l79.4,35.3c0.1,0.1,0.3,0.1,0.4,0.1c0.3,0,0.5-0.1,0.7-0.2l47.5-37
		C354.2,571.6,354.3,571.2,354.2,570.8z"/>
	<circle class="st0" cx="268.1" cy="603.1" r="28.8"/>
	<path class="st2" d="M268.1,633.3c-16.7,0-30.3-13.6-30.3-30.3s13.6-30.3,30.3-30.3c16.7,0,30.3,13.6,30.3,30.3
		C298.4,619.7,284.8,633.3,268.1,633.3z M268.1,575.8c-15,0-27.3,12.2-27.3,27.3c0,15,12.2,27.3,27.3,27.3s27.3-12.2,27.3-27.3
		S283.2,575.8,268.1,575.8z"/>
	<path class="st1" d="M248.5,612.1c-1.6,0-3-1-3.4-2.6c-0.6-2.1-0.9-4.3-0.9-6.5c0-13.2,10.7-23.9,23.9-23.9c1.9,0,3.5,1.6,3.5,3.5
		s-1.6,3.5-3.5,3.5c-9.3,0-16.8,7.5-16.8,16.8c0,1.5,0.2,3.1,0.6,4.6c0.5,1.9-0.6,3.8-2.5,4.4C249.2,612.1,248.8,612.1,248.5,612.1z
		"/>
	<circle class="st2" cx="268.1" cy="603.1" r="10.6"/>
	<circle class="st1" cx="268.1" cy="603.1" r="4.7"/>
	<path class="st1" d="M343.1,575.4c-0.1,0-0.2,0-0.3,0l-119.6-35.8c-0.6-0.2-0.9-0.8-0.7-1.4c0.2-0.6,0.8-0.9,1.4-0.7l119.6,35.8
		c0.6,0.2,0.9,0.8,0.7,1.4C344,575.1,343.6,575.4,343.1,575.4z"/>
	<path class="st1" d="M117.5,622.5c1.4,0.7,2.8,1.5,3.8,2.7c1.1,1.1,1.8,2.7,1.5,4.3c0,0.3-0.1,0.5-0.3,0.7s-0.6,0.2-0.9,0.2
		c-7.4,0-14.6-1.7-21.8-3.4c-2.7-0.6-5.5-1.3-8.2-1.9c-5.3-1.2-10.5-2.5-15.6-4.3c4.2-0.2,8.2-1.9,12.1-3.5c2.7-1.1,5.3-2.4,7.9-3.4
		c2.6-1,4.1,0.1,6.6,1.2C107.6,617.4,112.6,619.9,117.5,622.5z"/>
	<path class="st1" d="M132.6,605.3c0.9,0.2,2.1,0.6,2.3,1.6c0.3,1.3-1.5,2.1-2.9,2.3c-9.9,1.4-20,1.9-30,1.5c1.5,0,5.6-4.9,6.8-5.9
		c1.9-1.7,2.9-2.9,5.6-2.7C120.4,602.7,126.6,604,132.6,605.3z"/>
	<path class="st1" d="M26.7,568c0,0-18.2-12.2-23-8.1c-4.8,4.2,19.9,30.7,29.9,38.7s2.8-20.6,2.8-20.6L26.7,568z"/>
	<path class="st0" d="M90,423.4c0,0-18.9,2.8-23.1,23.8s6.5,32.9,0.5,51S51.5,528.9,43,536.8s-19.8,23.3-15.7,47.4
		s31.7,37.3,47,36.4c15.3-0.9,36.5-13.1,43.3-26.1s9.2-32.8,8.2-51.6c0,0,19-2.8,29.5-9.3s28-20.5,29.2-21.1
		c1.3-0.6,16.5-3.5,10.3-9.7s-12.9,4.5-33,8c-20.2,3.5-40.8-0.4-48.2-4.8c0,0-5.3-14.3,3.3-19.6c0,0,14.1-6.2,14.4-15.4l-2-31.4
		C129.2,439.7,118.5,417.2,90,423.4z"/>
	<path class="st1" d="M82.8,582.3c-0.3,0-0.7-0.1-0.9-0.4c-0.4-0.5-0.3-1.2,0.2-1.6c4.1-3.2,6.5-8.5,6.3-13.7c0-0.6,0.4-1.2,1.1-1.2
		c0.6,0,1.2,0.4,1.2,1.1c0.3,5.9-2.5,11.9-7.2,15.6C83.3,582.2,83.1,582.3,82.8,582.3z"/>
	<path class="st1" d="M80.2,591.8c-0.4,0-0.9-0.3-1-0.7c-0.2-0.6,0.1-1.2,0.7-1.5c9-3.4,10.6-9.7,10.6-10c0.1-0.6,0.7-1,1.3-0.9
		s1,0.7,0.9,1.3c-0.1,0.3-1.8,7.8-12,11.6C80.5,591.8,80.3,591.8,80.2,591.8z"/>
	<path class="st1" d="M114.2,506.4c0,0-4.3-11.1,0-17.3c-0.1,0-0.1,0-0.2,0c-2.4,0.7-4.8,3.2-6.5,5c-1.2,1.2-2.2,2.5-2.7,4.1
		s-0.3,3.5,0.9,4.7c0.6,0.6,1.4,1,2.2,1.4c2.6,1.2,4.1,1.9,6.9,2.2C114.3,506.3,114.6,506.6,114.2,506.4z"/>
	<path class="st1" d="M107.6,540.6c0.3,9.9,1.6,20-1.1,29.6c-2.6,9.3-8.7,17.2-15.3,24.2c-4.3,4.6-9.2,10.9-6.2,16.4
		c1.5,2.8,4.4,4.1,7.6,4.7c10.7-4.9,20.8-12.8,25-21.1c6.8-13,9.2-32.8,8.2-51.6C125.7,542.9,108.1,540.8,107.6,540.6z"/>
	<polygon class="st1" points="135.5,451.3 118.1,459.8 131.1,470.4 161.7,450.9 	"/>
	<polygon class="st1" points="118.2,460.6 129.2,439.7 156.8,441.6 	"/>
	<circle class="st1" cx="98.1" cy="447.3" r="16.8"/>
	<path class="st2" d="M98.1,465.2c-2.5,0-5-0.5-7.4-1.6c-9-4-13-14.7-9-23.7s14.7-13,23.7-9s13,14.7,9,23.7c-2,4.4-5.5,7.7-10,9.4
		C102.4,464.8,100.2,465.2,98.1,465.2z M98.1,431.7c-6,0-11.7,3.4-14.3,9.2c-3.5,7.9,0,17.2,7.8,20.7c3.8,1.7,8.1,1.8,12,0.4
		c3.9-1.5,7-4.4,8.7-8.2l0,0c1.7-3.8,1.8-8.1,0.4-12c-1.5-3.9-4.4-7-8.2-8.7C102.4,432.1,100.2,431.7,98.1,431.7z"/>
	<circle class="st2" cx="98.1" cy="447.3" r="11.2"/>
	<circle class="st1" cx="103.3" cy="443.1" r="6"/>
	<path class="st2" d="M197.9,505c-0.1-1.1-0.8-2-1.9-2.7c-2.7-1.6-7.7-1.6-12.8,0.1c-2.1,0.7-4.6,1.6-7.3,2.6
		c-9,3.3-20.3,7.4-28.7,7.6c-0.1,0-0.3,0-0.5,0c-8.8,0-21.6-3.6-31-6.7c0-0.1,0-0.2-0.1-0.3c0,0-1.5-3.6-1.7-7.8
		c-0.3-5.5,1.5-9.3,5.3-11.5c10.8-6.2,12.7-12.4,13-14.4l30.1-19.1l0,0l0,0l0.1-0.1l0,0l0.1-0.1c0,0,0,0,0-0.1c0,0,0-0.1,0.1-0.1
		c0,0,0,0,0-0.1v-0.1c0,0,0,0,0-0.1V452c0,0,0,0,0-0.1v-0.1l0,0l0,0c0-0.1,0-0.1,0-0.2l0,0l0,0v-0.1c0,0,0,0,0-0.1
		c0,0,0-0.1-0.1-0.1c0,0,0,0,0-0.1c0,0,0-0.1-0.1-0.1l0,0c0,0-0.1,0-0.1-0.1c0,0,0,0-0.1,0h-0.1c0,0,0,0-0.1,0h-0.1c0,0,0,0-0.1,0
		s-0.1,0-0.2,0l-19.6-0.6l15.1-7.4c0.4-0.2,0.7-0.7,0.6-1.2c-0.1-0.5-0.5-0.9-1-0.9l-27-1.8c-1-1.5-4.7-6.4-10.4-10.8
		c-5.7-4.3-11.9-6.7-18.1-7.1h-0.1c-0.1,0-7.1-1.2-11.6-13.4c-2.9-7.9-6.6-12.5-10.2-12.7c-1.6-0.1-3,0.8-3.7,2.4
		c-2.1,4.4,0.3,18.1,4.8,23.1c-2.9,0.6-8.8,0.7-15.5-5.2c-5.8-5.1-9-4.7-10.5-4c-1.4,0.7-2.2,2.1-2.2,3.9s1.2,5,3.6,8
		c1.5,1.8,3.8,4,7.2,5.7c-4.4,0.4-9.3,1.5-9.5,4.9c-0.1,1.5,0.4,2.8,1.5,3.8c2.9,2.7,9.5,2.3,12.7,1.9c-0.5,1-0.9,2.1-1.3,3.2
		c-2.8,8.6-1.8,18.6-0.9,28.3c0.1,1.5,0.3,3.1,0.4,4.6c0.1,0.9,0.2,1.9,0.3,2.8c1.7,17.5,2.8,29.1-24.3,57.9
		c-10.2,10.9-14.7,21.4-16.3,30.2c-4.4-2.7-17-9.7-22.6-7.2c-0.9,0.4-1.4,1.1-1.6,2c-0.4,2.2,0.9,6.2,10.5,17.4
		c0,0.1,0.1,0.1,0.1,0.2c1,1.1,2,2.2,2.9,3.3c2.4,2.8,4.6,5.3,7.1,7.6c2.6,2.7,5.5,5.7,8.7,9c1.3,1.3,2.3,2.4,2.9,3
		c3.1,4.3,6.9,8.1,11.4,11.3c8.9,6.4,17.7,8.7,25.6,8.8c1,0.3,12.7,3.5,24.6,6.3c7.3,1.7,13.3,2.8,17.8,3.4c2.4,0.3,4.3,0.4,5.7,0.4
		c3.3,0,4.4-0.7,4.9-1.4s0.7-1.5,0.4-2.4c-1.4-5.1-18.6-12.7-24-15c0.5-0.3,1-0.6,1.5-1c0.8,0,3.2,0.1,6.2,0.1c2.8,0,6.3,0,9.8-0.1
		c15.1-0.5,17.7-2.2,18.1-3.9c0.2-0.6,0-1.3-0.3-1.8c-0.7-1-2.9-2.7-13-4.1c-3.2-0.5-6.3-0.8-8.3-1c0.3-0.3,0.6-0.7,0.8-1
		c5.3-6.7,8.9-15.8,10.8-27.2c1.5-9,1.6-17.5,1.3-24.3c10.2-1.4,21.2-5.2,30.2-10.6c9.8-6,15.8-12.1,20.5-17.1
		c3.7-3.8,6.7-7,10.2-8.6c3.7-0.9,6.3-2.2,8-3.9C197.6,507.1,198,505.7,197.9,505z M19.7,575.5c-1.5,1.6-4,2.2-5.7,1.4
		c-9.6-11.1-10.2-14.6-10-15.5c0-0.2,0.1-0.3,0.3-0.4c3.5-1.5,11.8,2.3,17.6,5.5C22.1,567.1,23.4,571.6,19.7,575.5z M156.1,454
		l-24.7,15.8l-10.6-8.5L156.1,454z M129.9,440.9l22.7,1.5L120.8,458L129.9,440.9z M110.1,620c10.3,5.2,11.9,7.7,12.1,8.5
		c0.1,0.2,0,0.3,0,0.4c-0.2,0.2-2.5,2.2-26.2-3.2c-1.1-0.3-2.2-0.5-3.2-0.7c0-0.1,0-0.1,0-0.2c-1.7-5.8,4.6-9.1,6.3-9.9
		C100.4,615.5,105.2,617.5,110.1,620z M115.4,605.1l0.1-0.2c0.2-0.4,0.5-0.8,0.6-1.3c1.9,0.2,4.2,0.5,6.6,0.8
		c9.2,1.4,10.8,2.8,11,3.1c-1,1.1-8.2,2.1-19.4,2.4C113.9,608.4,114.2,607.1,115.4,605.1z M123.7,572.6c-1.9,11-5.3,19.8-10.4,26.2
		c-4.3,5.4-12,12.2-21.9,16.5c-4.9,1.6-9.1,2.8-11.9,3.6c-9.2,1.5-20.9,0.7-32.7-7.8c-9-6.5-15.3-15.7-18-25.8
		c-2.8-10.7-0.4-20,0-21.4c5-6.8,10.7-13.3,18.6-15.8c4.9-1.6,10.3-1.5,14.6-4.1c6-3.6,8.4-11.3,8.4-18.3s-2-13.9-2.2-20.9
		c0-1.5,0-2.8,0.1-4.1c0.3-1,0.5-2.1,0.7-3.1c0.9-2.7,2.6-5,5.4-7.1c2.9-2.2,6.8-2.8,10.3-3.9c3.5-1.1,7.3-3.1,8.3-6.6
		c1.1-3.8-1.3-7.7-4.1-10.5c-3.4-3.4-7.4-6.2-10.8-9.5c-3.4-3.4-11.8-9.4-8.8-18.1l0,0c2.9-7.5,9.3-13.6,22-17.5
		c9.2-2.8,18.2-1,26.7,5.5c5.3,4,8.8,8.6,9.9,10.2l-10.8,20.3v0.1l0,0l0,0c0,0.1,0,0.1-0.1,0.3l0,0l0,0c0,0.1,0,0.3,0,0.4l0,0l0,0
		l0,0c0,0.1,0.1,0.1,0.1,0.3l0,0l0,0l0,0c0,0,0,0.1,0.1,0.1c0,0,0,0,0.1,0l0,0l0,0l12.5,10.2c-0.3,1.6-2.1,7.1-11.8,12.7
		c-4.5,2.6-6.8,7.3-6.4,13.6c0.2,2.9,0.9,5.6,1.3,7.1c-5.7-1.9-9.6-3.5-9.7-3.5c-0.6-0.2-1.2,0-1.5,0.6c-0.2,0.6,0,1.2,0.6,1.5
		c1.2,0.4,28.4,11.3,44.2,11.3c0.2,0,0.4,0,0.5,0c8.7-0.1,20.2-4.3,29.4-7.7c2.6-1,5.1-1.9,7.2-2.6c5.1-1.7,9.3-1.3,10.9-0.3
		c0.7,0.4,0.8,0.9,0.8,1c0,0.8-1.6,3.4-8,5c-4.7,1.2-8.5,4.4-13.2,8.5c-5.1,4.4-11.4,9.9-21.5,14.9c-14.9,7.3-34.3,9.7-46.4,5.9
		c-0.6-0.2-1.2,0.1-1.4,0.7c-0.2,0.6,0.1,1.2,0.7,1.4c4,1.3,8.7,1.9,13.8,1.9c1.6,0,3.2-0.1,4.9-0.2
		C125.3,550.4,125.7,561.1,123.7,572.6z"/>
	<path class="st2" d="M365.3,516.3L365.3,516.3c-2.8-1.7-5.3-3.8-7.7-6.1l-1.8-1.8l-1.6-1.9l-0.4-0.5l-0.4-0.5l-0.8-1l-0.8-1l-0.7-1
		l-0.7-1c-0.3-0.3-0.5-0.7-0.7-1l-1.4-2.2c-0.4-0.7-0.9-1.5-1.3-2.2s-0.9-1.5-1.3-2.3c-0.9-1.5-1.6-3.1-2.4-4.6
		c-0.7-1.6-1.5-3.2-2.1-4.8c-2.7-6.5-4.9-13.2-6.6-20c-0.9-3.4-1.7-6.9-2.4-10.4c-0.1-0.3-0.1-0.7-0.2-1c1.1-2.1,1.6-6.1,1.3-7.6
		c-0.3-1.6-1.5-3.1-3.1-3.2c-1.5-0.1-2.8,0.8-3.8,1.9c-0.8,0.8-1.5,1.8-1.8,2.9c-0.5,1.6-0.1,3.5,0.9,4.9c0.9,1.1,2.1,1.9,3.5,2.3
		c0,0.1,0,0.2,0,0.3c0.4,3.6,1,7.2,1.6,10.8c1.3,7.1,3,14.2,5.3,21.2c0.6,1.8,1.2,3.5,1.8,5.2c0.7,1.7,1.3,3.4,2.1,5.1
		c0.4,0.9,0.7,1.7,1.2,2.5c0.4,0.8,0.8,1.7,1.2,2.5l1.3,2.5c0.2,0.4,0.4,0.8,0.7,1.2l0.7,1.2l0.7,1.2l0.8,1.2l0.8,1.2l0.4,0.6
		l0.4,0.6l1.7,2.3l1.9,2.2c2.5,2.9,5.4,5.6,8.6,7.9c0.1,0.1,0.2,0.1,0.3,0.2c2.1,1.3,4.9,0.7,6.2-1.5
		C368.1,520.4,367.4,517.6,365.3,516.3z"/>
	<path class="st2" d="M379.3,487.4c0.1,1.1,0.1,2.2,0.2,3.3c0.3,0.1,0.5,0.3,0.7,0.6c2.1,3.2,4.9,6,7.2,9.1
		c-0.1-1.9-0.2-3.8-0.4-5.7c-0.3-2.8-0.7-5.5-1.2-8.2s-1.1-5.4-1.8-8.1c-1.3-5.3-3-10.6-5.1-15.6c-1-2.5-2.1-5-3.3-7.5
		c-0.5-1.1-1.1-2.2-1.6-3.3c1-2.2,1.5-5.9,1.2-7.4c-0.3-1.6-1.5-3.1-3.1-3.2c-1.5-0.1-2.8,0.8-3.8,1.9c-0.8,0.8-1.5,1.8-1.8,2.9
		c-0.5,1.6-0.1,3.5,0.9,4.9c1,1.3,2.5,2.2,4.1,2.4c0.4,1,0.8,2,1.2,3.1c0.9,2.5,1.7,5,2.4,7.5c1.5,5.1,2.5,10.2,3.3,15.4
		C378.8,482.2,379.1,484.8,379.3,487.4z"/>
</g>

<g class="c-svg-bird">
	<path class="st4" d="M178.6,151.5L30.3,134.1c-12.5-1.5-21.5-12.8-20-25.3l0,0c1.5-12.5,12.8-21.5,25.3-20l148.3,17.4
		c12.5,1.5,21.5,12.8,20,25.3l0,0C202.5,144,191.1,153,178.6,151.5z"/>
	<path class="st2" d="M205.2,129.2c0.1-5.6-1.7-10.9-5.2-15.3c-4-5-9.7-8.2-16-9L35.7,87.6c-6.3-0.7-12.6,1-17.7,5s-8.2,9.7-9,16
		c-0.2,1.5-0.2,2.9-0.1,4.3c-0.1,5.6,1.7,10.9,5.2,15.4c4,5,9.7,8.2,16,9l148.3,17.4l0,0c0.9,0.1,1.9,0.1,2.8,0.1
		c6.2,0,12.2-2.4,16.7-6.8c3.9-3.8,6.4-8.9,7.1-14.4C205.3,132.2,205.3,130.7,205.2,129.2z M11.4,111c0.7-5.8,3.5-10.9,8.1-14.5
		s10.2-5.2,16-4.6l148.3,17.4c5.8,0.7,10.9,3.5,14.5,8.1c2.7,3.5,4.3,7.6,4.6,11.9c0,0.7-0.1,1.4-0.1,2.1
		c-1.4,11.9-12.2,20.5-24.1,19.1L30.4,133c-5.8-0.7-10.9-3.5-14.5-8.1c-2.7-3.5-4.3-7.6-4.6-11.9C11.3,112.4,11.3,111.7,11.4,111z"
		/>
	<path class="st1" d="M202.9,133.3c0.7-5.8-0.9-11.5-4.6-16c-3.6-4.6-8.8-7.4-14.5-8.1L35.5,91.9c-5.8-0.7-11.5,0.9-16,4.6
		c-4.6,3.6-7.4,8.8-8.1,14.5c-1.4,11.9,7.2,22.7,19.1,24.1l148.3,17.4c6.5,0.7,13-1.4,17.7-6C200,142.9,202.3,138.3,202.9,133.3z"/>
	<path class="st2" d="M187.8,163c-0.9,0-1.9,0-2.8-0.1c-0.6-0.1-1-0.6-1-1.2c0.1-0.6,0.6-1,1.2-1c6.5,0.7,13-1.4,17.7-6
		c3.5-3.5,5.8-8.1,6.4-13c0.1-0.6,0.6-1,1.2-1c0.6,0.1,1,0.6,1,1.2c-0.6,5.5-3.1,10.6-7.1,14.4C200,160.6,194,163,187.8,163z"/>
	<path class="st3" d="M32.7,104.3l11.5,1.3l-0.4,3.2l-8-0.9l-0.5,4.5l7.4,0.9l-0.4,3.2l-7.4-0.9l-0.9,7.3l-3.5-0.4L32.7,104.3z"/>
	<path class="st3" d="M56.9,107.1l3.4,0.4L59,119.1c-0.1,1.2-0.4,2.2-0.8,3s-0.9,1.5-1.6,2c-0.6,0.5-1.3,0.8-2.2,1s-1.7,0.2-2.6,0.1
		c-2.2-0.3-3.8-1-4.8-2.2c-0.9-1.2-1.3-2.9-1-5l1.4-12l3.5,0.4l-1.3,11.3c-0.1,1.4,0,2.4,0.4,3.1c0.4,0.7,1.2,1.1,2.2,1.2
		s1.8-0.1,2.4-0.7c0.5-0.6,0.9-1.6,1-2.9L56.9,107.1z"/>
	<path class="st3" d="M65.5,115.7h-0.1l-0.1,2.2l-1,8.5l-3.4-0.4l2.1-18.1l3.1,0.4l5,11.8h0.1v-2.2l1-8.9l3.4,0.4l-2.1,18.1
		l-3.1-0.4L65.5,115.7z"/>
	<path class="st3" d="M87.2,122.9l2.8,0.3l-0.6,5.2c-0.6,0.3-1.3,0.6-2.2,0.7c-0.9,0.1-1.8,0.1-2.7,0c-1.1-0.1-2.2-0.4-3.2-0.9
		c-1-0.4-1.8-1.1-2.5-1.9c-0.7-0.9-1.2-1.9-1.5-3.1c-0.3-1.3-0.4-2.7-0.2-4.4c0.2-1.8,0.6-3.2,1.3-4.4c0.7-1.1,1.5-2,2.4-2.7
		c0.9-0.6,1.9-1,2.9-1.3c1-0.2,2.1-0.2,3.1-0.1c1,0.1,1.9,0.3,2.6,0.6c0.7,0.3,1.3,0.5,1.7,0.8l-0.6,5.4l-2.8-0.3l0.3-2.9
		c-0.5-0.1-1.1-0.3-1.6-0.3c-0.7-0.1-1.3,0-1.9,0.1c-0.6,0.2-1.2,0.5-1.6,1c-0.5,0.5-0.9,1.1-1.2,1.8s-0.6,1.7-0.7,2.7
		c-0.1,0.9-0.1,1.8,0,2.6s0.4,1.5,0.7,2.1c0.4,0.6,0.9,1.1,1.4,1.5c0.6,0.4,1.3,0.6,2.1,0.7c0.6,0.1,1.1,0.1,1.7,0L87.2,122.9z"/>
	<path class="st3" d="M93.9,126.9l2.9,0.3l1.5-12.4l-2.5-0.3l-0.4,3.1l-2.8-0.3l0.7-6l14.2,1.6l-0.7,6l-2.8-0.3l0.4-3.1l-2.5-0.3
		l-1.5,12.4l2.9,0.3l-0.3,2.8l-9.4-1.1L93.9,126.9z"/>
	<path class="st3" d="M107.8,128.2l4.6,0.5l1.4-11.8l-4.6-0.5l0.4-3.2l12.7,1.5l-0.4,3.2l-4.6-0.5l-1.4,11.8l4.6,0.5l-0.4,3.2
		l-12.7-1.5L107.8,128.2z"/>
	<path class="st3" d="M123.6,124.1c0.2-1.5,0.4-2.8,0.9-3.9c0.4-1.2,0.9-2.1,1.6-2.8c0.7-0.7,1.5-1.3,2.4-1.6
		c0.9-0.3,1.9-0.4,3.1-0.3c1.2,0.1,2.3,0.5,3.1,1.1c0.8,0.6,1.4,1.3,1.9,2.2s0.7,1.9,0.9,3.1c0.1,1.2,0.1,2.5-0.1,3.8
		c-0.3,2.9-1.2,5.2-2.5,6.7c-1.3,1.5-3.1,2.2-5.4,1.9c-1.2-0.1-2.3-0.5-3.1-1.1s-1.5-1.3-1.9-2.2s-0.7-1.9-0.8-3.1
		C123.4,126.8,123.4,125.5,123.6,124.1z M127.3,124.5c-0.1,0.9-0.1,1.7-0.2,2.5c0,0.8,0.1,1.5,0.2,2c0.1,0.6,0.4,1.1,0.8,1.5
		c0.4,0.4,0.9,0.6,1.6,0.7c0.6,0.1,1.1,0,1.5-0.2s0.8-0.6,1.1-1c0.3-0.5,0.6-1.1,0.7-1.9c0.2-0.8,0.3-1.7,0.5-2.8
		c0.1-0.9,0.1-1.6,0.2-2.4c0-0.8,0-1.5-0.2-2.1c-0.1-0.6-0.4-1.1-0.8-1.5c-0.4-0.4-0.9-0.6-1.6-0.7c-1.2-0.1-2.1,0.3-2.7,1.3
		C127.9,121,127.5,122.5,127.3,124.5z"/>
	<path class="st3" d="M143.2,124.7h-0.1l-0.1,2.2l-1,8.5l-3.4-0.4l2.1-18.1l3.1,0.4l5,11.8h0.1v-2.2l1-8.9l3.4,0.4l-2.1,18.1
		l-3.1-0.4L143.2,124.7z"/>
	<path class="st3" d="M164.1,140.8c-1.2-0.3-2.3-0.9-3.4-1.6c-1.1-0.7-2-1.6-2.8-2.7c-0.8-1.1-1.3-2.3-1.7-3.8s-0.4-3.1-0.2-4.9
		c0.2-1.8,0.7-3.4,1.3-4.7c0.7-1.3,1.5-2.4,2.5-3.3c1-0.9,2.1-1.5,3.3-2c1.2-0.5,2.4-0.7,3.7-0.8l0.3,2.8c-0.6,0.1-1.3,0.2-2.1,0.5
		c-0.8,0.3-1.6,0.7-2.4,1.3s-1.5,1.5-2.1,2.5s-1,2.4-1.2,4.1c-0.2,1.6-0.1,2.9,0.3,4.1c0.4,1.2,0.9,2.1,1.5,2.9
		c0.6,0.8,1.3,1.4,2,1.8c0.7,0.4,1.3,0.7,1.8,0.9L164.1,140.8z"/>
	<path class="st3" d="M171.3,138.8c0.5,0,1.2-0.2,2-0.4c0.8-0.3,1.6-0.7,2.4-1.3c0.8-0.6,1.5-1.4,2.1-2.5c0.6-1,1-2.4,1.2-3.9
		c0.2-1.6,0.1-3.1-0.2-4.2c-0.3-1.2-0.8-2.1-1.4-2.9c-0.6-0.8-1.3-1.4-2-1.8c-0.7-0.4-1.4-0.8-2-1l0.9-2.7c1.2,0.4,2.3,0.9,3.4,1.6
		c1.1,0.7,2,1.6,2.8,2.7c0.7,1.1,1.3,2.4,1.7,3.8c0.4,1.5,0.4,3.1,0.2,4.9c-0.2,1.8-0.7,3.4-1.3,4.7c-0.7,1.3-1.5,2.4-2.5,3.3
		c-1,0.9-2.1,1.5-3.3,1.9c-1.2,0.4-2.4,0.7-3.7,0.7L171.3,138.8z"/>
	<path class="st2" d="M130.9,76.2v-0.1v-0.2c-0.1-1.4-1.5-2.5-2.9-2.3c-1.4,0.1-2.5,1.5-2.3,2.9l0,0v0.1v0.1V77c0,0.2,0,0.4,0,0.7
		c0,0.4,0,0.9,0,1.4c0,0.9-0.1,1.9-0.3,2.8c-0.3,1.9-0.9,3.7-1.8,5.5c-0.4,0.9-0.9,1.7-1.5,2.5c-0.3,0.4-0.6,0.8-0.9,1.2
		c-0.3,0.4-0.6,0.8-0.9,1.2c-1.3,1.5-2.8,2.9-4.4,4.1c-0.7-0.1-1.5,0-2.1,0.1c-0.4,0.1-0.7,0.1-1.1,0.3c-0.2,0.1-0.4,0.1-0.6,0.2
		s-0.3,0.1-0.6,0.3c-0.2,0.1-0.4,0.3-0.6,0.5c-0.5,0.7-0.3,1.6,0.3,2.1l1,0.7c0.1,0,0.2,0.1,0.4,0.1l0.4,0.1l0.8,0.2
		c0.5,0.1,1,0.3,1.4,0.4c0.9,0.3,1.5,0.7,2,1.2s1,1.1,1.4,2s0.8,2,1.2,3.2v0.1c0.1,0.4,0.4,0.7,0.8,0.9c0.7,0.3,1.6,0,1.9-0.8
		c0.6-1.3,0.8-2.8,0.6-4.4c-0.1-0.6-0.2-1.2-0.4-1.8c0.3,0.2,0.5,0.4,0.7,0.6c0.3,0.3,0.6,0.7,0.8,1.2c0.2,0.4,0.4,1,0.6,1.6
		c0.4,1.2,0.6,2.5,0.9,4v0.1c0.1,0.4,0.4,0.8,0.8,1c0.7,0.3,1.6,0,1.9-0.7c0.7-1.5,1-3.2,0.9-5.1c0-0.9-0.3-1.9-0.6-2.8
		c-0.4-0.9-0.9-1.9-1.6-2.7c-0.7-0.8-1.6-1.5-2.5-1.9s-1.9-0.7-2.8-0.9c-0.4,0-0.9-0.1-1.3-0.1c0.6-0.4,1.2-0.9,1.7-1.5
		c0.4-0.4,0.8-0.8,1.2-1.2s0.7-0.8,1.1-1.2c0.7-0.9,1.4-1.8,2-2.7c1.2-1.9,2.2-4,2.9-6.2c0.3-1.1,0.6-2.2,0.8-3.4
		c0.1-0.6,0.2-1.2,0.2-1.8c0-0.3,0-0.6,0-0.9v-0.5L130.9,76.2z"/>
	<circle class="st2" cx="10.5" cy="107.9" r="10.5"/>
	<circle class="st1" cx="10.5" cy="107.9" r="4.4"/>
	<path class="st3" d="M124.1,13.1c-0.4,0-0.8-0.2-1-0.6c-3.5-7.2-6.9-9.5-9.2-10.1c-2.4-0.7-3.9,0.3-4,0.4c-0.5,0.3-1.2,0.2-1.5-0.3
		s-0.2-1.2,0.3-1.5c0.1-0.1,2.4-1.6,5.7-0.7c3.9,1,7.5,4.9,10.7,11.3c0.3,0.6,0,1.2-0.5,1.5C124.5,13.1,124.3,13.1,124.1,13.1z"/>
	<path class="st1" d="M146.5,18.3c-0.4-1.3-1-2.7-2-3.6c-1.1-0.9-2.8-1.2-3.8-0.1c-0.5,0.5-0.7,1.2-0.9,1.9c-0.7,2.8-1,5.6-0.9,8.4
		c-0.5-1.4-1.3-2.8-2.6-3.6c-1.3-0.8-3-1-4.3-0.2c-1.2,0.7-1.9,2.3-1.9,3.7c-0.1,1.5,0.4,2.9,0.8,4.3c1.5,4.6,3.7,9.3,7.9,11.5
		c1.8,0.9,6.1,2.6,8.1,1.9c2.1-0.7,1.8-3.8,1.9-5.6C149.3,30.6,148.5,24.2,146.5,18.3z"/>
	<path class="st2" d="M102.6,66.6l-3.3-15.8c-0.1-0.3-0.3-0.6-0.6-0.8c-0.3-0.1-0.7-0.1-1,0c-0.1,0-7.6,4.3-15,9.3
		C68.9,68.4,67.1,71.8,67,73.5c0,0.8,0.3,1.6,1,2.1c1.4,1,3,1.4,4.6,1.4c4,0,8.3-2.3,10.2-3.5c0.2,0.2,0.5,0.4,0.9,0.6
		c1.4,0.7,3.3,0.6,5.7-0.4c1.5,0.9,5.9,2.8,12.7-1.2c0.3-0.2,0.6-0.6,0.6-1v-4.7C102.6,66.8,102.6,66.7,102.6,66.6z"/>
	<ellipse class="st0" cx="125" cy="57.2" rx="27" ry="29.5"/>
	<path class="st1" d="M147.3,40.7c1.1,3.2,1.6,6.6,1.6,10.2c0,16.3-12.1,29.5-27,29.5c-9.3,0-17.5-5.2-22.3-13
		c3.8,11.3,13.7,19.3,25.3,19.3c14.9,0,27-13.2,27-29.5C151.9,51.1,150.2,45.4,147.3,40.7z"/>
	<path class="st0" d="M128.3,33.3c-7.5-17.8-12-24.9-16.7-23.1c-4.4,1.6-4.1,11.5,2.4,30c0,0-9.2-17.1-12.6-14.1
		c-2.4,2.1,2.2,10.9,5,15.7c-2.1-3-5.3-6.8-7.7-4.9c-3.7,3,9.7,25.4,14.4,28.6s13.3,1.5,18.7-4.6C137.2,54.8,133.4,45.4,128.3,33.3z
		"/>
	<path class="st1" d="M134.3,56c1-5.8-2.1-13.5-6-22.6c-7.5-17.8-12-24.9-16.7-23.1c-2.2,0.8-3.2,3.6-2.9,8.4
		c0,0,10.8,3.1,14.7,19.2C127.3,53.9,134.2,56,134.3,56z"/>
	<path class="st2" d="M149.2,41.9c0.4-0.1,0.7-0.6,0.7-1c0-0.1,0-6.6-0.7-13.2c-1.1-9.6-3.1-14.2-6.3-14.5c-1.3-0.1-2.4,0.3-3.2,1.2
		c-1.6,1.7-1.8,4.9-1.7,7.6c-1.5-1.5-3.5-2.8-5.5-1.8c-2.5,1.2-2.8,5.3-2.8,7.1c-1-0.2-2.1-0.3-3.1-0.4
		c-5.9-13.2-10.3-19.4-15.4-17.5c-4.5,1.7-4.9,9.2-1.1,22.5c-2.4-3.4-5.1-6.6-7.3-7c-0.8-0.1-1.6,0.1-2.2,0.6
		c-0.7,0.6-2.5,2.3,1.3,10.4c-0.4-0.2-0.8-0.3-1.2-0.4c-1-0.1-1.9,0.1-2.7,0.7c-0.7,0.6-1.1,1.6-1,2.9c0.1,1.7,0.8,4,1.9,6.7
		c-1.3,3.5-2.1,7.5-2.1,11.5c0,16.9,12.6,30.6,28.1,30.6S153,74.2,153,57.3C153.1,51.6,151.6,46.4,149.2,41.9z M133.5,22
		c1.6-0.8,4.1,2.6,5.1,4.3c0.3,0.5,0.8,0.7,1.3,0.5s0.8-0.7,0.7-1.2c-0.5-2.9-0.8-8.2,0.7-9.9c0.3-0.4,0.7-0.5,1.3-0.4
		c3,0.3,4.9,12.5,5,24.1c-3.8-5.7-9.3-10-15.8-11.8C131.9,25.6,132.3,22.6,133.5,22z M99.5,37.8c0.2-0.2,0.4-0.3,0.7-0.3
		c0.1,0,0.1,0,0.2,0c1.3,0.2,3.1,1.9,5.1,4.9c0.3,0.5,1,0.6,1.5,0.3c0.5-0.3,0.7-1,0.4-1.5c-5.8-9.8-6-13.6-5.3-14.3
		c0,0,0.1-0.1,0.3-0.1c2.4,0.4,7.6,8.3,10.6,13.8c0.3,0.5,0.9,0.7,1.5,0.5c0.5-0.2,0.8-0.9,0.6-1.4c-8.5-24.4-4.5-28-3.1-28.6
		c4.1-1.5,8.9,7.5,15.3,22.5c4.7,11.1,8.8,20.8,3.8,26.4c-4.7,5.4-12.8,7.5-17.2,4.4c-3.8-2.6-14.4-19.6-14.6-25.7
		C99.2,38.3,99.4,37.9,99.5,37.8z M125,85.6c-14.3,0-25.9-12.7-25.9-28.4c0-3,0.4-5.9,1.2-8.5c3.7,7.4,9.4,15.9,12.3,17.8
		c1.8,1.2,4,1.8,6.3,1.8c4.7,0,10.1-2.4,13.8-6.6c5.9-6.8,1.6-17-3.4-28.8c-0.6-1.3-1.1-2.7-1.7-3.9c13,1.5,23.1,13.6,23.1,28.2
		C150.8,72.9,139.2,85.6,125,85.6z"/>
	<path class="st2" d="M113,75.4c-0.1-1.5-1.4-2.5-2.8-2.4c-1.5,0.1-2.5,1.4-2.4,2.8c0,0,0,0.2,0,0.3v0.3c0,0.2,0,0.4-0.1,0.7
		c0,0.4-0.1,0.9-0.2,1.4c-0.1,0.9-0.4,1.9-0.6,2.8c-0.5,1.8-1.2,3.6-2,5.3c-0.9,1.7-1.9,3.3-3.1,4.8c-0.8,1-1.8,1.9-2.8,2.8
		c-0.2,0-0.4,0.1-0.7,0.1c-0.2,0.1-0.4,0.1-0.7,0.2l-0.3,0.1l-0.4,0.1l0,0c-0.4-0.1-0.7-0.2-1.1-0.3c-0.7-0.1-1.5-0.2-2.2-0.2
		c-0.4,0-0.7,0-1.1,0.1c-0.2,0-0.4,0-0.6,0.1l-0.6,0.1c-0.3,0.1-0.7,0.3-0.9,0.6c-0.6,0.7-0.4,1.7,0.3,2.3l0.6,0.5
		c0.1,0.1,0.2,0.1,0.4,0.2l0.4,0.1l0.8,0.3c0.5,0.2,1,0.4,1.5,0.6c1,0.4,1.8,0.9,2.5,1.4c0.3,0.3,0.6,0.5,0.9,0.8
		c0.3,0.3,0.5,0.6,0.7,0.9c0.4,0.7,0.8,1.6,1.2,2.8v0.1c0.1,0.4,0.4,0.7,0.8,0.9c0.7,0.4,1.6,0,2-0.7c0.7-1.3,0.9-3,0.5-4.7
		c-0.1-0.5-0.3-1-0.6-1.5c0.2,0.1,0.4,0.2,0.6,0.3c0.4,0.3,0.8,0.6,1.1,0.9c0.3,0.3,0.6,0.7,0.8,1.2s0.4,1,0.6,1.6
		c0.3,1.2,0.5,2.7,0.7,4.3v0.1c0.1,0.4,0.3,0.9,0.8,1.1c0.7,0.4,1.6,0.1,2-0.6c0.2-0.4,0.4-0.8,0.5-1.2s0.3-0.9,0.4-1.3
		c0.1-0.4,0.2-0.9,0.3-1.3c0-0.2,0-0.5,0.1-0.7c0-0.2,0-0.5,0-0.7c0-1-0.1-2-0.4-3c-0.3-1-0.9-2.1-1.6-2.9c-0.7-0.9-1.7-1.6-2.7-2.1
		c-0.8-0.4-1.6-0.6-2.4-0.8c0.3-0.2,0.5-0.4,0.7-0.7c1.6-1.5,3-3.1,4.2-5c1.2-1.8,2.2-3.8,3-5.8c0.4-1,0.8-2.1,1.1-3.1
		c0.1-0.5,0.3-1,0.4-1.6c0.1-0.3,0.1-0.6,0.2-0.8l0.1-0.4c0-0.1,0-0.3,0.1-0.5v-0.3C113,75.8,113,75.6,113,75.4z"/>
	<circle class="st1" cx="157.8" cy="52.8" r="15"/>
	<circle class="st1" cx="157.8" cy="52.8" r="9.8"/>
	<path class="st2" d="M157.8,63.7c-2.3,0-4.6-0.7-6.5-2.2l0,0c-4.8-3.6-5.8-10.4-2.2-15.2c3.6-4.8,10.4-5.8,15.2-2.2
		c2.3,1.8,3.8,4.3,4.3,7.2c0.4,2.9-0.3,5.7-2.1,8.1c-1.8,2.3-4.3,3.8-7.2,4.3C158.9,63.7,158.4,63.7,157.8,63.7z M152.7,59.7
		c1.9,1.4,4.1,1.9,6.4,1.6s4.3-1.5,5.7-3.4s1.9-4.1,1.6-6.4s-1.5-4.3-3.4-5.7c-3.8-2.8-9.3-2.1-12.1,1.8
		C148.1,51.4,148.8,56.9,152.7,59.7L152.7,59.7z"/>
	<circle class="st2" cx="157.8" cy="52.8" r="6.5"/>
	<circle class="st1" cx="159.6" cy="56.3" r="3.5"/>
	<path class="st4" d="M197.2,61.7c-14.4,1.4-21.1-1.8-24-4.1c0.5-1.5,0.7-3.1,0.7-4.8c0-2.6-0.6-5-1.7-7.1c0.3-0.4,0.5-0.8,0.9-1.4
		c0.9-1.5,1.9-3.5,2.7-5.4c2.2-5.1,5.2-14,0.7-16.5c-2-1.1-3.5-0.8-4.4-0.4c-1.8,0.9-2.7,3.1-3.2,4.6c-0.9-0.5-2.1-1-3.4-0.9
		c-1.5,0.1-2.7,0.8-3.8,2.1c-1.6,2-1.2,5.2-0.4,7.5c0.2,0.6,0.4,1.3,0.7,1.9c-1.3-0.3-2.7-0.5-4.1-0.5c-8.9,0-16.1,7.2-16.1,16.1
		s7.2,16.1,16.1,16.1c4.1,0,7.8-1.5,10.7-4.1c7.1,7.8,16.7,8.7,18.8,8.7c0.3,0,0.5,0,0.7,0c1.2-0.1,1.3-1.7,0.3-2.1
		c-3.8-1.5-6.7-3.1-8.8-4.6c8.4,0.3,16.5-2.2,17.8-2.8c0.2-0.1,0.4-0.2,0.6-0.3C198.9,63.1,198.4,61.6,197.2,61.7z M171.4,55.7
		C171.4,55.6,171.4,55.6,171.4,55.7c-4.4,2.7-4.6,6.9-4.6,7.7c-2.4,2.1-5.6,3.4-9,3.4c-7.7,0-13.9-6.2-13.9-13.9S150.1,39,157.8,39
		c1.9,0,3.8,0.4,5.5,1.1c1.8,3.2,4.4,6,6.9,6.8h0.1c0.8,1.8,1.3,3.8,1.3,5.9C171.7,53.8,171.6,54.7,171.4,55.7z"/>
</g>
</svg>
