<svg class="c-svg-icon" version="1.1" id="Calque_1" xmlns="http://www.w3.org/2000/svg" xmlns:xlink="http://www.w3.org/1999/xlink" x="0px" y="0px"
	 viewBox="0 0 343.3 334.7" style="enable-background:new 0 0 343.3 334.7;" xml:space="preserve">
<style type="text/css">
	.st30{fill:#2D2A32;}
</style>
<g>
	<path class="st30" d="M14.3,14.3H329v306.1H14.3V14.3z M0,334.7h343.3V0H0V334.7z M224.8,119.3c0-1.1,0.4-1.7,1.7-1.7H249
		c1.1,0,1.7,0.4,1.7,1.7v112.9c0,1.1-0.3,1.7-1.7,1.7h-22.2c-1.4,0-1.9-0.7-1.9-1.9V119.3L224.8,119.3L224.8,119.3z M223.3,86.8
		c0-9.2,6.4-14.6,14.6-14.6c8.7,0,14.6,5.9,14.6,14.6c0,9.4-6.2,14.6-14.9,14.6C229.3,101.4,223.3,96.3,223.3,86.8z M158.9,166.3
		c-4-15.9-13.4-50.5-17-67.2h-0.3c-3,16.7-10.6,45.1-16.6,67.2H158.9z M119.1,189.5l-11.3,42.9c-0.3,1.1-0.7,1.4-2.1,1.4h-21
		c-1.4,0-1.7-0.4-1.4-2.1l40.6-142.2c0.7-2.6,1.1-4.9,1.4-11.9c0-1,0.4-1.4,1.1-1.4h30c1,0,1.4,0.3,1.7,1.4L203.7,232
		c0.3,1.1,0,1.9-1.1,1.9h-23.7c-1.1,0-1.9-0.3-2.1-1.3l-11.7-43.1H119.1L119.1,189.5z"/>
</g>
</svg>
