<svg class="c-svg-logotype" version="1.1" id="Calque_1" xmlns="http://www.w3.org/2000/svg" xmlns:xlink="http://www.w3.org/1999/xlink" x="0px" y="0px"
	 viewBox="0 0 246.1 309.4" style="enable-background:new 0 0 246.1 309.4;" xml:space="preserve">
<style type="text/css">
	.st140{fill:#FFFFFF;}
	.st141{fill:url(#SVGID_10_);}
	.st142{fill:#2F3447;}
</style>
<g>
	<g>
		<g>
			<path class="st140" d="M201.4,0.7c-9.8,0-18.7,4-25.1,10.4l-93.3,93.3l-3.6,3.6c-2.8,2.8-5.3,5.8-7.5,9v-1.5V36.2
				c0-19.6-15.9-35.5-35.5-35.5C16.7,0.7,0.8,16.6,0.8,36.2v236.9c0,19.6,15.9,35.5,35.5,35.5c19.6,0,35.5-15.9,35.5-35.5v-14.1
				c10.2-2.6,17.8-11.9,17.8-23c0-11-7.6-20.3-17.8-23c-1.9-0.5-3.9-0.7-5.9-0.7c-2,0-4,0.3-5.9,0.7c-10.2,2.6-17.8,11.9-17.8,23
				c0,0.7,0,1.3,0.1,2c0.6,6.6,3.8,12.4,8.6,16.3c0.2,0.2,0.4,0.3,0.5,0.4c2.5,1.9,5.4,3.4,8.6,4.2v14.1c0,13.1-10.6,23.7-23.7,23.7
				c-13.1,0-23.7-10.6-23.7-23.7v-26.5V62.7V36.2c0-13.1,10.6-23.7,23.7-23.7C49.4,12.5,60,23.1,60,36.2v26.5v64.7v27.3
				c0,9.1,1.9,18.1,5.6,26.6c1.7,3.9,3.8,7.6,6.3,11.1c2,2.9,4.3,5.7,6.9,8.3l0,0l0,0c0.2,0.2,0.3,0.3,0.5,0.5c0,0,0.1,0.1,0.2,0.2
				c0,0,0.1,0.1,0.1,0.1c0,0,0.1,0.1,0.1,0.1c0.2,0.2,0.4,0.4,0.5,0.5l2.9,2.9l72.6,72.6l13.1,13.1c0.2-1.8,0-3.6-0.6-5.3
				c-0.6-1.6-1.5-3.2-2.8-4.5l-32.5-32.5c-8.2-8.2-13.8-18.1-16.8-28.5c-6.4-22.3-0.8-47.3,16.8-64.8l43.4-43.4l-42.9,42.9l-0.4,0.4
				l0.4-0.4l42.9-42.9l50.4-50.4c6.4-6.4,10.4-15.3,10.4-25.1C236.9,16.6,221,0.7,201.4,0.7z M57.5,244.5c-4.6-4.6-4.6-12.1,0-16.8
				c0.8-0.8,1.6-1.4,2.4-1.9c3.6-2.1,8.2-2.1,11.8,0c0.9,0.5,1.7,1.1,2.5,1.9c4.6,4.6,4.6,12.1,0,16.8c-0.7,0.8-1.6,1.4-2.5,1.9
				c-3.7,2.1-8.2,2.1-11.8,0c-0.5-0.3-1.1-0.7-1.5-1.1C58.1,245.1,57.8,244.8,57.5,244.5z"/>

				<linearGradient id="SVGID_10_" gradientUnits="userSpaceOnUse" x1="-508.7105" y1="-50.4601" x2="-341.1823" y2="-50.4601" gradientTransform="matrix(0.7071 0.7071 -0.7071 0.7071 432.0682 575.1834)">
				<stop  offset="0" style="stop-color:#C0BFBF"/>
				<stop  offset="0.8" style="stop-color:#FFFFFF"/>
			</linearGradient>
			<path class="st141" d="M226.5,248l-93.3-93.3l-0.4,0.4c-17.6,17.5-23.2,42.5-16.8,64.8c3,10.4,8.6,20.3,16.8,28.5l32.5,32.5
				c1.3,1.3,2.2,2.8,2.8,4.5c0.6,1.7,0.8,3.5,0.6,5.3l7.6,7.6c6.4,6.4,15.3,10.4,25.1,10.4c19.6,0,35.5-15.9,35.5-35.5
				C236.9,263.3,232.9,254.4,226.5,248z"/>
		</g>
	</g>
	<g>
		<path class="st142" d="M179.9,268.5c-0.4,0-0.7-0.3-0.7-0.7c0-0.4,0.3-0.8,0.7-0.8c1.6,0,3.3-0.1,4.9-0.2c0.4,0,0.8,0.3,0.8,0.7
			c0,0.4-0.3,0.8-0.7,0.8C183.3,268.4,181.6,268.5,179.9,268.5C179.9,268.5,179.9,268.5,179.9,268.5z M174.9,268.4
			C174.9,268.4,174.9,268.4,174.9,268.4c-1.7-0.1-3.4-0.3-5.1-0.5c-0.4-0.1-0.7-0.4-0.6-0.8c0.1-0.4,0.4-0.7,0.8-0.6
			c1.6,0.2,3.3,0.4,4.9,0.5c0.4,0,0.7,0.4,0.7,0.8C175.6,268.1,175.3,268.4,174.9,268.4z M189.9,267.7c-0.4,0-0.7-0.3-0.7-0.6
			c-0.1-0.4,0.2-0.8,0.6-0.9c1.6-0.3,3.2-0.6,4.8-1c0.4-0.1,0.8,0.2,0.9,0.6c0.1,0.4-0.2,0.8-0.6,0.9c-1.6,0.4-3.3,0.7-5,1
			C189.9,267.7,189.9,267.7,189.9,267.7z M165,266.9c-0.1,0-0.1,0-0.2,0c-1.6-0.4-3.3-0.8-4.9-1.3c-0.4-0.1-0.6-0.5-0.5-0.9
			c0.1-0.4,0.5-0.6,0.9-0.5c1.6,0.5,3.2,0.9,4.8,1.3c0.4,0.1,0.7,0.5,0.6,0.9C165.7,266.7,165.4,266.9,165,266.9z M199.6,265.4
			c-0.3,0-0.6-0.2-0.7-0.5c-0.1-0.4,0.1-0.8,0.5-0.9c1.6-0.5,3.1-1.1,4.6-1.7c0.4-0.2,0.8,0,1,0.4s0,0.8-0.4,1
			c-1.6,0.6-3.2,1.2-4.8,1.7C199.7,265.3,199.7,265.4,199.6,265.4z M155.5,264c-0.1,0-0.2,0-0.3-0.1c-1.6-0.6-3.1-1.3-4.6-2
			c-0.4-0.2-0.5-0.6-0.4-1s0.6-0.5,1-0.4c1.5,0.7,3,1.4,4.5,2c0.4,0.1,0.6,0.6,0.4,1C156.1,263.9,155.8,264,155.5,264z M208.8,261.6
			c-0.3,0-0.5-0.2-0.7-0.4c-0.2-0.4,0-0.8,0.3-1c1.5-0.7,2.9-1.5,4.3-2.4c0.4-0.2,0.8-0.1,1,0.3c0.2,0.4,0.1,0.8-0.3,1
			c-1.4,0.9-2.9,1.7-4.4,2.4C209.1,261.6,209,261.6,208.8,261.6z M146.5,259.7c-0.1,0-0.3,0-0.4-0.1c-1.5-0.8-2.9-1.7-4.3-2.7
			c-0.3-0.2-0.4-0.7-0.2-1c0.2-0.3,0.7-0.4,1-0.2c1.4,0.9,2.8,1.8,4.2,2.6c0.4,0.2,0.5,0.7,0.3,1C147,259.6,146.7,259.7,146.5,259.7
			z M217.4,256.5c-0.2,0-0.5-0.1-0.6-0.3c-0.2-0.3-0.2-0.8,0.2-1c1.3-0.9,2.7-2,3.9-3c0.3-0.3,0.8-0.2,1.1,0.1
			c0.3,0.3,0.2,0.8-0.1,1.1c-1.3,1.1-2.6,2.1-4,3.1C217.7,256.4,217.6,256.5,217.4,256.5z M138.2,254.1c-0.2,0-0.3-0.1-0.5-0.2
			c-1.3-1-2.6-2.2-3.8-3.3c-0.3-0.3-0.3-0.8,0-1.1c0.3-0.3,0.8-0.3,1.1,0c1.2,1.1,2.5,2.2,3.7,3.2c0.3,0.3,0.4,0.7,0.1,1.1
			C138.7,254,138.4,254.1,138.2,254.1z M225.1,250.1c-0.2,0-0.4-0.1-0.5-0.2c-0.3-0.3-0.3-0.8,0-1.1c0.3-0.3,0.6-0.6,0.9-0.9
			c0.9-0.9,1.7-1.7,2.5-2.6c0.3-0.3,0.8-0.3,1.1-0.1c0.3,0.3,0.3,0.8,0.1,1.1c-0.8,0.9-1.7,1.8-2.6,2.7c-0.3,0.3-0.6,0.6-0.9,0.9
			C225.5,250,225.3,250.1,225.1,250.1z M130.9,247.3c-0.2,0-0.4-0.1-0.6-0.2c-1.1-1.2-2.2-2.5-3.3-3.8c-0.3-0.3-0.2-0.8,0.1-1.1
			c0.3-0.3,0.8-0.2,1.1,0.1c1,1.3,2.1,2.5,3.2,3.8c0.3,0.3,0.3,0.8,0,1.1C131.3,247.2,131.1,247.3,130.9,247.3z M231.8,242.7
			c-0.2,0-0.3-0.1-0.5-0.2c-0.3-0.3-0.4-0.7-0.1-1.1c1-1.3,2-2.7,2.9-4c0.2-0.3,0.7-0.4,1-0.2c0.3,0.2,0.4,0.7,0.2,1
			c-0.9,1.4-1.9,2.8-2.9,4.1C232.2,242.6,232,242.7,231.8,242.7z M124.7,239.5c-0.2,0-0.5-0.1-0.6-0.3c-0.9-1.4-1.8-2.8-2.7-4.3
			c-0.2-0.4-0.1-0.8,0.3-1c0.4-0.2,0.8-0.1,1,0.3c0.8,1.4,1.7,2.8,2.6,4.2c0.2,0.3,0.1,0.8-0.2,1C125,239.4,124.8,239.5,124.7,239.5
			z M237.2,234.3c-0.1,0-0.2,0-0.4-0.1c-0.4-0.2-0.5-0.7-0.3-1c0.8-1.4,1.5-2.9,2.2-4.4c0.2-0.4,0.6-0.5,1-0.4
			c0.4,0.2,0.5,0.6,0.4,1c-0.7,1.5-1.5,3-2.3,4.5C237.8,234.2,237.5,234.3,237.2,234.3z M119.7,230.8c-0.3,0-0.6-0.2-0.7-0.4
			c-0.7-1.5-1.4-3.1-2-4.6c-0.1-0.4,0-0.8,0.4-1c0.4-0.1,0.8,0,1,0.4c0.6,1.5,1.2,3.1,1.9,4.5c0.2,0.4,0,0.8-0.4,1
			C120,230.8,119.8,230.8,119.7,230.8z M241.4,225.2c-0.1,0-0.2,0-0.3,0c-0.4-0.1-0.6-0.6-0.4-1c0.6-1.5,1.1-3.1,1.5-4.7
			c0.1-0.4,0.5-0.6,0.9-0.5c0.4,0.1,0.6,0.5,0.5,0.9c-0.5,1.6-1,3.2-1.6,4.8C242,225,241.7,225.2,241.4,225.2z M116.2,221.4
			c-0.3,0-0.6-0.2-0.7-0.5c-0.5-1.6-0.9-3.3-1.3-4.9c-0.1-0.4,0.2-0.8,0.6-0.9c0.4-0.1,0.8,0.2,0.9,0.6c0.3,1.6,0.8,3.2,1.2,4.8
			c0.1,0.4-0.1,0.8-0.5,0.9C116.3,221.4,116.2,221.4,116.2,221.4z M244.1,215.6c0,0-0.1,0-0.1,0c-0.4-0.1-0.7-0.5-0.6-0.9
			c0.3-1.6,0.6-3.2,0.8-4.9c0.1-0.4,0.4-0.7,0.8-0.7c0.4,0.1,0.7,0.4,0.7,0.8c-0.2,1.7-0.5,3.3-0.8,5
			C244.8,215.4,244.4,215.6,244.1,215.6z M114,211.7c-0.4,0-0.7-0.3-0.7-0.6c-0.2-1.7-0.4-3.4-0.5-5c0-0.4,0.3-0.8,0.7-0.8
			c0.4,0,0.8,0.3,0.8,0.7c0.1,1.6,0.3,3.3,0.5,4.9c0.1,0.4-0.2,0.8-0.6,0.8C114.1,211.7,114.1,211.7,114,211.7z M245.3,205.7
			C245.3,205.7,245.3,205.7,245.3,205.7c-0.5,0-0.8-0.4-0.7-0.8c0-1,0.1-2.1,0.1-3.1c0-0.6,0-1.2,0-1.8c0-0.4,0.3-0.8,0.7-0.8
			c0.4,0,0.8,0.3,0.8,0.7c0,0.6,0,1.2,0,1.8c0,1.1,0,2.1-0.1,3.2C246,205.4,245.7,205.7,245.3,205.7z M113.4,201.7
			C113.4,201.7,113.4,201.7,113.4,201.7c-0.4,0-0.8-0.3-0.8-0.8c0-1.7,0.1-3.4,0.3-5c0-0.4,0.4-0.7,0.8-0.7c0.4,0,0.7,0.4,0.7,0.8
			c-0.1,1.6-0.2,3.3-0.2,4.9C114.1,201.4,113.8,201.7,113.4,201.7z M245,195.7c-0.4,0-0.7-0.3-0.7-0.7c-0.2-1.6-0.4-3.3-0.7-4.9
			c-0.1-0.4,0.2-0.8,0.6-0.9c0.4-0.1,0.8,0.2,0.9,0.6c0.3,1.6,0.5,3.3,0.7,5C245.8,195.3,245.5,195.7,245,195.7
			C245.1,195.7,245.1,195.7,245,195.7z M114.3,191.8c0,0-0.1,0-0.1,0c-0.4-0.1-0.7-0.5-0.6-0.9c0.3-1.7,0.6-3.3,1-5
			c0.1-0.4,0.5-0.6,0.9-0.6c0.4,0.1,0.6,0.5,0.6,0.9c-0.4,1.6-0.7,3.2-1,4.8C115,191.5,114.6,191.8,114.3,191.8z M243.3,185.9
			c-0.3,0-0.6-0.2-0.7-0.6c-0.4-1.6-0.9-3.2-1.4-4.7c-0.1-0.4,0.1-0.8,0.5-1c0.4-0.1,0.8,0.1,1,0.5c0.5,1.6,1,3.2,1.5,4.8
			c0.1,0.4-0.1,0.8-0.5,0.9C243.4,185.9,243.3,185.9,243.3,185.9z M116.6,182.1c-0.1,0-0.2,0-0.2,0c-0.4-0.1-0.6-0.6-0.5-0.9
			c0.5-1.6,1.1-3.2,1.7-4.7c0.2-0.4,0.6-0.6,1-0.4c0.4,0.2,0.6,0.6,0.4,1c-0.6,1.5-1.2,3.1-1.7,4.6
			C117.2,181.9,117,182.1,116.6,182.1z M240,176.4c-0.3,0-0.6-0.2-0.7-0.5c-0.6-1.5-1.4-3-2.1-4.5c-0.2-0.4-0.1-0.8,0.3-1
			c0.4-0.2,0.8-0.1,1,0.3c0.8,1.5,1.5,3,2.2,4.6c0.2,0.4,0,0.8-0.4,1C240.2,176.4,240.1,176.4,240,176.4z M120.4,172.8
			c-0.1,0-0.2,0-0.3-0.1c-0.4-0.2-0.5-0.6-0.3-1c0.8-1.5,1.6-3,2.4-4.4c0.2-0.4,0.7-0.5,1-0.3c0.4,0.2,0.5,0.7,0.3,1
			c-0.8,1.4-1.7,2.9-2.4,4.3C121,172.7,120.7,172.8,120.4,172.8z M235.4,167.6c-0.2,0-0.5-0.1-0.6-0.4c-0.9-1.4-1.8-2.8-2.8-4.1
			c-0.2-0.3-0.2-0.8,0.2-1c0.3-0.2,0.8-0.2,1,0.2c1,1.4,2,2.8,2.8,4.2c0.2,0.4,0.1,0.8-0.2,1C235.7,167.5,235.5,167.6,235.4,167.6z
			 M125.6,164.3c-0.2,0-0.3,0-0.4-0.1c-0.3-0.2-0.4-0.7-0.2-1c1-1.4,2-2.7,3.1-4c0.3-0.3,0.7-0.4,1.1-0.1c0.3,0.3,0.4,0.7,0.1,1.1
			c-1.1,1.3-2.1,2.6-3,3.9C126.1,164.2,125.8,164.3,125.6,164.3z M229.5,159.5c-0.2,0-0.4-0.1-0.6-0.3c-1.1-1.2-2.2-2.5-3.4-3.6
			c-1.1-1.1-2.3-2.2-3.4-3.2c-0.3-0.3-0.3-0.7-0.1-1.1c0.3-0.3,0.7-0.3,1.1-0.1c1.2,1,2.4,2.1,3.5,3.3c1.2,1.2,2.3,2.4,3.4,3.7
			c0.3,0.3,0.2,0.8-0.1,1.1C229.8,159.5,229.6,159.5,229.5,159.5z M132,156.6c-0.2,0-0.4-0.1-0.5-0.2c-0.3-0.3-0.3-0.8,0-1.1
			c0.2-0.3,0.5-0.5,0.8-0.8c0.9-0.9,1.9-1.9,2.9-2.7c0.3-0.3,0.8-0.2,1.1,0.1c0.3,0.3,0.2,0.8-0.1,1.1c-1,0.9-1.9,1.8-2.8,2.7
			c-0.2,0.2-0.5,0.5-0.7,0.7C132.4,156.5,132.2,156.6,132,156.6z M139.5,150c-0.2,0-0.4-0.1-0.6-0.3c-0.3-0.3-0.2-0.8,0.1-1.1
			c1.3-1,2.7-2,4.1-2.9c0.3-0.2,0.8-0.1,1,0.2c0.2,0.3,0.1,0.8-0.2,1c-1.4,0.9-2.7,1.8-4,2.8C139.8,149.9,139.6,150,139.5,150z
			 M218.7,149.5c-0.2,0-0.3,0-0.4-0.1c-1.3-1-2.7-1.9-4.1-2.8c-0.4-0.2-0.5-0.7-0.2-1s0.7-0.5,1-0.2c1.4,0.9,2.8,1.9,4.2,2.9
			c0.3,0.2,0.4,0.7,0.2,1C219.1,149.4,218.9,149.5,218.7,149.5z M147.8,144.5c-0.3,0-0.5-0.1-0.7-0.4c-0.2-0.4-0.1-0.8,0.3-1
			c1.5-0.8,3-1.6,4.5-2.2c0.4-0.2,0.8,0,1,0.4c0.2,0.4,0,0.8-0.4,1c-1.5,0.7-3,1.4-4.4,2.2C148.1,144.5,148,144.5,147.8,144.5z
			 M210.2,144.2c-0.1,0-0.2,0-0.4-0.1c-1.4-0.8-2.9-1.5-4.5-2.1c-0.4-0.2-0.6-0.6-0.4-1c0.2-0.4,0.6-0.6,1-0.4
			c1.5,0.7,3.1,1.4,4.6,2.2c0.4,0.2,0.5,0.6,0.3,1C210.8,144,210.5,144.2,210.2,144.2z M157,140.4c-0.3,0-0.6-0.2-0.7-0.5
			c-0.1-0.4,0.1-0.8,0.5-1c1.6-0.6,3.2-1.1,4.8-1.5c0.4-0.1,0.8,0.1,0.9,0.5c0.1,0.4-0.1,0.8-0.5,0.9c-1.6,0.4-3.2,0.9-4.7,1.5
			C157.1,140.4,157,140.4,157,140.4z M201.1,140.2c-0.1,0-0.2,0-0.2,0c-1.5-0.5-3.1-1-4.7-1.4c-0.4-0.1-0.6-0.5-0.5-0.9
			c0.1-0.4,0.5-0.6,0.9-0.5c1.6,0.4,3.2,0.9,4.8,1.5c0.4,0.1,0.6,0.6,0.5,1C201.7,140,201.4,140.2,201.1,140.2z M166.6,137.8
			c-0.4,0-0.7-0.2-0.7-0.6c-0.1-0.4,0.2-0.8,0.6-0.9c1.6-0.3,3.3-0.6,5-0.8c0.4-0.1,0.8,0.2,0.8,0.7c0,0.4-0.2,0.8-0.7,0.8
			c-1.6,0.2-3.3,0.5-4.9,0.8C166.7,137.8,166.6,137.8,166.6,137.8z M191.4,137.6c0,0-0.1,0-0.1,0c-1.6-0.3-3.3-0.5-4.9-0.7
			c-0.4,0-0.7-0.4-0.7-0.8c0-0.4,0.4-0.7,0.8-0.7c1.7,0.2,3.4,0.4,5,0.7c0.4,0.1,0.7,0.5,0.6,0.9
			C192.1,137.4,191.8,137.6,191.4,137.6z M176.5,136.6c-0.4,0-0.7-0.3-0.7-0.7c0-0.4,0.3-0.8,0.7-0.8c1.7-0.1,3.4-0.1,5.1,0
			c0.4,0,0.7,0.4,0.7,0.8c0,0.4-0.4,0.8-0.8,0.7C179.8,136.5,178.2,136.5,176.5,136.6C176.5,136.6,176.5,136.6,176.5,136.6z"/>
		<path class="st2" d="M202.2,309.4c-0.4,0-0.7-0.3-0.7-0.7c0-0.4,0.3-0.8,0.7-0.8c1.6,0,3.3-0.2,4.9-0.5c0.4-0.1,0.8,0.2,0.9,0.6
			c0.1,0.4-0.2,0.8-0.6,0.9C205.6,309.2,203.9,309.4,202.2,309.4C202.2,309.4,202.2,309.4,202.2,309.4z M197.2,309.2
			C197.2,309.2,197.2,309.2,197.2,309.2c-1.8-0.2-3.5-0.5-5.1-0.9c-0.4-0.1-0.6-0.5-0.5-0.9s0.5-0.6,0.9-0.5
			c1.6,0.4,3.2,0.7,4.8,0.9c0.4,0,0.7,0.4,0.7,0.8C197.9,308.9,197.6,309.2,197.2,309.2z M212,307.8c-0.3,0-0.6-0.2-0.7-0.5
			c-0.1-0.4,0.1-0.8,0.5-0.9c1.6-0.5,3.1-1.1,4.5-1.8c0.4-0.2,0.8,0,1,0.4c0.2,0.4,0,0.8-0.4,1c-1.5,0.7-3.1,1.4-4.7,1.9
			C212.2,307.8,212.1,307.8,212,307.8z M187.6,306.6c-0.1,0-0.2,0-0.3-0.1c-1.6-0.7-3.1-1.4-4.6-2.3c-0.4-0.2-0.5-0.7-0.3-1
			c0.2-0.4,0.7-0.5,1-0.3c1.4,0.8,2.9,1.6,4.4,2.2c0.4,0.2,0.6,0.6,0.4,1C188.1,306.5,187.9,306.6,187.6,306.6z M221,303.5
			c-0.2,0-0.5-0.1-0.6-0.3c-0.2-0.3-0.1-0.8,0.2-1c1.4-0.9,2.7-1.9,3.9-3c0.3-0.3,0.8-0.2,1.1,0.1c0.3,0.3,0.2,0.8-0.1,1.1
			c-1.3,1.1-2.6,2.2-4,3.1C221.3,303.4,221.2,303.5,221,303.5z M179,301.5c-0.2,0-0.3-0.1-0.5-0.2c-1.3-1.1-2.6-2.2-3.7-3.5
			c-0.3-0.3-0.3-0.8,0-1.1s0.8-0.3,1.1,0c1.1,1.2,2.3,2.3,3.6,3.3c0.3,0.3,0.4,0.7,0.1,1.1C179.5,301.4,179.2,301.5,179,301.5z
			 M228.5,296.9c-0.2,0-0.3-0.1-0.5-0.2c-0.3-0.3-0.4-0.7-0.1-1.1c1.1-1.2,2-2.6,2.9-3.9c0.2-0.3,0.7-0.5,1-0.2
			c0.4,0.2,0.5,0.7,0.2,1c-0.9,1.4-1.9,2.8-3,4.1C228.9,296.8,228.7,296.9,228.5,296.9z M172.2,294.2c-0.2,0-0.5-0.1-0.6-0.3
			c-1-1.4-1.9-2.9-2.6-4.4c-0.2-0.4,0-0.8,0.3-1c0.4-0.2,0.8,0,1,0.3c0.7,1.4,1.6,2.9,2.5,4.2c0.2,0.3,0.2,0.8-0.2,1
			C172.5,294.2,172.4,294.2,172.2,294.2z M233.8,288.4c-0.1,0-0.2,0-0.3-0.1c-0.4-0.2-0.5-0.6-0.4-1c0.7-1.5,1.2-3,1.7-4.6
			c0.1-0.4,0.5-0.6,0.9-0.5c0.4,0.1,0.6,0.5,0.5,0.9c-0.5,1.6-1.1,3.2-1.8,4.8C234.4,288.3,234.1,288.4,233.8,288.4z M167.7,285.4
			c-0.3,0-0.6-0.2-0.7-0.5c-0.5-1.6-1-3.3-1.3-4.9c-0.1-0.4,0.2-0.8,0.6-0.9c0.4-0.1,0.8,0.2,0.9,0.6c0.3,1.6,0.7,3.2,1.2,4.7
			c0.1,0.4-0.1,0.8-0.5,1C167.9,285.3,167.8,285.4,167.7,285.4z M236.6,278.9c0,0-0.1,0-0.1,0c-0.4-0.1-0.7-0.4-0.6-0.8
			c0.2-1.6,0.3-3.2,0.3-4.9c0-1.1-0.1-2.2-0.2-3.3c0-0.4,0.3-0.8,0.7-0.8c0.4,0,0.8,0.3,0.8,0.7c0.1,1.1,0.2,2.3,0.2,3.4
			c0,1.7-0.1,3.4-0.4,5.1C237.2,278.6,236.9,278.9,236.6,278.9z M165.9,275.6c-0.4,0-0.7-0.3-0.7-0.7c0-0.6,0-1.1,0-1.7
			c0-1.1,0.1-2.3,0.2-3.4c0-0.4,0.4-0.7,0.8-0.7c0.4,0,0.7,0.4,0.7,0.8c-0.1,1.1-0.1,2.2-0.1,3.2c0,0.6,0,1.1,0,1.7
			C166.6,275.2,166.3,275.5,165.9,275.6C165.9,275.6,165.9,275.6,165.9,275.6z M166.8,265.6c-0.1,0-0.1,0-0.2,0
			c-0.4-0.1-0.7-0.5-0.6-0.9c0.4-1.7,0.9-3.3,1.5-4.9c0.2-0.4,0.6-0.6,1-0.4c0.4,0.2,0.6,0.6,0.4,1c-0.6,1.5-1.1,3.1-1.5,4.7
			C167.4,265.4,167.1,265.6,166.8,265.6z M235.9,265.6c-0.3,0-0.6-0.2-0.7-0.6c-0.4-1.6-0.9-3.1-1.5-4.7c-0.2-0.4,0-0.8,0.4-1
			c0.4-0.2,0.8,0,1,0.4c0.6,1.6,1.1,3.2,1.5,4.9c0.1,0.4-0.2,0.8-0.6,0.9C236,265.6,236,265.6,235.9,265.6z M170.4,256.4
			c-0.1,0-0.3,0-0.4-0.1c-0.4-0.2-0.5-0.7-0.3-1c0.8-1.5,1.8-2.9,2.8-4.2c0.3-0.3,0.7-0.4,1.1-0.1c0.3,0.3,0.4,0.7,0.1,1.1
			c-1,1.3-1.9,2.7-2.7,4.1C170.9,256.2,170.7,256.4,170.4,256.4z M232.3,256.3c-0.3,0-0.5-0.1-0.7-0.4c-0.8-1.4-1.7-2.8-2.7-4.1
			c-0.3-0.3-0.2-0.8,0.1-1.1c0.3-0.3,0.8-0.2,1.1,0.1c1,1.3,2,2.8,2.8,4.2c0.2,0.4,0.1,0.8-0.3,1
			C232.5,256.3,232.4,256.3,232.3,256.3z M176.5,248.5c-0.2,0-0.4-0.1-0.5-0.2c-0.3-0.3-0.3-0.8,0-1.1c1.2-1.2,2.5-2.3,3.9-3.3
			c0.3-0.2,0.8-0.2,1,0.2c0.2,0.3,0.2,0.8-0.2,1c-1.3,1-2.6,2-3.7,3.2C176.9,248.4,176.7,248.5,176.5,248.5z M226.2,248.4
			c-0.2,0-0.4-0.1-0.5-0.2c-1.2-1.1-2.4-2.2-3.7-3.2c-0.3-0.2-0.4-0.7-0.2-1c0.2-0.3,0.7-0.4,1-0.2c1.4,1,2.7,2.1,3.9,3.3
			c0.3,0.3,0.3,0.8,0,1.1C226.6,248.4,226.4,248.4,226.2,248.4z M184.5,242.6c-0.3,0-0.5-0.1-0.7-0.4c-0.2-0.4-0.1-0.8,0.3-1
			c1.5-0.8,3.1-1.5,4.6-2.1c0.4-0.1,0.8,0.1,1,0.4c0.1,0.4-0.1,0.8-0.4,1c-1.5,0.6-3,1.2-4.5,2C184.8,242.5,184.7,242.6,184.5,242.6
			z M218.1,242.5c-0.1,0-0.2,0-0.4-0.1c-1.4-0.8-2.9-1.4-4.5-2c-0.4-0.1-0.6-0.6-0.4-1c0.1-0.4,0.6-0.6,1-0.4
			c1.6,0.6,3.2,1.3,4.7,2.1c0.4,0.2,0.5,0.7,0.3,1C218.7,242.4,218.4,242.5,218.1,242.5z M193.9,239.1c-0.3,0-0.7-0.2-0.7-0.6
			c-0.1-0.4,0.2-0.8,0.6-0.9c1.7-0.4,3.4-0.6,5-0.7c0.4,0,0.8,0.3,0.8,0.7c0,0.4-0.3,0.8-0.7,0.8c-1.6,0.1-3.3,0.3-4.8,0.7
			C194,239.1,193.9,239.1,193.9,239.1z M208.8,239.1c-0.1,0-0.1,0-0.2,0c-1.6-0.3-3.2-0.6-4.8-0.7c-0.4,0-0.7-0.4-0.7-0.8
			c0-0.4,0.4-0.7,0.8-0.7c1.7,0.1,3.4,0.4,5.1,0.7c0.4,0.1,0.7,0.5,0.6,0.9C209.4,238.9,209.1,239.1,208.8,239.1z"/>
		<path class="st142" d="M202.2,72.5c-0.4,0-0.7-0.3-0.7-0.7c0-0.4,0.3-0.8,0.7-0.8c1.6,0,3.3-0.2,4.9-0.5c0.4-0.1,0.8,0.2,0.9,0.6
			c0.1,0.4-0.2,0.8-0.6,0.9C205.6,72.3,203.9,72.4,202.2,72.5C202.2,72.5,202.2,72.5,202.2,72.5z M197.2,72.3
			C197.2,72.3,197.2,72.3,197.2,72.3c-1.8-0.2-3.5-0.5-5.1-0.9c-0.4-0.1-0.6-0.5-0.5-0.9s0.5-0.6,0.9-0.5c1.6,0.4,3.2,0.7,4.8,0.9
			c0.4,0,0.7,0.4,0.7,0.8C197.9,72,197.6,72.3,197.2,72.3z M212,70.9c-0.3,0-0.6-0.2-0.7-0.5c-0.1-0.4,0.1-0.8,0.5-0.9
			c1.6-0.5,3.1-1.1,4.5-1.8c0.4-0.2,0.8,0,1,0.4c0.2,0.4,0,0.8-0.4,1c-1.5,0.7-3.1,1.4-4.7,1.9C212.2,70.9,212.1,70.9,212,70.9z
			 M187.6,69.7c-0.1,0-0.2,0-0.3-0.1c-1.6-0.7-3.1-1.4-4.6-2.3c-0.4-0.2-0.5-0.7-0.3-1c0.2-0.4,0.7-0.5,1-0.3
			c1.4,0.8,2.9,1.6,4.4,2.2c0.4,0.2,0.6,0.6,0.4,1C188.1,69.5,187.9,69.7,187.6,69.7z M221,66.6c-0.2,0-0.5-0.1-0.6-0.3
			c-0.2-0.3-0.1-0.8,0.2-1c1.4-0.9,2.7-1.9,3.9-3c0.3-0.3,0.8-0.2,1.1,0.1c0.3,0.3,0.2,0.8-0.1,1.1c-1.3,1.1-2.6,2.2-4,3.1
			C221.3,66.5,221.2,66.6,221,66.6z M179,64.6c-0.2,0-0.3-0.1-0.5-0.2c-1.3-1.1-2.6-2.2-3.7-3.5c-0.3-0.3-0.3-0.8,0-1.1
			c0.3-0.3,0.8-0.3,1.1,0c1.1,1.2,2.3,2.3,3.6,3.3c0.3,0.3,0.4,0.7,0.1,1.1C179.5,64.5,179.2,64.6,179,64.6z M228.5,59.9
			c-0.2,0-0.3-0.1-0.5-0.2c-0.3-0.3-0.4-0.7-0.1-1.1c1.1-1.2,2-2.6,2.9-3.9c0.2-0.3,0.7-0.5,1-0.2c0.4,0.2,0.5,0.7,0.2,1
			c-0.9,1.4-1.9,2.8-3,4.1C228.9,59.9,228.7,59.9,228.5,59.9z M172.2,57.3c-0.2,0-0.5-0.1-0.6-0.3c-1-1.4-1.9-2.9-2.6-4.4
			c-0.2-0.4,0-0.8,0.3-1c0.4-0.2,0.8,0,1,0.3c0.7,1.4,1.6,2.9,2.5,4.2c0.2,0.3,0.2,0.8-0.2,1C172.5,57.3,172.4,57.3,172.2,57.3z
			 M233.8,51.5c-0.1,0-0.2,0-0.3-0.1c-0.4-0.2-0.5-0.6-0.4-1c0.7-1.5,1.2-3,1.7-4.6c0.1-0.4,0.5-0.6,0.9-0.5
			c0.4,0.1,0.6,0.5,0.5,0.9c-0.5,1.6-1.1,3.2-1.8,4.8C234.4,51.3,234.1,51.5,233.8,51.5z M167.7,48.4c-0.3,0-0.6-0.2-0.7-0.5
			c-0.5-1.6-1-3.3-1.3-4.9c-0.1-0.4,0.2-0.8,0.6-0.9c0.4-0.1,0.8,0.2,0.9,0.6c0.3,1.6,0.7,3.2,1.2,4.7c0.1,0.4-0.1,0.8-0.5,1
			C167.9,48.4,167.8,48.4,167.7,48.4z M236.6,41.9c0,0-0.1,0-0.1,0c-0.4-0.1-0.7-0.4-0.6-0.8c0.2-1.6,0.3-3.2,0.3-4.9
			c0-1.1-0.1-2.2-0.2-3.3c0-0.4,0.3-0.8,0.7-0.8c0.4,0,0.8,0.3,0.8,0.7c0.1,1.1,0.2,2.3,0.2,3.4c0,1.7-0.1,3.4-0.4,5.1
			C237.2,41.7,236.9,41.9,236.6,41.9z M165.9,38.6c-0.4,0-0.7-0.3-0.7-0.7c0-0.6,0-1.1,0-1.7c0-1.1,0.1-2.3,0.2-3.4
			c0-0.4,0.4-0.7,0.8-0.7c0.4,0,0.7,0.4,0.7,0.8c-0.1,1.1-0.1,2.2-0.1,3.2c0,0.6,0,1.1,0,1.7C166.6,38.3,166.3,38.6,165.9,38.6
			C165.9,38.6,165.9,38.6,165.9,38.6z M166.8,28.7c-0.1,0-0.1,0-0.2,0c-0.4-0.1-0.7-0.5-0.6-0.9c0.4-1.7,0.9-3.3,1.5-4.9
			c0.2-0.4,0.6-0.6,1-0.4c0.4,0.2,0.6,0.6,0.4,1c-0.6,1.5-1.1,3.1-1.5,4.7C167.4,28.5,167.1,28.7,166.8,28.7z M235.9,28.7
			c-0.3,0-0.6-0.2-0.7-0.6c-0.4-1.6-0.9-3.1-1.5-4.7c-0.2-0.4,0-0.8,0.4-1c0.4-0.2,0.8,0,1,0.4c0.6,1.6,1.1,3.2,1.5,4.9
			c0.1,0.4-0.2,0.8-0.6,0.9C236,28.7,236,28.7,235.9,28.7z M170.4,19.4c-0.1,0-0.3,0-0.4-0.1c-0.4-0.2-0.5-0.7-0.3-1
			c0.8-1.5,1.8-2.9,2.8-4.2c0.3-0.3,0.7-0.4,1.1-0.1c0.3,0.3,0.4,0.7,0.1,1.1c-1,1.3-1.9,2.7-2.7,4.1
			C170.9,19.3,170.7,19.4,170.4,19.4z M232.3,19.4c-0.3,0-0.5-0.1-0.7-0.4c-0.8-1.4-1.7-2.8-2.7-4.1c-0.3-0.3-0.2-0.8,0.1-1.1
			c0.3-0.3,0.8-0.2,1.1,0.1c1,1.3,2,2.8,2.8,4.2c0.2,0.4,0.1,0.8-0.3,1C232.5,19.4,232.4,19.4,232.3,19.4z M176.5,11.5
			c-0.2,0-0.4-0.1-0.5-0.2c-0.3-0.3-0.3-0.8,0-1.1c1.2-1.2,2.5-2.3,3.9-3.3c0.3-0.2,0.8-0.2,1,0.2s0.2,0.8-0.2,1
			c-1.3,1-2.6,2-3.7,3.2C176.9,11.5,176.7,11.5,176.5,11.5z M226.2,11.5c-0.2,0-0.4-0.1-0.5-0.2c-1.2-1.1-2.4-2.2-3.7-3.2
			c-0.3-0.2-0.4-0.7-0.2-1c0.2-0.3,0.7-0.4,1-0.2c1.4,1,2.7,2.1,3.9,3.3c0.3,0.3,0.3,0.8,0,1.1C226.6,11.4,226.4,11.5,226.2,11.5z
			 M184.5,5.6c-0.3,0-0.5-0.1-0.7-0.4c-0.2-0.4-0.1-0.8,0.3-1c1.5-0.8,3.1-1.5,4.6-2.1c0.4-0.1,0.8,0.1,1,0.4c0.1,0.4-0.1,0.8-0.4,1
			c-1.5,0.6-3,1.2-4.5,2C184.8,5.6,184.7,5.6,184.5,5.6z M218.1,5.6c-0.1,0-0.2,0-0.4-0.1c-1.4-0.8-2.9-1.4-4.5-2
			c-0.4-0.1-0.6-0.6-0.4-1c0.1-0.4,0.6-0.6,1-0.4c1.6,0.6,3.2,1.3,4.7,2.1c0.4,0.2,0.5,0.7,0.3,1C218.7,5.5,218.4,5.6,218.1,5.6z
			 M193.9,2.2c-0.3,0-0.7-0.2-0.7-0.6c-0.1-0.4,0.2-0.8,0.6-0.9c1.7-0.4,3.4-0.6,5-0.7c0.4,0,0.8,0.3,0.8,0.7c0,0.4-0.3,0.8-0.7,0.8
			c-1.6,0.1-3.3,0.3-4.8,0.7C194,2.2,193.9,2.2,193.9,2.2z M208.8,2.2c-0.1,0-0.1,0-0.2,0c-1.6-0.3-3.2-0.6-4.8-0.7
			c-0.4,0-0.7-0.4-0.7-0.8c0-0.4,0.4-0.7,0.8-0.7c1.7,0.1,3.4,0.4,5.1,0.7c0.4,0.1,0.7,0.5,0.6,0.9C209.4,1.9,209.1,2.2,208.8,2.2z"
			/>
		<path class="st142" d="M126.5,221.4c-0.4,0-0.7-0.3-0.7-0.7c0-0.4,0.3-0.8,0.7-0.8c1.6,0,3.3-0.1,4.9-0.2c0.4,0,0.8,0.3,0.8,0.7
			c0,0.4-0.3,0.8-0.7,0.8C129.9,221.3,128.2,221.4,126.5,221.4C126.5,221.4,126.5,221.4,126.5,221.4z M121.5,221.3
			C121.5,221.3,121.5,221.3,121.5,221.3c-1.7-0.1-3.4-0.3-5.1-0.5c-0.4-0.1-0.7-0.4-0.6-0.8c0.1-0.4,0.4-0.7,0.8-0.6
			c1.6,0.2,3.3,0.4,4.9,0.5c0.4,0,0.7,0.4,0.7,0.8C122.2,221,121.9,221.3,121.5,221.3z M136.4,220.6c-0.4,0-0.7-0.3-0.7-0.6
			c-0.1-0.4,0.2-0.8,0.6-0.9c1.6-0.3,3.2-0.6,4.8-1c0.4-0.1,0.8,0.2,0.9,0.6c0.1,0.4-0.2,0.8-0.6,0.9c-1.6,0.4-3.3,0.7-5,1
			C136.5,220.6,136.5,220.6,136.4,220.6z M111.6,219.8c-0.1,0-0.1,0-0.2,0c-1.6-0.4-3.3-0.8-4.9-1.3c-0.4-0.1-0.6-0.5-0.5-0.9
			s0.5-0.6,0.9-0.5c1.6,0.5,3.2,0.9,4.8,1.3c0.4,0.1,0.7,0.5,0.6,0.9C112.3,219.6,112,219.8,111.6,219.8z M146.2,218.3
			c-0.3,0-0.6-0.2-0.7-0.5c-0.1-0.4,0.1-0.8,0.5-0.9c1.6-0.5,3.1-1.1,4.6-1.7c0.4-0.2,0.8,0,1,0.4s0,0.8-0.4,1
			c-1.6,0.6-3.2,1.2-4.8,1.7C146.3,218.3,146.2,218.3,146.2,218.3z M102,216.9c-0.1,0-0.2,0-0.3-0.1c-1.6-0.6-3.1-1.3-4.6-2
			c-0.4-0.2-0.5-0.6-0.4-1c0.2-0.4,0.6-0.5,1-0.4c1.5,0.7,3,1.4,4.5,2c0.4,0.1,0.6,0.6,0.4,1C102.6,216.8,102.3,216.9,102,216.9z
			 M155.4,214.5c-0.3,0-0.5-0.2-0.7-0.4c-0.2-0.4,0-0.8,0.3-1c1.5-0.7,2.9-1.5,4.3-2.4c0.4-0.2,0.8-0.1,1,0.3c0.2,0.4,0.1,0.8-0.3,1
			c-1.4,0.9-2.9,1.7-4.4,2.4C155.6,214.5,155.5,214.5,155.4,214.5z M93,212.6c-0.1,0-0.3,0-0.4-0.1c-1.5-0.8-2.9-1.7-4.3-2.7
			c-0.3-0.2-0.4-0.7-0.2-1c0.2-0.3,0.7-0.4,1-0.2c1.4,0.9,2.8,1.8,4.2,2.6c0.4,0.2,0.5,0.7,0.3,1C93.6,212.5,93.3,212.6,93,212.6z
			 M164,209.4c-0.2,0-0.5-0.1-0.6-0.3c-0.2-0.3-0.2-0.8,0.2-1c1.3-0.9,2.7-2,3.9-3c0.3-0.3,0.8-0.2,1.1,0.1c0.3,0.3,0.2,0.8-0.1,1.1
			c-1.3,1.1-2.6,2.1-4,3.1C164.3,209.3,164.1,209.4,164,209.4z M84.8,207c-0.2,0-0.3-0.1-0.5-0.2c-1.3-1-2.6-2.2-3.8-3.3
			c-0.3-0.3-0.3-0.8,0-1.1c0.3-0.3,0.8-0.3,1.1,0c1.2,1.1,2.5,2.2,3.7,3.2c0.3,0.3,0.4,0.7,0.1,1.1C85.2,206.9,85,207,84.8,207z
			 M171.7,203c-0.2,0-0.4-0.1-0.5-0.2c-0.3-0.3-0.3-0.8,0-1.1c0.3-0.3,0.6-0.6,0.9-0.9c0.9-0.9,1.7-1.7,2.5-2.6
			c0.3-0.3,0.8-0.3,1.1-0.1c0.3,0.3,0.3,0.8,0.1,1.1c-0.8,0.9-1.7,1.8-2.6,2.7c-0.3,0.3-0.6,0.6-0.9,0.9
			C172.1,202.9,171.9,203,171.7,203z M77.5,200.2c-0.2,0-0.4-0.1-0.6-0.2c-1.1-1.2-2.2-2.5-3.3-3.8c-0.3-0.3-0.2-0.8,0.1-1.1
			s0.8-0.2,1.1,0.1c1,1.3,2.1,2.5,3.2,3.8c0.3,0.3,0.3,0.8,0,1.1C77.9,200.1,77.7,200.2,77.5,200.2z M178.4,195.6
			c-0.2,0-0.3-0.1-0.5-0.2c-0.3-0.3-0.4-0.7-0.1-1.1c1-1.3,2-2.7,2.9-4c0.2-0.3,0.7-0.4,1-0.2c0.3,0.2,0.4,0.7,0.2,1
			c-0.9,1.4-1.9,2.8-2.9,4.1C178.8,195.5,178.6,195.6,178.4,195.6z M71.3,192.4c-0.2,0-0.5-0.1-0.6-0.3c-0.9-1.4-1.8-2.8-2.7-4.3
			c-0.2-0.4-0.1-0.8,0.3-1c0.4-0.2,0.8-0.1,1,0.3c0.8,1.4,1.7,2.8,2.6,4.2c0.2,0.3,0.1,0.8-0.2,1C71.6,192.3,71.4,192.4,71.3,192.4z
			 M183.8,187.2c-0.1,0-0.2,0-0.4-0.1c-0.4-0.2-0.5-0.7-0.3-1c0.8-1.4,1.5-2.9,2.2-4.4c0.2-0.4,0.6-0.5,1-0.4c0.4,0.2,0.5,0.6,0.4,1
			c-0.7,1.5-1.5,3-2.3,4.5C184.4,187.1,184.1,187.2,183.8,187.2z M66.3,183.7c-0.3,0-0.6-0.2-0.7-0.4c-0.7-1.5-1.4-3.1-2-4.7
			c-0.1-0.4,0-0.8,0.4-1c0.4-0.1,0.8,0,1,0.4c0.6,1.5,1.2,3.1,1.9,4.5c0.2,0.4,0,0.8-0.4,1C66.5,183.7,66.4,183.7,66.3,183.7z
			 M188,178.1c-0.1,0-0.2,0-0.3,0c-0.4-0.1-0.6-0.6-0.4-1c0.6-1.5,1.1-3.1,1.5-4.7c0.1-0.4,0.5-0.6,0.9-0.5c0.4,0.1,0.6,0.5,0.5,0.9
			c-0.5,1.6-1,3.2-1.6,4.8C188.6,177.9,188.3,178.1,188,178.1z M62.7,174.3c-0.3,0-0.6-0.2-0.7-0.5c-0.5-1.6-0.9-3.3-1.3-4.9
			c-0.1-0.4,0.2-0.8,0.6-0.9c0.4-0.1,0.8,0.2,0.9,0.6c0.3,1.6,0.8,3.2,1.2,4.8c0.1,0.4-0.1,0.8-0.5,0.9
			C62.9,174.3,62.8,174.3,62.7,174.3z M190.7,168.5c0,0-0.1,0-0.1,0c-0.4-0.1-0.7-0.5-0.6-0.9c0.3-1.6,0.6-3.3,0.8-4.9
			c0.1-0.4,0.4-0.7,0.8-0.7c0.4,0.1,0.7,0.4,0.7,0.8c-0.2,1.7-0.5,3.3-0.8,5C191.3,168.3,191,168.5,190.7,168.5z M60.6,164.6
			c-0.4,0-0.7-0.3-0.7-0.6c-0.2-1.7-0.4-3.4-0.5-5c0-0.4,0.3-0.8,0.7-0.8c0.4,0,0.8,0.3,0.8,0.7c0.1,1.6,0.3,3.3,0.5,4.9
			c0.1,0.4-0.2,0.8-0.6,0.8C60.7,164.6,60.7,164.6,60.6,164.6z M191.9,158.6C191.9,158.6,191.9,158.6,191.9,158.6
			c-0.5,0-0.8-0.4-0.7-0.8c0-1,0.1-2.1,0.1-3.1c0-0.6,0-1.2,0-1.8c0-0.4,0.3-0.8,0.7-0.8c0.4,0,0.8,0.3,0.8,0.7c0,0.6,0,1.2,0,1.9
			c0,1.1,0,2.1-0.1,3.2C192.6,158.3,192.3,158.6,191.9,158.6z M60,154.6C60,154.6,60,154.6,60,154.6c-0.4,0-0.8-0.3-0.8-0.8
			c0-1.7,0.1-3.4,0.3-5c0-0.4,0.4-0.7,0.8-0.7c0.4,0,0.7,0.4,0.7,0.8c-0.1,1.6-0.2,3.3-0.2,4.9C60.7,154.3,60.4,154.6,60,154.6z
			 M191.6,148.6c-0.4,0-0.7-0.3-0.7-0.7c-0.2-1.6-0.4-3.3-0.7-4.9c-0.1-0.4,0.2-0.8,0.6-0.9c0.4-0.1,0.8,0.2,0.9,0.6
			c0.3,1.6,0.5,3.3,0.7,5C192.4,148.2,192.1,148.6,191.6,148.6C191.7,148.6,191.6,148.6,191.6,148.6z M60.9,144.7c0,0-0.1,0-0.1,0
			c-0.4-0.1-0.7-0.5-0.6-0.9c0.3-1.7,0.6-3.3,1-5c0.1-0.4,0.5-0.7,0.9-0.6c0.4,0.1,0.6,0.5,0.6,0.9c-0.4,1.6-0.7,3.2-1,4.8
			C61.5,144.4,61.2,144.7,60.9,144.7z M189.8,138.8c-0.3,0-0.6-0.2-0.7-0.6c-0.4-1.6-0.9-3.2-1.4-4.7c-0.1-0.4,0.1-0.8,0.5-1
			c0.4-0.1,0.8,0.1,1,0.5c0.5,1.6,1,3.2,1.5,4.8c0.1,0.4-0.1,0.8-0.5,0.9C190,138.8,189.9,138.8,189.8,138.8z M63.2,135
			c-0.1,0-0.2,0-0.2,0c-0.4-0.1-0.6-0.6-0.5-0.9c0.5-1.6,1.1-3.2,1.7-4.7c0.2-0.4,0.6-0.6,1-0.4c0.4,0.2,0.6,0.6,0.4,1
			c-0.6,1.5-1.2,3.1-1.7,4.6C63.8,134.8,63.5,135,63.2,135z M186.6,129.3c-0.3,0-0.6-0.2-0.7-0.5c-0.6-1.5-1.4-3-2.1-4.5
			c-0.2-0.4-0.1-0.8,0.3-1c0.4-0.2,0.8-0.1,1,0.3c0.8,1.5,1.5,3,2.2,4.6c0.2,0.4,0,0.8-0.4,1C186.8,129.3,186.7,129.3,186.6,129.3z
			 M67,125.7c-0.1,0-0.2,0-0.3-0.1c-0.4-0.2-0.5-0.6-0.3-1c0.8-1.5,1.6-3,2.4-4.4c0.2-0.4,0.7-0.5,1-0.3c0.4,0.2,0.5,0.7,0.3,1
			c-0.8,1.4-1.7,2.9-2.4,4.3C67.6,125.6,67.3,125.7,67,125.7z M182,120.5c-0.2,0-0.5-0.1-0.6-0.4c-0.9-1.4-1.8-2.8-2.8-4.1
			c-0.2-0.3-0.2-0.8,0.2-1c0.3-0.2,0.8-0.2,1,0.2c1,1.4,2,2.8,2.8,4.2c0.2,0.4,0.1,0.8-0.2,1C182.2,120.4,182.1,120.5,182,120.5z
			 M72.2,117.2c-0.2,0-0.3,0-0.4-0.1c-0.3-0.2-0.4-0.7-0.2-1c1-1.4,2-2.7,3.1-4c0.3-0.3,0.7-0.4,1.1-0.1c0.3,0.3,0.4,0.7,0.1,1.1
			c-1.1,1.3-2.1,2.6-3,3.9C72.6,117.1,72.4,117.2,72.2,117.2z M176,112.4c-0.2,0-0.4-0.1-0.6-0.3c-1.1-1.2-2.2-2.5-3.4-3.6
			c-1.1-1.1-2.3-2.2-3.4-3.2c-0.3-0.3-0.3-0.7-0.1-1.1c0.3-0.3,0.7-0.3,1.1-0.1c1.2,1,2.4,2.1,3.5,3.3c1.2,1.2,2.3,2.4,3.4,3.7
			c0.3,0.3,0.2,0.8-0.1,1.1C176.4,112.4,176.2,112.4,176,112.4z M78.6,109.5c-0.2,0-0.4-0.1-0.5-0.2c-0.3-0.3-0.3-0.8,0-1.1
			c0.2-0.3,0.5-0.5,0.8-0.8c0.9-0.9,1.9-1.9,2.9-2.7c0.3-0.3,0.8-0.2,1.1,0.1c0.3,0.3,0.2,0.8-0.1,1.1c-1,0.9-1.9,1.8-2.8,2.7
			c-0.2,0.2-0.5,0.5-0.7,0.7C79,109.4,78.8,109.5,78.6,109.5z M86,102.9c-0.2,0-0.4-0.1-0.6-0.3c-0.3-0.3-0.2-0.8,0.1-1.1
			c1.3-1,2.7-2,4.1-2.9c0.3-0.2,0.8-0.1,1,0.2c0.2,0.3,0.1,0.8-0.2,1c-1.4,0.9-2.7,1.8-4,2.8C86.4,102.8,86.2,102.9,86,102.9z
			 M165.3,102.4c-0.2,0-0.3,0-0.4-0.1c-1.3-1-2.7-1.9-4.1-2.8c-0.4-0.2-0.5-0.7-0.2-1c0.2-0.4,0.7-0.5,1-0.2
			c1.4,0.9,2.8,1.9,4.2,2.9c0.3,0.2,0.4,0.7,0.2,1C165.7,102.3,165.5,102.4,165.3,102.4z M94.4,97.4c-0.3,0-0.5-0.1-0.7-0.4
			c-0.2-0.4-0.1-0.8,0.3-1c1.5-0.8,3-1.6,4.5-2.2c0.4-0.2,0.8,0,1,0.4c0.2,0.4,0,0.8-0.4,1c-1.5,0.7-3,1.4-4.4,2.2
			C94.7,97.4,94.5,97.4,94.4,97.4z M156.8,97.1c-0.1,0-0.2,0-0.4-0.1c-1.4-0.8-2.9-1.5-4.5-2.1c-0.4-0.2-0.6-0.6-0.4-1
			c0.2-0.4,0.6-0.6,1-0.4c1.5,0.7,3.1,1.4,4.6,2.2c0.4,0.2,0.5,0.6,0.3,1C157.4,96.9,157.1,97.1,156.8,97.1z M103.5,93.3
			c-0.3,0-0.6-0.2-0.7-0.5c-0.1-0.4,0.1-0.8,0.5-1c1.6-0.6,3.2-1.1,4.8-1.5c0.4-0.1,0.8,0.1,0.9,0.5c0.1,0.4-0.1,0.8-0.5,0.9
			c-1.6,0.4-3.2,0.9-4.7,1.5C103.7,93.3,103.6,93.3,103.5,93.3z M147.7,93.1c-0.1,0-0.2,0-0.2,0c-1.5-0.5-3.1-1-4.7-1.4
			c-0.4-0.1-0.6-0.5-0.5-0.9c0.1-0.4,0.5-0.6,0.9-0.5c1.6,0.4,3.2,0.9,4.8,1.5c0.4,0.1,0.6,0.6,0.5,1
			C148.3,92.9,148,93.1,147.7,93.1z M113.2,90.7c-0.4,0-0.7-0.2-0.7-0.6c-0.1-0.4,0.2-0.8,0.6-0.9c1.6-0.3,3.3-0.6,5-0.8
			c0.4,0,0.8,0.2,0.8,0.7c0,0.4-0.2,0.8-0.7,0.8c-1.6,0.2-3.3,0.5-4.9,0.8C113.3,90.7,113.2,90.7,113.2,90.7z M138,90.5
			c0,0-0.1,0-0.1,0c-1.6-0.3-3.3-0.5-4.9-0.7c-0.4,0-0.7-0.4-0.7-0.8c0-0.4,0.4-0.7,0.8-0.7c1.7,0.2,3.4,0.4,5,0.7
			c0.4,0.1,0.7,0.5,0.6,0.9C138.7,90.3,138.4,90.5,138,90.5z M123.1,89.5c-0.4,0-0.7-0.3-0.7-0.7c0-0.4,0.3-0.8,0.7-0.8
			c1.7-0.1,3.4-0.1,5.1,0c0.4,0,0.7,0.4,0.7,0.8s-0.4,0.7-0.8,0.7C126.4,89.4,124.8,89.4,123.1,89.5
			C123.1,89.5,123.1,89.5,123.1,89.5z"/>
		<g>
			<path class="st142" d="M67.4,248.6c-0.4,0-0.7-0.3-0.7-0.7c-0.1-0.4,0.2-0.8,0.6-0.8c1.6-0.2,3-0.7,4.4-1.5c0.4-0.2,0.8-0.1,1,0.2
				c0.2,0.4,0.1,0.8-0.2,1C71,247.8,69.3,248.4,67.4,248.6C67.5,248.6,67.5,248.6,67.4,248.6z M62.5,248.2c-0.1,0-0.1,0-0.2,0
				c-1.7-0.5-3.3-1.4-4.6-2.5c-0.3-0.3-0.3-0.7-0.1-1.1c0.3-0.3,0.7-0.3,1.1-0.1c1.2,1,2.6,1.8,4.1,2.2c0.4,0.1,0.6,0.5,0.5,0.9
				C63.1,248,62.8,248.2,62.5,248.2z M75.7,243.5c-0.1,0-0.3,0-0.4-0.1c-0.3-0.2-0.4-0.7-0.2-1c0.9-1.3,1.5-2.7,1.8-4.3
				c0.1-0.4,0.5-0.7,0.9-0.6c0.4,0.1,0.7,0.5,0.6,0.9c-0.3,1.8-1,3.4-2,4.9C76.2,243.4,75.9,243.5,75.7,243.5z M55.2,241.9
				c-0.3,0-0.6-0.2-0.7-0.4c-0.8-1.6-1.1-3.4-1.2-5.1c0-0.4,0.3-0.8,0.7-0.8c0.4,0,0.8,0.3,0.8,0.7c0,1.6,0.4,3.1,1,4.5
				c0.2,0.4,0,0.8-0.4,1C55.4,241.8,55.3,241.9,55.2,241.9z M77.4,234c-0.3,0-0.6-0.2-0.7-0.6c-0.4-1.5-1.1-2.9-2.1-4.2
				c-0.3-0.3-0.2-0.8,0.1-1.1c0.3-0.3,0.8-0.2,1.1,0.1c1.1,1.4,1.9,3,2.3,4.7c0.1,0.4-0.1,0.8-0.5,0.9C77.5,234,77.5,234,77.4,234z
				 M55,232.2c-0.1,0-0.2,0-0.3-0.1c-0.4-0.2-0.6-0.6-0.4-1c0.6-1.5,1.5-2.8,2.6-3.9c1.3-1.3,2.8-2.2,4.4-2.9c0.4-0.1,0.8,0,1,0.4
				c0.1,0.4,0,0.8-0.4,1c-1.5,0.6-2.8,1.4-3.9,2.5c-1,1-1.8,2.1-2.3,3.4C55.6,232,55.3,232.2,55,232.2z M71.4,226.4
				c-0.1,0-0.2,0-0.3-0.1c-1.4-0.7-2.9-1.1-4.5-1.2c-0.4,0-0.7-0.4-0.7-0.8c0-0.4,0.4-0.7,0.8-0.7c1.8,0.1,3.5,0.6,5.1,1.4
				c0.4,0.2,0.5,0.6,0.3,1C71.9,226.2,71.7,226.4,71.4,226.4z"/>
			<g>
				<path class="st142" d="M65.9,260.6c-1.1,0-2.3-0.1-3.4-0.2c-0.4-0.1-0.7-0.4-0.6-0.8c0.1-0.4,0.4-0.7,0.8-0.6
					c1.6,0.2,3.2,0.3,4.8,0.2c0.4,0,0.8,0.3,0.8,0.7c0,0.4-0.3,0.8-0.7,0.8C67.1,260.6,66.5,260.6,65.9,260.6z M72.5,259.6
					c-0.3,0-0.6-0.2-0.7-0.5c-0.1-0.4,0.1-0.8,0.5-0.9c1.5-0.4,3.1-1.1,4.5-1.8c0.4-0.2,0.8-0.1,1,0.3c0.2,0.4,0.1,0.8-0.3,1
					c-1.5,0.8-3.1,1.5-4.8,1.9C72.6,259.6,72.6,259.6,72.5,259.6z M57.8,259.1c-0.1,0-0.2,0-0.3,0c-1.6-0.6-3.2-1.4-4.6-2.3
					c-0.4-0.2-0.5-0.7-0.2-1c0.2-0.4,0.7-0.5,1-0.2c1.4,0.9,2.8,1.6,4.3,2.1c0.4,0.1,0.6,0.6,0.4,1C58.4,259,58.1,259.1,57.8,259.1z
					 M81.2,254.9c-0.2,0-0.4-0.1-0.6-0.3c-0.3-0.3-0.2-0.8,0.1-1.1c1.2-1,2.4-2.2,3.3-3.5c0.3-0.3,0.7-0.4,1.1-0.1
					c0.3,0.3,0.4,0.7,0.1,1.1c-1,1.4-2.2,2.6-3.6,3.7C81.6,254.9,81.4,254.9,81.2,254.9z M49.4,253.8c-0.2,0-0.4-0.1-0.5-0.2
					c-1.2-1.2-2.3-2.5-3.3-4c-0.2-0.3-0.1-0.8,0.2-1c0.3-0.2,0.8-0.1,1,0.2c0.9,1.3,1.9,2.6,3.1,3.7c0.3,0.3,0.3,0.8,0,1.1
					C49.8,253.8,49.6,253.8,49.4,253.8z M87.3,247.1c-0.1,0-0.2,0-0.3-0.1c-0.4-0.2-0.5-0.6-0.4-1c0.7-1.5,1.2-3,1.6-4.6
					c0.1-0.4,0.5-0.7,0.9-0.6c0.4,0.1,0.7,0.5,0.6,0.9c-0.4,1.7-1,3.3-1.7,4.9C87.8,246.9,87.6,247.1,87.3,247.1z M43.9,245.6
					c-0.3,0-0.6-0.2-0.7-0.5c-0.6-1.6-1.1-3.3-1.4-5c-0.1-0.4,0.2-0.8,0.6-0.9c0.4-0.1,0.8,0.2,0.9,0.6c0.3,1.6,0.7,3.2,1.3,4.7
					c0.2,0.4,0,0.8-0.4,1C44,245.6,44,245.6,43.9,245.6z M89.6,237.4C89.6,237.4,89.6,237.4,89.6,237.4c-0.4,0-0.8-0.4-0.8-0.8
					c0-0.2,0-0.3,0-0.5c0-1.4-0.1-2.9-0.4-4.3c-0.1-0.4,0.2-0.8,0.6-0.9c0.4-0.1,0.8,0.2,0.9,0.6c0.3,1.5,0.4,3,0.4,4.6
					c0,0.2,0,0.4,0,0.6C90.3,237.1,90,237.4,89.6,237.4z M42.2,236.9c-0.4,0-0.8-0.3-0.8-0.8c0-1.7,0.2-3.4,0.5-5.1
					c0.1-0.4,0.5-0.7,0.9-0.6c0.4,0.1,0.7,0.5,0.6,0.9c-0.3,1.6-0.5,3.2-0.5,4.8C43,236.5,42.6,236.9,42.2,236.9z M87.7,227.7
					c-0.3,0-0.6-0.2-0.7-0.5c-0.6-1.5-1.4-2.9-2.3-4.2c-0.2-0.3-0.2-0.8,0.2-1c0.3-0.2,0.8-0.2,1,0.2c1,1.4,1.8,2.9,2.5,4.5
					c0.2,0.4,0,0.8-0.4,1C87.9,227.7,87.8,227.7,87.7,227.7z M44.3,227.2c-0.1,0-0.2,0-0.3-0.1c-0.4-0.2-0.5-0.6-0.4-1
					c0.7-1.6,1.6-3.1,2.6-4.4c0.2-0.3,0.7-0.4,1-0.2c0.3,0.2,0.4,0.7,0.2,1c-1,1.3-1.8,2.7-2.4,4.2C44.8,227,44.6,227.2,44.3,227.2z
					 M82,219.5c-0.2,0-0.4-0.1-0.5-0.2c-1.2-1.1-2.5-2.1-3.9-2.9c-0.4-0.2-0.5-0.7-0.3-1c0.2-0.4,0.7-0.5,1-0.3
					c1.5,0.9,2.9,1.9,4.1,3.1c0.3,0.3,0.3,0.8,0,1.1C82.5,219.5,82.2,219.5,82,219.5z M50.2,219.2c-0.2,0-0.4-0.1-0.6-0.3
					c-0.3-0.3-0.2-0.8,0.1-1.1c1.3-1.1,2.7-2.2,4.2-3c0.4-0.2,0.8-0.1,1,0.3c0.2,0.4,0.1,0.8-0.3,1c-1.4,0.8-2.7,1.7-3.9,2.8
					C50.5,219.1,50.3,219.2,50.2,219.2z M73.5,214.4c-0.1,0-0.2,0-0.2,0c-1.5-0.5-3.1-0.9-4.7-1.1c-0.4,0-0.7-0.4-0.7-0.8
					c0-0.4,0.4-0.7,0.8-0.7c1.7,0.2,3.4,0.6,5,1.1c0.4,0.1,0.6,0.6,0.5,1C74.1,214.2,73.8,214.4,73.5,214.4z M58.8,214.3
					c-0.3,0-0.6-0.2-0.7-0.5c-0.1-0.4,0.1-0.8,0.5-0.9c1.6-0.5,3.3-0.9,5-1c0.4,0,0.8,0.3,0.8,0.7c0,0.4-0.3,0.8-0.7,0.8
					c-1.6,0.1-3.2,0.5-4.7,1C58.9,214.3,58.9,214.3,58.8,214.3z"/>
				<path class="st142" d="M37.1,309.4c-0.4,0-0.7-0.3-0.7-0.7c0-0.4,0.3-0.8,0.7-0.8c1.6,0,3.3-0.2,4.9-0.5c0.4-0.1,0.8,0.2,0.9,0.6
					c0.1,0.4-0.2,0.8-0.6,0.9C40.6,309.2,38.9,309.4,37.1,309.4C37.1,309.4,37.1,309.4,37.1,309.4z M32.1,309.2
					C32.1,309.2,32.1,309.2,32.1,309.2c-1.8-0.2-3.5-0.5-5.1-0.9c-0.4-0.1-0.6-0.5-0.5-0.9s0.5-0.6,0.9-0.5c1.6,0.4,3.2,0.7,4.8,0.9
					c0.4,0,0.7,0.4,0.7,0.8C32.8,308.9,32.5,309.2,32.1,309.2z M47,307.8c-0.3,0-0.6-0.2-0.7-0.5c-0.1-0.4,0.1-0.8,0.5-0.9
					c1.6-0.5,3.1-1.1,4.5-1.8c0.4-0.2,0.8,0,1,0.4s0,0.8-0.4,1c-1.5,0.7-3.1,1.4-4.7,1.9C47.1,307.8,47,307.8,47,307.8z M22.5,306.6
					c-0.1,0-0.2,0-0.3-0.1c-1.6-0.7-3.1-1.4-4.6-2.3c-0.4-0.2-0.5-0.7-0.3-1c0.2-0.4,0.7-0.5,1-0.3c1.4,0.8,2.9,1.6,4.4,2.2
					c0.4,0.2,0.6,0.6,0.4,1C23.1,306.5,22.8,306.6,22.5,306.6z M56,303.5c-0.2,0-0.5-0.1-0.6-0.3c-0.2-0.3-0.1-0.8,0.2-1
					c1.4-0.9,2.7-1.9,3.9-3c0.3-0.3,0.8-0.2,1.1,0.1c0.3,0.3,0.2,0.8-0.1,1.1c-1.3,1.1-2.6,2.2-4,3.1
					C56.2,303.4,56.1,303.5,56,303.5z M14,301.5c-0.2,0-0.3-0.1-0.5-0.2c-1.3-1.1-2.6-2.2-3.7-3.5c-0.3-0.3-0.3-0.8,0-1.1
					c0.3-0.3,0.8-0.3,1.1,0c1.1,1.2,2.3,2.3,3.6,3.3c0.3,0.3,0.4,0.7,0.1,1.1C14.4,301.4,14.2,301.5,14,301.5z M63.4,296.9
					c-0.2,0-0.3-0.1-0.5-0.2c-0.3-0.3-0.4-0.7-0.1-1.1c1.1-1.2,2-2.6,2.9-3.9c0.2-0.3,0.7-0.5,1-0.2c0.4,0.2,0.5,0.7,0.2,1
					c-0.9,1.4-1.9,2.8-3,4.1C63.8,296.8,63.6,296.9,63.4,296.9z M7.2,294.2c-0.2,0-0.5-0.1-0.6-0.3c-1-1.4-1.9-2.9-2.6-4.4
					c-0.2-0.4,0-0.8,0.3-1c0.4-0.2,0.8,0,1,0.3c0.7,1.4,1.6,2.9,2.5,4.2c0.2,0.3,0.2,0.8-0.2,1C7.5,294.2,7.3,294.2,7.2,294.2z
					 M68.7,288.4c-0.1,0-0.2,0-0.3-0.1c-0.4-0.2-0.5-0.6-0.4-1c0.7-1.5,1.2-3,1.7-4.6c0.1-0.4,0.5-0.6,0.9-0.5
					c0.4,0.1,0.6,0.5,0.5,0.9c-0.5,1.6-1.1,3.2-1.8,4.8C69.3,288.3,69,288.4,68.7,288.4z M2.6,285.4c-0.3,0-0.6-0.2-0.7-0.5
					c-0.5-1.6-1-3.3-1.3-4.9c-0.1-0.4,0.2-0.8,0.6-0.9c0.4-0.1,0.8,0.2,0.9,0.6c0.3,1.6,0.7,3.2,1.2,4.7c0.1,0.4-0.1,0.8-0.5,1
					C2.8,285.3,2.7,285.4,2.6,285.4z M71.5,278.9c0,0-0.1,0-0.1,0c-0.4-0.1-0.7-0.4-0.6-0.8c0.2-1.6,0.3-3.2,0.3-4.9
					c0-1.1-0.1-2.2-0.2-3.3c0-0.4,0.3-0.8,0.7-0.8c0.4,0,0.8,0.3,0.8,0.7c0.1,1.1,0.2,2.3,0.2,3.4c0,1.7-0.1,3.4-0.4,5.1
					C72.2,278.6,71.8,278.9,71.5,278.9z M0.8,275.6c-0.4,0-0.7-0.3-0.7-0.7c0-0.6,0-1.1,0-1.7c0-1.1,0.1-2.3,0.2-3.4
					c0-0.4,0.4-0.7,0.8-0.7c0.4,0,0.7,0.4,0.7,0.8c-0.1,1.1-0.1,2.2-0.1,3.2c0,0.6,0,1.1,0,1.7C1.6,275.2,1.2,275.5,0.8,275.6
					C0.8,275.6,0.8,275.6,0.8,275.6z M1.7,265.6c-0.1,0-0.1,0-0.2,0c-0.4-0.1-0.7-0.5-0.6-0.9c0.4-1.7,0.9-3.3,1.5-4.9
					c0.2-0.4,0.6-0.6,1-0.4c0.4,0.2,0.6,0.6,0.4,1c-0.6,1.5-1.1,3.1-1.5,4.7C2.4,265.4,2,265.6,1.7,265.6z M70.9,265.6
					c-0.3,0-0.6-0.2-0.7-0.6c-0.4-1.6-0.9-3.1-1.5-4.7c-0.2-0.4,0-0.8,0.4-1c0.4-0.2,0.8,0,1,0.4c0.6,1.6,1.1,3.2,1.5,4.9
					c0.1,0.4-0.2,0.8-0.6,0.9C71,265.6,70.9,265.6,70.9,265.6z M5.4,256.4c-0.1,0-0.3,0-0.4-0.1c-0.4-0.2-0.5-0.7-0.3-1
					c0.8-1.5,1.8-2.9,2.8-4.2c0.3-0.3,0.7-0.4,1.1-0.1c0.3,0.3,0.4,0.7,0.1,1.1c-1,1.3-1.9,2.7-2.7,4.1
					C5.9,256.2,5.6,256.4,5.4,256.4z M67.2,256.3c-0.3,0-0.5-0.1-0.7-0.4c-0.8-1.4-1.7-2.8-2.7-4.1c-0.3-0.3-0.2-0.8,0.1-1.1
					c0.3-0.3,0.8-0.2,1.1,0.1c1,1.3,2,2.8,2.8,4.2c0.2,0.4,0.1,0.8-0.3,1C67.4,256.3,67.3,256.3,67.2,256.3z M11.4,248.5
					c-0.2,0-0.4-0.1-0.5-0.2c-0.3-0.3-0.3-0.8,0-1.1c1.2-1.2,2.5-2.3,3.9-3.3c0.3-0.2,0.8-0.2,1,0.2c0.2,0.3,0.2,0.8-0.2,1
					c-1.3,1-2.6,2-3.7,3.2C11.8,248.4,11.6,248.5,11.4,248.5z M61.1,248.4c-0.2,0-0.4-0.1-0.5-0.2c-1.2-1.1-2.4-2.2-3.7-3.2
					c-0.3-0.2-0.4-0.7-0.2-1c0.2-0.3,0.7-0.4,1-0.2c1.4,1,2.7,2.1,3.9,3.3c0.3,0.3,0.3,0.8,0,1.1C61.5,248.4,61.3,248.4,61.1,248.4z
					 M19.5,242.6c-0.3,0-0.5-0.1-0.7-0.4c-0.2-0.4-0.1-0.8,0.3-1c1.5-0.8,3.1-1.5,4.6-2.1c0.4-0.1,0.8,0.1,1,0.4
					c0.1,0.4-0.1,0.8-0.4,1c-1.5,0.6-3,1.2-4.5,2C19.7,242.5,19.6,242.6,19.5,242.6z M53.1,242.5c-0.1,0-0.2,0-0.4-0.1
					c-1.4-0.8-2.9-1.4-4.5-2c-0.4-0.1-0.6-0.6-0.4-1c0.1-0.4,0.6-0.6,1-0.4c1.6,0.6,3.2,1.3,4.7,2.1c0.4,0.2,0.5,0.7,0.3,1
					C53.6,242.4,53.3,242.5,53.1,242.5z M28.8,239.1c-0.3,0-0.7-0.2-0.7-0.6c-0.1-0.4,0.2-0.8,0.6-0.9c1.7-0.4,3.4-0.6,5-0.7
					c0.4,0,0.8,0.3,0.8,0.7c0,0.4-0.3,0.8-0.7,0.8c-1.6,0.1-3.3,0.3-4.8,0.7C28.9,239.1,28.9,239.1,28.8,239.1z M43.7,239.1
					c-0.1,0-0.1,0-0.2,0c-1.6-0.3-3.2-0.6-4.8-0.7c-0.4,0-0.7-0.4-0.7-0.8c0-0.4,0.4-0.7,0.8-0.7c1.7,0.1,3.4,0.4,5.1,0.7
					c0.4,0.1,0.7,0.5,0.6,0.9C44.4,238.9,44,239.1,43.7,239.1z"/>
				<path class="st142" d="M36.3,297.6c-1.1,0-2.3-0.1-3.4-0.2c-0.4-0.1-0.7-0.4-0.6-0.8c0.1-0.4,0.4-0.7,0.8-0.6
					c1.6,0.2,3.2,0.3,4.8,0.2c0.4,0,0.8,0.3,0.8,0.7c0,0.4-0.3,0.8-0.7,0.8C37.5,297.5,36.9,297.6,36.3,297.6z M42.9,296.6
					c-0.3,0-0.6-0.2-0.7-0.5c-0.1-0.4,0.1-0.8,0.5-0.9c1.5-0.4,3.1-1.1,4.5-1.8c0.4-0.2,0.8-0.1,1,0.3c0.2,0.4,0.1,0.8-0.3,1
					c-1.5,0.8-3.1,1.5-4.8,1.9C43,296.6,43,296.6,42.9,296.6z M28.1,296.1c-0.1,0-0.2,0-0.3,0c-1.6-0.6-3.2-1.4-4.6-2.3
					c-0.4-0.2-0.5-0.7-0.2-1c0.2-0.4,0.7-0.5,1-0.2c1.4,0.9,2.8,1.6,4.3,2.1c0.4,0.1,0.6,0.6,0.4,1
					C28.7,295.9,28.5,296.1,28.1,296.1z M51.6,291.9c-0.2,0-0.4-0.1-0.6-0.3c-0.3-0.3-0.2-0.8,0.1-1.1c1.2-1,2.4-2.2,3.3-3.5
					c0.3-0.3,0.7-0.4,1.1-0.1s0.4,0.7,0.1,1.1c-1,1.4-2.2,2.6-3.6,3.7C52,291.9,51.8,291.9,51.6,291.9z M19.8,290.8
					c-0.2,0-0.4-0.1-0.5-0.2c-1.2-1.2-2.3-2.5-3.3-4c-0.2-0.3-0.1-0.8,0.2-1c0.3-0.2,0.8-0.1,1,0.2c0.9,1.3,1.9,2.6,3.1,3.7
					c0.3,0.3,0.3,0.8,0,1.1C20.1,290.8,19.9,290.8,19.8,290.8z M57.7,284.1c-0.1,0-0.2,0-0.3-0.1c-0.4-0.2-0.5-0.6-0.4-1
					c0.7-1.5,1.2-3,1.6-4.6c0.1-0.4,0.5-0.6,0.9-0.6c0.4,0.1,0.7,0.5,0.6,0.9c-0.4,1.7-1,3.3-1.7,4.9
					C58.2,283.9,58,284.1,57.7,284.1z M14.2,282.6c-0.3,0-0.6-0.2-0.7-0.5c-0.6-1.6-1.1-3.3-1.4-5c-0.1-0.4,0.2-0.8,0.6-0.9
					c0.4-0.1,0.8,0.2,0.9,0.6c0.3,1.6,0.7,3.2,1.3,4.7c0.2,0.4,0,0.8-0.4,1C14.4,282.6,14.3,282.6,14.2,282.6z M60,274.4
					C60,274.4,60,274.4,60,274.4c-0.4,0-0.8-0.4-0.8-0.8c0-0.2,0-0.3,0-0.5c0-1.4-0.1-2.9-0.4-4.3c-0.1-0.4,0.2-0.8,0.6-0.9
					c0.4-0.1,0.8,0.2,0.9,0.6c0.3,1.5,0.4,3,0.4,4.6c0,0.2,0,0.4,0,0.6C60.7,274.1,60.4,274.4,60,274.4z M12.6,273.9
					c-0.4,0-0.8-0.3-0.8-0.8c0-1.7,0.2-3.4,0.5-5.1c0.1-0.4,0.5-0.7,0.9-0.6c0.4,0.1,0.7,0.5,0.6,0.9c-0.3,1.6-0.5,3.2-0.5,4.8
					C13.3,273.5,13,273.9,12.6,273.9z M58.1,264.7c-0.3,0-0.6-0.2-0.7-0.5c-0.6-1.5-1.4-2.9-2.3-4.2c-0.2-0.3-0.2-0.8,0.2-1
					c0.3-0.2,0.8-0.2,1,0.2c1,1.4,1.8,2.9,2.5,4.5c0.2,0.4,0,0.8-0.4,1C58.3,264.6,58.2,264.7,58.1,264.7z M14.7,264.2
					c-0.1,0-0.2,0-0.3-0.1c-0.4-0.2-0.5-0.6-0.4-1c0.7-1.6,1.6-3.1,2.6-4.4c0.2-0.3,0.7-0.4,1-0.2c0.3,0.2,0.4,0.7,0.2,1
					c-1,1.3-1.8,2.7-2.4,4.2C15.2,264,15,264.2,14.7,264.2z M52.4,256.5c-0.2,0-0.4-0.1-0.5-0.2c-1.2-1.1-2.5-2.1-3.9-2.9
					c-0.4-0.2-0.5-0.7-0.3-1c0.2-0.4,0.7-0.5,1-0.3c1.5,0.9,2.9,1.9,4.1,3.1c0.3,0.3,0.3,0.8,0,1.1
					C52.8,256.5,52.6,256.5,52.4,256.5z M20.5,256.2c-0.2,0-0.4-0.1-0.6-0.3c-0.3-0.3-0.2-0.8,0.1-1.1c1.3-1.1,2.7-2.2,4.2-3
					c0.4-0.2,0.8-0.1,1,0.3c0.2,0.4,0.1,0.8-0.3,1c-1.4,0.8-2.7,1.7-3.9,2.8C20.9,256.1,20.7,256.2,20.5,256.2z M43.9,251.4
					c-0.1,0-0.2,0-0.2,0c-1.5-0.5-3.1-0.9-4.7-1.1c-0.4,0-0.7-0.4-0.7-0.8c0-0.4,0.4-0.7,0.8-0.7c1.7,0.2,3.4,0.6,5,1.1
					c0.4,0.1,0.6,0.6,0.5,1C44.5,251.2,44.2,251.4,43.9,251.4z M29.2,251.3c-0.3,0-0.6-0.2-0.7-0.5c-0.1-0.4,0.1-0.8,0.5-0.9
					c1.6-0.5,3.3-0.9,5-1c0.4,0,0.8,0.3,0.8,0.7c0,0.4-0.3,0.8-0.7,0.8c-1.6,0.1-3.2,0.5-4.7,1C29.3,251.3,29.2,251.3,29.2,251.3z"
					/>
			</g>
		</g>
		<g>
			<path class="st142" d="M37.1,72.5c-0.4,0-0.7-0.3-0.7-0.7c0-0.4,0.3-0.8,0.7-0.8c1.6,0,3.3-0.2,4.9-0.5c0.4-0.1,0.8,0.2,0.9,0.6
				c0.1,0.4-0.2,0.8-0.6,0.9C40.6,72.3,38.9,72.4,37.1,72.5C37.1,72.5,37.1,72.5,37.1,72.5z M32.1,72.3
				C32.1,72.3,32.1,72.3,32.1,72.3c-1.8-0.2-3.5-0.5-5.1-0.9c-0.4-0.1-0.6-0.5-0.5-0.9s0.5-0.6,0.9-0.5c1.6,0.4,3.2,0.7,4.8,0.9
				c0.4,0,0.7,0.4,0.7,0.8C32.8,72,32.5,72.3,32.1,72.3z M47,70.9c-0.3,0-0.6-0.2-0.7-0.5c-0.1-0.4,0.1-0.8,0.5-0.9
				c1.6-0.5,3.1-1.1,4.5-1.8c0.4-0.2,0.8,0,1,0.4c0.2,0.4,0,0.8-0.4,1c-1.5,0.7-3.1,1.4-4.7,1.9C47.1,70.9,47,70.9,47,70.9z
				 M22.5,69.7c-0.1,0-0.2,0-0.3-0.1c-1.6-0.7-3.1-1.4-4.6-2.3c-0.4-0.2-0.5-0.7-0.3-1c0.2-0.4,0.7-0.5,1-0.3
				c1.4,0.8,2.9,1.6,4.4,2.2c0.4,0.2,0.6,0.6,0.4,1C23.1,69.5,22.8,69.7,22.5,69.7z M56,66.6c-0.2,0-0.5-0.1-0.6-0.3
				c-0.2-0.3-0.1-0.8,0.2-1c1.4-0.9,2.7-1.9,3.9-3c0.3-0.3,0.8-0.2,1.1,0.1c0.3,0.3,0.2,0.8-0.1,1.1c-1.3,1.1-2.6,2.2-4,3.1
				C56.2,66.5,56.1,66.6,56,66.6z M14,64.6c-0.2,0-0.3-0.1-0.5-0.2c-1.3-1.1-2.6-2.2-3.7-3.5c-0.3-0.3-0.3-0.8,0-1.1
				c0.3-0.3,0.8-0.3,1.1,0c1.1,1.2,2.3,2.3,3.6,3.3c0.3,0.3,0.4,0.7,0.1,1.1C14.4,64.5,14.2,64.6,14,64.6z M63.4,59.9
				c-0.2,0-0.3-0.1-0.5-0.2c-0.3-0.3-0.4-0.7-0.1-1.1c1.1-1.2,2-2.6,2.9-3.9c0.2-0.3,0.7-0.5,1-0.2c0.4,0.2,0.5,0.7,0.2,1
				c-0.9,1.4-1.9,2.8-3,4.1C63.8,59.9,63.6,59.9,63.4,59.9z M7.2,57.3c-0.2,0-0.5-0.1-0.6-0.3c-1-1.4-1.9-2.9-2.6-4.4
				c-0.2-0.4,0-0.8,0.3-1c0.4-0.2,0.8,0,1,0.3c0.7,1.4,1.6,2.9,2.5,4.2c0.2,0.3,0.2,0.8-0.2,1C7.5,57.3,7.3,57.3,7.2,57.3z
				 M68.7,51.5c-0.1,0-0.2,0-0.3-0.1c-0.4-0.2-0.5-0.6-0.4-1c0.7-1.5,1.2-3,1.7-4.6c0.1-0.4,0.5-0.6,0.9-0.5
				c0.4,0.1,0.6,0.5,0.5,0.9c-0.5,1.6-1.1,3.2-1.8,4.8C69.3,51.3,69,51.5,68.7,51.5z M2.6,48.4c-0.3,0-0.6-0.2-0.7-0.5
				c-0.5-1.6-1-3.3-1.3-4.9c-0.1-0.4,0.2-0.8,0.6-0.9C1.6,42,2,42.3,2.1,42.7c0.3,1.6,0.7,3.2,1.2,4.7c0.1,0.4-0.1,0.8-0.5,1
				C2.8,48.4,2.7,48.4,2.6,48.4z M71.5,41.9c0,0-0.1,0-0.1,0c-0.4-0.1-0.7-0.4-0.6-0.8c0.2-1.6,0.3-3.2,0.3-4.9
				c0-1.1-0.1-2.2-0.2-3.3c0-0.4,0.3-0.8,0.7-0.8c0.4,0,0.8,0.3,0.8,0.7c0.1,1.1,0.2,2.3,0.2,3.4c0,1.7-0.1,3.4-0.4,5.1
				C72.2,41.7,71.8,41.9,71.5,41.9z M0.8,38.6c-0.4,0-0.7-0.3-0.7-0.7c0-0.6,0-1.1,0-1.7c0-1.1,0.1-2.3,0.2-3.4
				c0-0.4,0.4-0.7,0.8-0.7c0.4,0,0.7,0.4,0.7,0.8c-0.1,1.1-0.1,2.2-0.1,3.2c0,0.6,0,1.1,0,1.7C1.6,38.3,1.2,38.6,0.8,38.6
				C0.8,38.6,0.8,38.6,0.8,38.6z M1.7,28.7c-0.1,0-0.1,0-0.2,0c-0.4-0.1-0.7-0.5-0.6-0.9c0.4-1.7,0.9-3.3,1.5-4.9
				c0.2-0.4,0.6-0.6,1-0.4c0.4,0.2,0.6,0.6,0.4,1c-0.6,1.5-1.1,3.1-1.5,4.7C2.4,28.5,2,28.7,1.7,28.7z M70.9,28.7
				c-0.3,0-0.6-0.2-0.7-0.6c-0.4-1.6-0.9-3.1-1.5-4.7c-0.2-0.4,0-0.8,0.4-1c0.4-0.2,0.8,0,1,0.4c0.6,1.6,1.1,3.2,1.5,4.9
				c0.1,0.4-0.2,0.8-0.6,0.9C71,28.7,70.9,28.7,70.9,28.7z M5.4,19.4c-0.1,0-0.3,0-0.4-0.1c-0.4-0.2-0.5-0.7-0.3-1
				c0.8-1.5,1.8-2.9,2.8-4.2c0.3-0.3,0.7-0.4,1.1-0.1C8.9,14.2,9,14.7,8.7,15c-1,1.3-1.9,2.7-2.7,4.1C5.9,19.3,5.6,19.4,5.4,19.4z
				 M67.2,19.4c-0.3,0-0.5-0.1-0.7-0.4c-0.8-1.4-1.7-2.8-2.7-4.1c-0.3-0.3-0.2-0.8,0.1-1.1c0.3-0.3,0.8-0.2,1.1,0.1
				c1,1.3,2,2.8,2.8,4.2c0.2,0.4,0.1,0.8-0.3,1C67.4,19.4,67.3,19.4,67.2,19.4z M11.4,11.5c-0.2,0-0.4-0.1-0.5-0.2
				c-0.3-0.3-0.3-0.8,0-1.1C12.1,9.1,13.4,8,14.8,7c0.3-0.2,0.8-0.2,1,0.2c0.2,0.3,0.2,0.8-0.2,1c-1.3,1-2.6,2-3.7,3.2
				C11.8,11.5,11.6,11.5,11.4,11.5z M61.1,11.5c-0.2,0-0.4-0.1-0.5-0.2c-1.2-1.1-2.4-2.2-3.7-3.2c-0.3-0.2-0.4-0.7-0.2-1
				c0.2-0.3,0.7-0.4,1-0.2c1.4,1,2.7,2.1,3.9,3.3c0.3,0.3,0.3,0.8,0,1.1C61.5,11.4,61.3,11.5,61.1,11.5z M19.5,5.6
				c-0.3,0-0.5-0.1-0.7-0.4c-0.2-0.4-0.1-0.8,0.3-1c1.5-0.8,3.1-1.5,4.6-2.1c0.4-0.1,0.8,0.1,1,0.4c0.1,0.4-0.1,0.8-0.4,1
				c-1.5,0.6-3,1.2-4.5,2C19.7,5.6,19.6,5.6,19.5,5.6z M53.1,5.6c-0.1,0-0.2,0-0.4-0.1c-1.4-0.8-2.9-1.4-4.5-2
				c-0.4-0.1-0.6-0.6-0.4-1c0.1-0.4,0.6-0.6,1-0.4c1.6,0.6,3.2,1.3,4.7,2.1c0.4,0.2,0.5,0.7,0.3,1C53.6,5.5,53.3,5.6,53.1,5.6z
				 M28.8,2.2c-0.3,0-0.7-0.2-0.7-0.6c-0.1-0.4,0.2-0.8,0.6-0.9c1.7-0.4,3.4-0.6,5-0.7c0.4,0,0.8,0.3,0.8,0.7c0,0.4-0.3,0.8-0.7,0.8
				c-1.6,0.1-3.3,0.3-4.8,0.7C28.9,2.2,28.9,2.2,28.8,2.2z M43.7,2.2c-0.1,0-0.1,0-0.2,0c-1.6-0.3-3.2-0.6-4.8-0.7
				c-0.4,0-0.7-0.4-0.7-0.8C38,0.3,38.4,0,38.8,0c1.7,0.1,3.4,0.4,5.1,0.7c0.4,0.1,0.7,0.5,0.6,0.9C44.4,1.9,44,2.2,43.7,2.2z"/>
			<path class="st142" d="M36.3,60.6c-1.1,0-2.3-0.1-3.4-0.2c-0.4-0.1-0.7-0.4-0.6-0.8c0.1-0.4,0.4-0.7,0.8-0.6
				c1.6,0.2,3.2,0.3,4.8,0.2c0.4,0,0.8,0.3,0.8,0.7c0,0.4-0.3,0.8-0.7,0.8C37.5,60.6,36.9,60.6,36.3,60.6z M42.9,59.7
				c-0.3,0-0.6-0.2-0.7-0.5c-0.1-0.4,0.1-0.8,0.5-0.9c1.5-0.4,3.1-1.1,4.5-1.8c0.4-0.2,0.8-0.1,1,0.3c0.2,0.4,0.1,0.8-0.3,1
				c-1.5,0.8-3.1,1.5-4.8,1.9C43,59.7,43,59.7,42.9,59.7z M28.1,59.2c-0.1,0-0.2,0-0.3,0c-1.6-0.6-3.2-1.4-4.6-2.3
				c-0.4-0.2-0.5-0.7-0.2-1c0.2-0.4,0.7-0.5,1-0.2c1.4,0.9,2.8,1.6,4.3,2.1c0.4,0.1,0.6,0.6,0.4,1C28.7,59,28.5,59.2,28.1,59.2z
				 M51.6,55c-0.2,0-0.4-0.1-0.6-0.3c-0.3-0.3-0.2-0.8,0.1-1.1c1.2-1,2.4-2.2,3.3-3.5c0.3-0.3,0.7-0.4,1.1-0.1
				c0.3,0.3,0.4,0.7,0.1,1.1c-1,1.4-2.2,2.6-3.6,3.7C52,55,51.8,55,51.6,55z M19.8,53.9c-0.2,0-0.4-0.1-0.5-0.2
				c-1.2-1.2-2.3-2.5-3.3-4c-0.2-0.3-0.1-0.8,0.2-1c0.3-0.2,0.8-0.1,1,0.2c0.9,1.3,1.9,2.6,3.1,3.7c0.3,0.3,0.3,0.8,0,1.1
				C20.1,53.8,19.9,53.9,19.8,53.9z M57.7,47.1c-0.1,0-0.2,0-0.3-0.1c-0.4-0.2-0.5-0.6-0.4-1c0.7-1.5,1.2-3,1.6-4.6
				c0.1-0.4,0.5-0.6,0.9-0.6c0.4,0.1,0.7,0.5,0.6,0.9c-0.4,1.7-1,3.3-1.7,4.9C58.2,47,58,47.1,57.7,47.1z M14.2,45.7
				c-0.3,0-0.6-0.2-0.7-0.5c-0.6-1.6-1.1-3.3-1.4-5c-0.1-0.4,0.2-0.8,0.6-0.9c0.4-0.1,0.8,0.2,0.9,0.6c0.3,1.6,0.7,3.2,1.3,4.7
				c0.2,0.4,0,0.8-0.4,1C14.4,45.6,14.3,45.7,14.2,45.7z M60,37.5C60,37.5,60,37.5,60,37.5c-0.4,0-0.8-0.4-0.8-0.8
				c0-0.2,0-0.3,0-0.5c0-1.4-0.1-2.9-0.4-4.3c-0.1-0.4,0.2-0.8,0.6-0.9c0.4-0.1,0.8,0.2,0.9,0.6c0.3,1.5,0.4,3,0.4,4.6
				c0,0.2,0,0.4,0,0.6C60.7,37.2,60.4,37.5,60,37.5z M12.6,37c-0.4,0-0.8-0.3-0.8-0.8c0-1.7,0.2-3.4,0.5-5.1
				c0.1-0.4,0.5-0.7,0.9-0.6c0.4,0.1,0.7,0.5,0.6,0.9c-0.3,1.6-0.5,3.2-0.5,4.8C13.3,36.6,13,37,12.6,37z M58.1,27.7
				c-0.3,0-0.6-0.2-0.7-0.5c-0.6-1.5-1.4-2.9-2.3-4.2c-0.2-0.3-0.2-0.8,0.2-1c0.3-0.2,0.8-0.2,1,0.2c1,1.4,1.8,2.9,2.5,4.5
				c0.2,0.4,0,0.8-0.4,1C58.3,27.7,58.2,27.7,58.1,27.7z M14.7,27.3c-0.1,0-0.2,0-0.3-0.1c-0.4-0.2-0.5-0.6-0.4-1
				c0.7-1.6,1.6-3.1,2.6-4.4c0.2-0.3,0.7-0.4,1-0.2c0.3,0.2,0.4,0.7,0.2,1c-1,1.3-1.8,2.7-2.4,4.2C15.2,27.1,15,27.3,14.7,27.3z
				 M52.4,19.6c-0.2,0-0.4-0.1-0.5-0.2c-1.2-1.1-2.5-2.1-3.9-2.9c-0.4-0.2-0.5-0.7-0.3-1c0.2-0.4,0.7-0.5,1-0.3
				c1.5,0.9,2.9,1.9,4.1,3.1c0.3,0.3,0.3,0.8,0,1.1C52.8,19.5,52.6,19.6,52.4,19.6z M20.5,19.3c-0.2,0-0.4-0.1-0.6-0.3
				c-0.3-0.3-0.2-0.8,0.1-1.1c1.3-1.1,2.7-2.2,4.2-3c0.4-0.2,0.8-0.1,1,0.3c0.2,0.4,0.1,0.8-0.3,1C23.6,17,22.2,18,21,19.1
				C20.9,19.2,20.7,19.3,20.5,19.3z M43.9,14.5c-0.1,0-0.2,0-0.2,0c-1.5-0.5-3.1-0.9-4.7-1.1c-0.4,0-0.7-0.4-0.7-0.8
				c0-0.4,0.4-0.7,0.8-0.7c1.7,0.2,3.4,0.6,5,1.1c0.4,0.1,0.6,0.6,0.5,1C44.5,14.3,44.2,14.5,43.9,14.5z M29.2,14.4
				c-0.3,0-0.6-0.2-0.7-0.5c-0.1-0.4,0.1-0.8,0.5-0.9c1.6-0.5,3.3-0.9,5-1c0.4,0,0.8,0.3,0.8,0.7c0,0.4-0.3,0.8-0.7,0.8
				c-1.6,0.1-3.2,0.5-4.7,1C29.3,14.3,29.2,14.4,29.2,14.4z"/>
		</g>
	</g>
</g>
</svg>
