<svg class="c-svg-mail" version="1.1" id="Calque_1" xmlns="http://www.w3.org/2000/svg" xmlns:xlink="http://www.w3.org/1999/xlink" x="0px" y="0px"
	 viewBox="0 0 375.9 534.2" style="enable-background:new 0 0 375.9 534.2;" xml:space="preserve">
<style type="text/css">
	.st20{fill:#FECE2F;}
	.st21{fill:#FFFFFF;}
	.st22{fill:#1A1A1A;}
</style>
<g>
	<polygon class="st20" points="79.8,411.2 291.8,391.6 295.6,512.6 83.6,531.2 	"/>
	<path class="st21" d="M250.6,395.4L79.8,411.2l2,64C151.7,478.8,219.4,424.6,250.6,395.4z"/>
	<path class="st22" d="M296.6,515.4c0.1,0,0.3-0.1,0.4-0.2c0,0,0,0,0.1,0c0.3-0.1,0.5-0.3,0.8-0.5c0.7-0.7,1-1.7,0.8-2.6l-3.8-120
		c0.1-0.4,0-0.8-0.1-1.2c-0.1-0.6-0.5-1.2-0.9-1.6c-0.1-0.1-0.2-0.1-0.3-0.2l-91.4-87c-1.2-1.1-2.9-1.1-4.1-0.1L78.2,408.7
		c-0.1,0.1-0.2,0.2-0.4,0.3c-0.1,0.1-0.1,0.1-0.2,0.2c-0.5,0.6-0.8,1.3-0.8,2.1l3.8,120c0,0.1,0,0.2,0,0.3l0,0c0,0.4,0.2,0.7,0.4,1
		l0.1,0.1c0.1,0.1,0.1,0.2,0.2,0.3c0.2,0.2,0.3,0.4,0.5,0.6c0.4,0.3,0.8,0.5,1.3,0.5l0,0c0.2,0,0.3,0.1,0.5,0.1c0.1,0,0.1,0,0.3,0
		l212-18.6c0.1,0,0.2,0,0.2,0c0.1,0,0.1,0,0.2,0C296.4,515.5,296.5,515.4,296.6,515.4z M180.1,471.7c-4.8-3.3-18.8-12.8-34.3-21.9
		c-0.8-0.4-1.5-0.9-2.3-1.3l-54.8-35l193-17.9L180.1,471.7z M84.5,464.6c0.1-0.3,0.1-0.6,0.1-0.9l-0.2-5.1c0-2.6,0.1-5.9,0.5-9.3
		c0.6-4.9,2.4-13.2,7.5-14.1c9-1.6,27.6,6.9,45.7,17.1l-51.9,70.2L84.5,464.6z M143.3,455.4l35.2,22.5c0.5,0.3,1,0.5,1.6,0.5
		s1.2-0.2,1.7-0.5l40.3-30.3l66.5,62.5L89.9,527.6L143.3,455.4z M227.6,444.6l18.3-14c1.3-0.9,2.7-1.9,4.1-2.8
		c15.5-10.1,27.6-14.3,33.9-11.9c3.2,1.1,5.1,4.1,5.8,9c0,0.2,0.1,0.3,0.1,0.5l2.5,80.1L227.6,444.6z M199.9,308.3l85,80.9
		L88.8,407.4L199.9,308.3z"/>
</g>
<g>
	<path class="st21" d="M345.8,100.7c-9-8.3-30-13.1-47.3-2.1s-36.3,25.2-56.8,49.9c0,0-41.3-24.8-64.9-61.8s-30.9-47.8-45.9-81.4
		c0,0-26.1,69-0.9,130c0,0-89.6-49.8-114.8-73.7c0,0-9.6,41.8,1.9,84.8l33.8,5.8l-26.2,12c0,0,15.1,35.7,49.4,56.1
		s65.8,18.6,65.8,18.6l-116.2,77c0,0-27,12.6-19.9,22.2c7.2,9.5,32.5,38.6,75.7,24.6l70.9-68.7c0,0,53.7-2.1,77.4-6.7
		c23.7-4.7,41.3-20.9,52.8-40.6C292,227,302.7,207,302.4,193c-0.3-14,10.1-40,18.8-43.3c8.7-3.3,29-7,31-25.6
		S345.8,100.7,345.8,100.7z"/>
	<path class="st22" d="M325.5,109.4c-5.1,0-9.2,4.1-9.2,9.2s4.1,9.2,9.2,9.2s9.2-4.1,9.2-9.2S330.6,109.4,325.5,109.4z"/>
	<path class="st22" d="M374.8,133.3L355,115.5l0,0c-0.6-5.5-2.6-10.5-5.9-14.6c-7.8-9.7-21.8-13.3-39.5-10.3
		c-24,4.2-52.3,33.1-70.2,54.4l-4.1-2.4C218.8,131,164.2,87.3,132.9,2c-0.4-1.2-1.5-2-2.8-2s-2.4,0.8-2.8,2
		c-0.3,0.8-6.8,19.4-10.4,45.2c-3,22.3-4.2,53.9,6.2,82.2C67.8,98.7,17.8,60.2,17,59.6c-0.8-0.7-1.8-0.8-2.8-0.5
		c-0.9,0.3-1.7,1.1-1.9,2.1c-0.4,1.6-9.5,40.2,1.9,86.2c0.3,1.1,1.2,2,2.4,2.2l25.6,4.2l-18.6,7.8c-1.5,0.6-2.2,2.2-1.7,3.7
		c6,17.5,22.4,36.3,35.2,46.5c26.3,20.7,52.6,28,73.6,29.7l-126,83.9c-4.6,3-6.1,9.1-3.4,13.9c8.7,15.7,24.5,25.6,45.5,28.8
		c5.4,0.8,10.4,1.1,14.7,1.1c7.1,0,12.3-0.7,13.9-1l0,0c0.5,0,1.1-0.1,1.6-0.4l4.2-2.7c28.4-17.7,52.2-40.7,71-68.3
		c1.9,0,3.8,0,6,0.1c11,0,25-0.4,39.5-1.8l-0.7,4.5c-4.9,0-8.8-1.8-8.9-1.9c-1.5-0.8-3.3-0.2-4,1.3c-0.8,1.5-0.2,3.3,1.3,4
		c0.2,0.1,3.2,1.5,7.5,2.2c-7.1,2.6-14.1-0.7-14.5-0.9c-1.5-0.8-3.3-0.2-4,1.3c-0.8,1.5-0.2,3.3,1.3,4c0.3,0.2,5.2,2.6,11.5,2.6
		c4.7,0,10.1-1.3,14.8-5.8c0.5-0.4,0.8-0.9,0.9-1.5l9.2-9.7c0.6-0.6,1.1-1.4,1.5-2.2c15.5-2.6,30.2-6.7,40.5-13.4
		c35-22.3,48.2-72.6,57-105.8c2.6-10.1,6.5-15.6,10.9-19.1c0.3-0.1,0.4-0.2,0.4-0.2c0.4-0.2,0.7-0.5,1-0.8c3.2-2.1,6.7-3.4,10.2-4.7
		c6.9-2.6,14-5.2,18.2-14.2l0,0l20.5,3.8c0.1,0,0.3,0,0.5,0c1.1,0,2.1-0.7,2.8-1.6C376.1,135.6,375.8,134.2,374.8,133.3z
		 M131.3,133.2c-12.6-28.5-11.4-62.1-8.3-85.2c2.1-15.2,5.3-28.1,7.6-35.9c19.6,49.3,46.5,83.7,66,104.2
		c8.2,8.6,15.8,15.5,22.1,20.8c-5.5,10.7-15.7,16.5-30.2,16.8c-10.8,0.3-20.3-2.6-21.5-2.9c-11.7-5-23.7-10.9-35.5-17.2
		C131.5,133.6,131.4,133.4,131.3,133.2z M346.7,131.2c-3.1,7.6-8.4,9.6-15.2,12.1c-3.8,1.4-8,3-12.1,5.8c-0.7,0.3-1.4,0.6-2.1,1
		c-6.6,3.3-26.6,13.4-40.6,22c-12.3,7.7-12.6,14.8-11.6,18.4c1.1,4,4.6,7.1,8.3,7.2c2.6,0.1,5.9-0.6,9.9-2.1
		c2.7-1.1,5.5-0.7,7.9,0.9c2.3,1.6,3.7,4.1,3.7,6.9v4.3v0.1c-8.8,25.8-21.9,52.4-44,66.6c-13.3,8.5-37,13.8-68.8,15.7
		c-22.2,1.2-41.3,0.3-44.4,0.1c-0.6-0.1-1.1-0.1-1.7,0.1l0,0c-0.1,0-0.2,0.1-0.3,0.1c-0.5,0.2-0.9,0.6-1.2,1.1l-12.7,14.8
		l-47.9,55.8c-7.2,1-49.9,5.3-67.3-25.9c-1.1-2-0.5-4.7,1.5-6l77.5-51.7c2.4,4.2,5.9,6.8,10.6,7.7c1.3,0.3,2.7,0.4,4.2,0.4
		c27.7,0,79.9-46.7,87.4-53.5c0.1,0,0.1,0,0.1-0.1c1.5-0.7,2.2-2.5,1.5-4c-0.2-0.4-0.5-0.8-0.9-1.1c-0.9-0.8-2.3-1-3.4-0.4
		c-0.5,0.3-1.1,0.5-1.7,0.8c-2.1,0.8-5.9,2.1-11,3.4c-12.7,2.8-28,3.6-31.7,3.8c-0.5-0.1-0.9-0.1-1.4,0c-19.7-0.3-46.3-5.5-73.3-25
		l22.1-4.6c1.6-0.4,2.6-2,2.3-3.6c-0.4-1.6-2-2.6-3.6-2.3l-27.1,5.7c-3.6-3-7.5-6.7-11.3-10.8l55.9-13c1.6-0.4,2.6-2,2.2-3.6
		s-2-2.6-3.6-2.2l-59,13.7c-6.2-7.5-11.8-15.9-15.2-24.1L54.4,155c1.2-0.5,2-1.8,1.8-3.1c-0.2-1.3-1.2-2.4-2.5-2.6l-34-5.6
		c-8.1-34.8-4.3-65.6-2.4-76.9c10.1,7.6,38.9,28.8,73.1,49.9c29.8,18.4,56.3,32.3,79.2,41.7c29.7,12.6,46.5,13.9,52.4,14
		c0.1,0,0.2,0,0.3,0c0.6,0,1.1,0.1,1.7,0.1c1.4,0,2.6-0.9,3-2.2c5.5-7.6,50.2-68.2,83.6-74c15.5-2.7,27.5,0.1,33.8,8.1
		C349.9,111.4,350.7,121.6,346.7,131.2z"/>
</g>
</svg>
