<svg class="c-svg-icon" version="1.1" id="Calque_1" xmlns="http://www.w3.org/2000/svg" xmlns:xlink="http://www.w3.org/1999/xlink" x="0px" y="0px"
	 viewBox="0 0 446.1 334.7" style="enable-background:new 0 0 446.1 334.7;" xml:space="preserve">
<style type="text/css">
	.st110{fill:#2D2A32;}
</style>
<path class="st110" d="M383.9,192.2c-15.6,0.1-29.1,3.8-40.5,9.4c-4.2-8.3-8.4-15.5-9.1-20.9c-0.8-6.3-1.7-10.1-0.8-17.6
	c1-7.5,5.3-18.1,5.3-19c-0.1-0.8-1-4.6-9.9-4.7c-9-0.1-16.7,1.7-17.6,4.1s-2.6,7.8-3.8,13.3c-1.6,8.2-18,37.2-27.3,52.5
	c-3.1-5.9-5.7-11.2-6.2-15.4c-0.8-6.3-1.7-10.1-0.8-17.6c1-7.5,5.3-18.1,5.3-19c-0.1-0.8-1-4.6-9.9-4.7c-9-0.1-16.7,1.7-17.6,4.1
	c-0.9,2.4-1.8,7.9-3.8,13.3c-1.8,5.4-23.6,53.9-29.3,66.5c-2.9,6.5-5.4,11.6-7.2,15.1c-1.8,3.5-0.1,0.3-0.3,0.6
	c-1.6,3-2.4,4.6-2.4,4.6v0.1c-1.2,2.2-2.5,4.3-3.1,4.3c-0.4,0-1.3-5.8,0.2-13.9c3.2-16.8,11.1-43.1,11-44c0-0.4,1.5-5.1-5.1-7.4
	c-6.4-2.4-8.6,1.6-9.2,1.6c-0.5,0-1,1.4-1,1.4s7.1-29.6-13.5-29.6c-12.9,0-30.7,14-39.5,26.9c-5.6,3.1-17.4,9.5-30,16.4
	c-4.8,2.6-9.8,5.4-14.5,7.9l-1-1c-24.9-26.6-71.1-45.4-69.2-81.2c0.7-13,5.2-47.3,88.6-88.8c68.3-34,123-24.7,132.5-3.9
	c13.5,29.7-29.2,84.8-100.2,92.7c-27,3.1-41.3-7.4-44.8-11.3c-3.8-4.1-4.3-4.3-5.7-3.5c-2.3,1.2-0.9,4.9,0,7.1
	c2.1,5.5,10.8,15.3,25.6,20.1c13,4.3,44.7,6.6,83.1-8.2c43-16.7,76.6-62.9,66.7-101.5c-10-39.3-75.3-52.2-136.9-30.4
	C105.5,23.7,65.8,44.1,37.2,70.9c-34,31.7-39.4,59.5-37.2,71c7.9,41.1,64.5,67.9,87.2,87.7c-1.1,0.6-2.2,1.2-3.1,1.7
	c-11.3,5.6-54.5,28.2-65.3,52.1c-12.2,27,1.9,46.5,11.3,49.1c29.1,8.1,59-6.5,75.1-30.4c16-24,14.1-55.1,6.7-69.3l-0.3-0.5l8.9-5.2
	c5.8-3.4,11.4-6.5,16.4-9.2c-2.8,7.6-4.8,16.6-5.8,29.7c-1.2,15.4,5.1,35.2,13.3,43.1c3.7,3.4,8,3.5,10.7,3.5
	c9.6,0,14-7.9,18.8-17.4c5.9-11.6,11.2-25,11.2-25s-6.5,36.4,11.3,36.4c6.5,0,13.1-8.5,16-12.8v0.1c0,0,0.2-0.3,0.5-0.9
	c0.4-0.5,0.7-1.1,1-1.7v-0.2c2.6-4.5,8.5-14.9,17.2-32.1c11.3-22.2,22.1-49.9,22.1-49.9s1,6.8,4.3,18c1.9,6.6,6.1,13.9,9.3,20.9
	c-2.6,3.7-4.2,5.8-4.2,5.8l0.1,0.1c-2.1,2.8-4.4,5.8-6.9,8.7c-8.9,10.6-19.5,22.8-20.9,26.3c-1.7,4.1-1.3,7.2,1.9,9.6
	c2.4,1.7,6.5,2.1,11,1.7c8-0.5,13.6-2.5,16.4-3.8c4.4-1.6,9.3-3.9,14.1-7.4c8.7-6.5,14-15.6,13.5-27.8c-0.3-6.7-2.4-13.3-5.1-19.6
	c0.8-1.1,1.6-2.3,2.4-3.5c13.8-20.1,24.4-42.3,24.4-42.3s1,6.8,4.3,18c1.7,5.7,5,11.9,7.9,18c-12.9,10.6-21,22.8-23.8,30.8
	c-5.1,14.8-1.1,21.5,6.5,23.1c3.4,0.7,8.3-0.9,11.9-2.4c4.5-1.5,10-4,15.1-7.8c8.7-6.5,17.1-15.4,16.7-27.6
	c-0.3-5.6-1.7-11.1-3.8-16.3c11-4.5,25.2-7.2,43.3-5c38.8,4.5,46.5,28.8,45,38.9c-1.5,10.1-9.6,15.7-12.3,17.4
	c-2.7,1.7-3.6,2.3-3.3,3.5c0.3,1.8,1.6,1.7,3.9,1.4c3.2-0.5,20.4-8.3,21.1-26.9C447.1,218.1,424.3,191.9,383.9,192.2L383.9,192.2z
	 M84.6,293.1c-12.8,14-30.9,19.4-38.6,14.8c-8.3-4.8-5.1-25.5,10.7-40.4c9.6-9.1,22.1-17.4,30.3-22.6c1.8-1.1,4.6-2.8,7.9-4.8
	c0.5-0.3,0.9-0.5,0.9-0.5c0.6-0.3,1.3-0.8,2-1.2C103.7,259.7,98.1,278.4,84.6,293.1L84.6,293.1z M178.4,229.3
	c-4.4,10.9-13.9,38.9-19.5,37.3c-4.9-1.3-7.8-22.5-1-43.4c3.5-10.6,10.9-23.1,15.3-28c7.1-7.8,14.7-10.5,16.7-7.2
	C192.1,192.2,181.2,222.5,178.4,229.3z M255.7,266.3c-1.9,1-3.7,1.7-4.4,1.1c-0.6-0.3,0.8-1.7,0.8-1.7s9.7-10.4,13.5-15.2
	c2.2-2.8,4.8-6,7.6-9.7v1C273.2,254.6,261.1,262.9,255.7,266.3L255.7,266.3z M315.4,252.7c-1.4-1-1.2-4.3,3.5-14.4
	c1.8-4,6-10.7,13.3-17.1c0.9,2.6,1.4,5.1,1.3,7.5C333.3,244.4,322.2,250.3,315.4,252.7z"/>
</svg>
