<svg class="c-svg-icon" version="1.1" id="Calque_1" xmlns="http://www.w3.org/2000/svg" xmlns:xlink="http://www.w3.org/1999/xlink" x="0px" y="0px"
	 viewBox="0 0 471.1 334.7" style="enable-background:new 0 0 471.1 334.7;" xml:space="preserve">
<style type="text/css">
	.st90{fill:#2D2A32;}
</style>
<path class="st90" d="M469.1,220.4c-5.2-32.7-26.5-60.1-89.6-85.7c-21.9-10.1-46.3-17.3-53.6-33.9c-2.6-9.7-2.9-15.1-1.3-21
	c4.7-19,27.4-24.9,45.3-19.5c11.6,3.9,22.5,12.8,29.1,27c30.9-20,30.8-19.9,52.4-33.6c-7.9-12.2-12.1-17.9-17.3-23.1
	C415.6,9.9,390.3-0.8,349.8,0c-7,0.9-14.1,1.8-21.1,2.7c-20.2,5.1-39.5,15.7-50.8,29.9c-33.9,38.4-24.2,105.7,17,133.4
	c40.6,30.5,100.3,37.4,107.9,65.9c7.4,34.9-25.7,46.2-58.5,42.2c-24.2-5-37.7-17.4-52.3-39.7c-26.8,15.5-26.8,15.5-54.4,31.4
	c6.5,14.3,13.4,20.8,24.4,33.1c51.9,52.6,181.6,50,204.9-29.6C467.9,266.7,474.2,248.5,469.1,220.4z M201,4.3h-67
	c0,57.8-0.3,115.3-0.3,173.1c0,36.8,1.9,70.6-4.1,80.9c-9.8,20.3-35.2,17.8-46.7,13.9c-11.8-5.8-17.8-14-24.7-25.7
	c-1.9-3.3-3.3-5.9-3.8-6.1C36.3,251.5,18.2,262.6,0,273.7c9.1,18.6,22.4,34.7,39.5,45.2c25.5,15.3,59.8,20,95.7,11.8
	c23.3-6.8,43.5-20.9,54-42.3c15.2-28.1,12-62.1,11.8-99.8C201.4,127.2,201,65.8,201,4.3L201,4.3z"/>
</svg>
