<svg class="c-svg-space" version="1.1" id="Calque_1" xmlns="http://www.w3.org/2000/svg" xmlns:xlink="http://www.w3.org/1999/xlink" x="0px" y="0px"
	 viewBox="0 0 515.5 407.4" style="enable-background:new 0 0 515.5 407.4;" xml:space="preserve">
	 <style type="text/css">
	 	.st200{fill:#F2F5FB;}
	 	.st201{fill:#FED440;}
	 	.st202{fill:#D4DFE1;}
	 	.st203{fill:#88959D;}
	 	.st204{fill:#64C7CC;}
	 	.st205{fill:#FFFFFF;}
	 	.st206{fill:#484452;}
	 </style>
	 <g>
	 	<path class="st200" d="M386,407.4c-21.7-1.6-38.7-12.7-44-15.8c-35.9-20.8-51.6-34.7-67.3-64.5c-9-17.1-12-35.6-12.6-54
	 		c-1.5-41.1,8.5-82.9,33.9-119.7c26.7-38.7,76.1-77.2,134.1-91.1C329.2,68.9,242,115.4,177,169.4c-30.9,25.8-58.3,54.4-73.4,86.8
	 		c-18.9,40.4-20.1,77-38.1,105.5c-11,17.5-42.1,45.7-65.5,45.7H386z"/>
	 	<path class="st201" d="M129.3,274.7c-0.2-4.8,3.9-9,8.6-10.6s9.7-1,14.5-0.3c58,8.2,113.1,34.6,155.3,74.7
	 		c-5.6,4.9-11.9,10.1-19.4,10.3c13.1,3.3,28.1-1.5,36.8-11.9c1.3-1.8,2.5-3.6,3.8-5.4c-19.1-13.9-39.6-25.9-61.1-35.7
	 		c-18.1-8.2-36.9-14.9-55.1-22.7c-31.8-13.6-64.9-31-99.2-25c7.3,1.9,14.6,3.9,21.9,5.8c-5.9,1.2-11.8,2.4-17.7,3.6
	 		c-1.5,0.3-3.2,0.8-4,2.1c-0.8,1.3,0.6,3.5,2,2.8c-22.4-3-45.6,0.2-66.5,9c3.7-1.6,29.5,59.8,37.3,34.9c2.5-7.9-1.6-16.4,3.5-24.2
	 		C98.4,269,116.4,272.1,129.3,274.7z"/>
	 	<path class="st201" d="M337.2,75.8c1-1.5,3.7-1.8,4.3-0.1c1.1-0.6,2.4-0.1,3.3,0.7c0.9,0.8,1.3,2,1.7,3.1c2.7,7.7,2.4,16.3-0.7,23.8
	 		c-1-0.5-2.3,0.6-2,1.6c0.3,1.2,2.1,1.4,2.9,0.5c0.8-0.9,0.7-2.3,0.1-3.4c2.1-0.3,3-2.8,3.3-4.9c1.1-7.2,0.3-14.6-2.3-21.3
	 		c-0.4-1.1-1.2-2.4-2.4-2.3c0,0.4,0,0.8-0.1,1.2c-0.3-1.1-0.6-2.4-1.6-3c-1-0.6-2.7,0-2.5,1.2c-2.3-1.6-5.9-1.2-7.8,1
	 		c-1.2,1.4-2.4,6.9,0.3,7.8C337.1,82.7,336.4,77.1,337.2,75.8z"/>
	 	<g>
	 		<path class="st201" d="M196.6,145.8c1.1-0.8,2.5-1.3,4-1.6c3.3-0.7,6.7-0.9,9.9-0.4c1.5,0.2,3.1,0.6,4.7,0.6c2,0,4-0.5,6.1-0.7
	 			c3.9-0.4,7.8,0.5,11.4,1.6c8.1,2.5,15.5,6.5,21.6,11.5c-4.7-4.7-9.7-9.5-16.3-12.2c-4.2-1.7-8.8-2.5-13.4-3.2
	 			c-6.8-1.1-13.5-2.2-20.3-3.3c-3.2-0.5-6.6-1.1-9.8-0.3c-3.2,0.8-6.3,3.2-6.1,6c0.1,1.4,1,2.8,0.9,4.2c0,1-0.5,1.9-0.9,2.9
	 			c-1.4,3.5-2.1,6.4-0.7,9.8c2.9-2.3,7.7-5.9,7.7-5.9S193.1,148.3,196.6,145.8z"/>
	 		<path class="st201" d="M286.2,189.3c0.3,1,0.6,2,0.2,3c-0.4,1-1.9,1.7-2.8,1.1c4.8,2.9,4.6,10.3-0.4,13.4c-3.5,2.2-9,1.7-13.1,1.2
	 			c-1.2,4-1.9,6.8-2.6,9.9c7.2-0.3,14.6-3.7,19.3-8.7c0.9-1,1.8-2,3.1-2.5c0.7-0.3,1.5-0.4,2.1-0.7c1.1-0.6,1.4-1.8,1.4-2.9
	 			c0.1-2.9-1.8-5.8-4.7-7.2c1.7-2.2,1.2-5,0.2-7.3c-3.5-8.9-12-15.4-20.4-21.1c3.8,2.6,6.6,7.5,10.1,10.5
	 			C282.4,181.1,284.7,184.8,286.2,189.3z"/>
	 		<path class="st201" d="M267.4,161.2c-0.8-0.2-1.6-0.4-2.3-0.6c1,1.6,2.1,3.1,3.6,4.5c0.3,0.2,0.5,0.5,0.9,0.6
	 			c0.3,0.1,0.6,0.1,0.8,0.2c0.3,0.1,0.5,0.2,0.8,0.4c0.7,0.4,4.2,3,5,2.7c0.8-0.4-0.1-1.5-0.4-2C273.9,164.1,271,162.1,267.4,161.2z
	 			"/>
	 	</g>
	 	<g>
	 		<g>
	 			<path class="st201" d="M398.3,51.5c-0.2-0.3-0.5-0.6-0.8-0.8c-0.4-0.2-0.8-0.1-1.2,0c-7.7,1.5-14.4,6.7-19,13.1
	 				c-0.2,0.2-0.3,0.5-0.4,0.8c-0.1,0.3,0,0.6,0.1,0.9c0.3,0.8,0.7,1.5,1.2,2.2c1.7-2.9,4.6-4.9,7.8-6c2-0.6,4.2-0.9,6.3-0.3
	 				c2,0.6,3.9,2,4.6,4c1.5-1.4,3-2.9,4.4-4.3c0.7-0.7,1.3-1.4,2-2.1c0.5-0.5,1.8-1.6,2-2.3c0.3-1.1-2.5-1.5-3.4-2
	 				C400.5,53.9,399.3,52.7,398.3,51.5z"/>
	 			<path class="st201" d="M410.9,82c0,0.4,0.1,0.8-0.1,1.1c-0.2,0.4-0.5,0.6-0.9,0.9c-6.5,4.5-14.9,5.5-22.7,4.2
	 				c-0.3,0-0.6-0.1-0.8-0.3c-0.3-0.2-0.4-0.5-0.5-0.8c-0.3-0.8-0.6-1.6-0.7-2.4c3.3,0.8,6.8,0.2,9.8-1.3c1.9-1,3.6-2.4,4.7-4.2
	 				c1-1.8,1.3-4.2,0.4-6.1c2.1-0.1,4.1-0.1,6.2,0c1,0,1.9,0,2.9,0.1c0.7,0,2.4-0.2,3,0.2c1,0.6-0.7,2.8-0.9,3.8
	 				C410.8,78.8,410.8,80.4,410.9,82z"/>
	 		</g>
	 		<g>
	 			<path class="st202" d="M400.1,76c-1.6,0-3.1,0.1-4.5,0.1l-2-4.8c0,0-0.1,0,0,0l-2-4.8c1.1-1,2.2-2.1,3.3-3.1
	 				c7.8-7.4,17.3-16,27-19.2c8-2.6,17.6-2.1,24.4-0.9c5.2,0.8,8.7,2,8.9,2.4c0,0,0,0,0,0c0.3,0.3-1.4,3.7-4.6,8.1
	 				c-4.1,5.6-10.5,12.8-17.9,16.6C423.6,75.1,410.8,75.7,400.1,76z"/>
	 		</g>
	 		<g>
	 			<path class="st203" d="M400.1,76c-1.6,0-3.1,0.1-4.5,0.1l-2-4.8c0,0-0.1,0,0,0l-2-4.8c1.1-1,2.2-2.1,3.3-3.1L400.1,76z"/>
	 		</g>
	 		<path class="st201" d="M450.7,53.8l-4.4-10.5c5.2,0.8,8.7,2,8.9,2.4c0,0,0,0,0,0C455.6,46,453.8,49.5,450.7,53.8z"/>
	 		<g>
	 			<g>
	 				<path class="st203" d="M436.8,61.6c-3.8,1.6-8.2-0.2-9.8-4.1c-1.6-3.8,0.2-8.2,4.1-9.8c3.8-1.6,8.2,0.2,9.8,4.1
	 					C442.5,55.6,440.7,60,436.8,61.6z"/>
	 			</g>
	 			<g>
	 				<circle class="st204" cx="433.9" cy="54.6" r="5.4"/>
	 			</g>
	 		</g>
	 		<g>
	 			<g>
	 				<path class="st203" d="M418.3,67.6c-3.1,1.3-6.6-0.2-7.9-3.3c-1.3-3.1,0.2-6.6,3.3-7.9c3.1-1.3,6.6,0.2,7.9,3.3
	 					C422.9,62.8,421.4,66.4,418.3,67.6z"/>
	 			</g>
	 			<g>
	 				<path class="st204" d="M417.7,66.1c-2.2,0.9-4.8-0.1-5.7-2.4c-0.9-2.2,0.1-4.8,2.4-5.7c2.2-0.9,4.8,0.1,5.7,2.4
	 					C420.9,62.6,419.9,65.2,417.7,66.1z"/>
	 			</g>
	 		</g>
	 	</g>

	 		<rect x="394.2" y="56.7" transform="matrix(0.3829 0.9238 -0.9238 0.3829 309.22 -320.847)" class="st1" width="1.2" height="28.7"/>
	 	<path class="st205" d="M269.8,311.6c0,1.1-0.9,2-2,2c-1.1,0-2-0.9-2-2s0.9-2,2-2C269,309.7,269.8,310.5,269.8,311.6z"/>
	 	<path class="st205" d="M239.3,123.5c0.5,0,0.8,0.4,0.8,0.8c0,0.5-0.4,0.8-0.8,0.8c-0.5,0-0.8-0.4-0.8-0.8
	 		C238.5,123.8,238.9,123.5,239.3,123.5z"/>
	 	<g>
	 		<g>
	 			<path class="st206" d="M415.8,271.3l-0.7-0.8c1.8-1.5,3.5-3.3,5-5.1c13.1-16.3,10.4-40.2-5.9-53.3c-7.9-6.3-17.8-9.2-27.9-8.1
	 				c-10.1,1.1-19.1,6.1-25.4,14c-1.6,2-3,4.2-4.2,6.4l-0.9-0.5c1.2-2.3,2.6-4.6,4.3-6.6c6.5-8.1,15.8-13.2,26.1-14.4
	 				c10.3-1.1,20.5,1.8,28.6,8.3s13.2,15.8,14.4,26.1s-1.8,20.5-8.3,28.6C419.4,268,417.7,269.7,415.8,271.3z"/>
	 			<path class="st206" d="M390.6,280.6c-8.7,0-17.3-2.9-24.3-8.5c-10.1-8.1-15.5-20.5-14.5-33.4l1,0.1c-1,12.5,4.3,24.7,14.1,32.5
	 				c9.8,7.9,22.9,10.3,35,6.6l0.3,1C398.4,280.1,394.4,280.6,390.6,280.6z"/>
	 			<path class="st206" d="M452.3,303.4c-12.8,0-43.3-17.1-76.3-43.5c-18.6-14.9-34.9-30.4-46-43.6c-6.5-7.7-16.7-21.5-12.4-26.9
	 				c5.6-7,30.5,5.7,51.9,19.9l0.6,0.4l-3.8,2.8l-0.3-0.1c-8.6-4.4-14.7-5.8-16.3-3.8c-3.1,3.9,10,21.3,34.6,40.9
	 				c20.8,16.7,38.2,25.7,45,25.7c1.2,0,2.1-0.3,2.6-0.9c1.6-2-1.2-7.6-7.4-15.1l0.8-0.6c4.8,5.7,9.9,13.2,7.4,16.4
	 				c-0.7,0.9-1.8,1.3-3.4,1.3c-8.4,0-28.2-12-45.6-25.9c-20.6-16.5-39.2-36.8-34.8-42.4c2.5-3.1,10.7,0.1,17.2,3.4l2.2-1.6
	 				c-25.8-16.9-45.8-24.8-50-19.7c-2.8,3.5,1.7,12.8,12.4,25.6c11,13.1,27.3,28.6,45.8,43.4c37.5,30,74.2,49.1,80.1,41.7
	 				c4.2-5.2-8.2-23.3-30.7-45l0.7-0.7c18.5,17.8,36.4,39.4,30.8,46.3C456.5,302.7,454.7,303.4,452.3,303.4z"/>
	 		</g>
	 		<g>
	 			<path class="st206" d="M236.2,67c-5.4,0-10.8-1.3-15.8-4c-7.9-4.2-13.7-11.3-16.2-19.8s-1.7-17.6,2.5-25.5S218,4,226.6,1.5
	 				c8.6-2.6,17.6-1.7,25.5,2.5c16.3,8.7,22.4,29.1,13.7,45.3l-0.4-0.2l0.4,0.2c-4.2,7.9-11.3,13.7-19.8,16.2
	 				C242.8,66.5,239.5,67,236.2,67z M236.3,1c-3.2,0-6.3,0.5-9.4,1.4c-8.3,2.5-15.1,8.1-19.2,15.8c-4.1,7.7-5,16.4-2.5,24.8
	 				c2.5,8.3,8.1,15.1,15.8,19.2c7.7,4.1,16.4,5,24.8,2.5c8.3-2.5,15.1-8.1,19.2-15.8c8.5-15.8,2.5-35.5-13.3-44
	 				C246.8,2.3,241.6,1,236.3,1z"/>
	 			<path class="st206" d="M263.9,52.5l-0.4-0.7c-0.1-0.2-0.2-0.4-0.4-0.6c-3.5-5.6-12.4-11.2-23.7-15c-1.3-0.5-2.7-0.9-4.1-1.4
	 				c-8.6-3-17.5-6-22.9-10.5c-2.8-2.2-4.3-4.3-5.6-6.2l-0.2-0.3l0.1-0.3c1.3-2.4,2.8-4.6,4.7-6.6l0.3-0.4l0.4,0.4
	 				c2.2,2.1,4.6,4,7.3,5.7c5.4,3.3,12.2,5.5,18.8,7.7c1.6,0.5,3.3,1.1,4.9,1.6c7,2.4,16.5,6.4,21.6,12.1c1.4,1.6,2.5,3.2,3.4,5
	 				l0.1,0.2l-0.1,0.2c-0.6,2-1.4,3.9-2.4,5.8c-0.5,0.8-1,1.7-1.5,2.5L263.9,52.5z M207.8,17.8c1.2,1.8,2.7,3.7,5.2,5.7
	 				c5.3,4.3,14.1,7.3,22.6,10.3c1.4,0.5,2.7,1,4.1,1.4c11.5,3.9,20.5,9.6,24.2,15.4c0.4-0.6,0.7-1.2,1-1.8c0.9-1.7,1.7-3.5,2.3-5.4
	 				c-0.9-1.7-1.9-3.1-3.2-4.7c-4.9-5.6-14.2-9.5-21.2-11.9l0,0c-1.6-0.6-3.2-1.1-4.9-1.6c-6.6-2.2-13.5-4.5-19-7.8
	 				c-2.7-1.6-5-3.4-7.1-5.4C210.3,13.9,209,15.8,207.8,17.8z"/>
	 			<path class="st206" d="M266.8,19.7l-1.5-0.9c-3.9-2.3-8.5-4.4-13.4-6c-1.3-0.5-2.7-0.9-4.1-1.4c-7.7-2.7-15.6-5.4-21.1-9.1
	 				l-0.9-0.6l1-0.3c8.5-2.5,17.4-1.5,25.2,2.6c6,3.2,10.8,8.1,13.9,14.2L266.8,19.7z M228.3,2c5.4,3.3,12.8,5.9,19.9,8.4
	 				c1.4,0.5,2.7,1,4.1,1.4c4.3,1.5,8.4,3.3,12,5.2c-3-5.2-7.4-9.4-12.7-12.2C244.4,1,236.2,0,228.3,2z"/>
	 			<path class="st206" d="M245.5,65.7l-0.2-0.1c-4.4-3.2-10.5-6.2-17.1-8.4c-1.3-0.5-2.7-0.9-4.1-1.4c-6.2-2.1-12.5-4.3-17.7-7.1
	 				l-0.1-0.1l-0.1-0.1c-2.1-4.2-3.3-9-3.5-13.7l0-1.1l0.9,0.7c1.4,1.2,3,2.2,4.7,3.3c5.4,3.3,12.2,5.5,18.8,7.7
	 				c1.6,0.5,3.3,1.1,4.9,1.6c7,2.4,16.5,6.4,21.6,12.1c0.5,0.5,0.9,1.1,1.3,1.7l0.3,0.4l-0.4,0.3c-2.8,1.8-5.8,3.2-9,4.2L245.5,65.7
	 				z M207.1,47.8c5,2.7,11.3,4.8,17.4,6.9c1.4,0.5,2.7,0.9,4.1,1.4c6.6,2.2,12.7,5.2,17.2,8.4c2.9-0.9,5.6-2.1,8.1-3.7
	 				c-0.3-0.4-0.6-0.8-1-1.2c-4.9-5.6-14.2-9.5-21.2-11.9l0,0c-1.6-0.6-3.2-1.1-4.9-1.6c-6.6-2.2-13.5-4.5-19-7.8
	 				c-1.4-0.8-2.7-1.7-3.9-2.7C204.2,39.9,205.3,44.1,207.1,47.8z"/>
	 		</g>
	 		<path class="st206" d="M270,86.4c-2.9,0-5.7-0.9-8.1-2.8c-2.7-2.2-4.4-5.3-4.8-8.7s0.6-6.8,2.8-9.6c2.2-2.7,5.3-4.4,8.7-4.8
	 			c3.5-0.4,6.8,0.6,9.6,2.8c2.7,2.2,4.4,5.3,4.8,8.7s-0.6,6.8-2.8,9.6C277.6,84.7,273.8,86.4,270,86.4z M270,61.4
	 			c-0.4,0-0.9,0-1.3,0.1c-3.2,0.4-6,1.9-8,4.4c-2,2.5-2.9,5.6-2.6,8.8c0.4,3.2,1.9,6,4.4,8c5.2,4.1,12.7,3.3,16.9-1.9
	 			s3.3-12.7-1.9-16.9C275.3,62.3,272.7,61.4,270,61.4z"/>
	 		<g>
	 			<path class="st206" d="M459.1,144.9c-11.7,0-21.3-9.6-21.3-21.3s9.6-21.3,21.3-21.3s21.3,9.6,21.3,21.3S470.9,144.9,459.1,144.9z
	 				 M459.1,103.3c-11.2,0-20.3,9.1-20.3,20.3s9.1,20.3,20.3,20.3s20.3-9.1,20.3-20.3S470.3,103.3,459.1,103.3z"/>
	 			<path class="st206" d="M448.7,123c-3,0-5.4-2.4-5.4-5.4s2.4-5.4,5.4-5.4s5.4,2.4,5.4,5.4S451.7,123,448.7,123z M448.7,113.1
	 				c-2.4,0-4.4,2-4.4,4.4s2,4.4,4.4,4.4s4.4-2,4.4-4.4S451.2,113.1,448.7,113.1z"/>
	 			<path class="st206" d="M456.6,112.4c-1.3,0-2.4-1.1-2.4-2.4s1.1-2.4,2.4-2.4s2.4,1.1,2.4,2.4S457.9,112.4,456.6,112.4z
	 				 M456.6,108.6c-0.8,0-1.4,0.6-1.4,1.4c0,0.8,0.6,1.4,1.4,1.4c0.8,0,1.4-0.6,1.4-1.4C458,109.2,457.3,108.6,456.6,108.6z"/>
	 			<path class="st206" d="M471.7,114.3c-1.3,0-2.4-1.1-2.4-2.4s1.1-2.4,2.4-2.4s2.4,1.1,2.4,2.4S473,114.3,471.7,114.3z M471.7,110.5
	 				c-0.8,0-1.4,0.6-1.4,1.4s0.6,1.4,1.4,1.4s1.4-0.6,1.4-1.4S472.4,110.5,471.7,110.5z"/>
	 			<path class="st206" d="M449.7,138.4c-1.3,0-2.4-1.1-2.4-2.4s1.1-2.4,2.4-2.4s2.4,1.1,2.4,2.4S451,138.4,449.7,138.4z M449.7,134.6
	 				c-0.8,0-1.4,0.6-1.4,1.4c0,0.8,0.6,1.4,1.4,1.4s1.4-0.6,1.4-1.4C451.1,135.2,450.5,134.6,449.7,134.6z"/>
	 			<path class="st206" d="M464.1,119.9c-2.4,0-4.3-1.9-4.3-4.3s1.9-4.3,4.3-4.3s4.3,1.9,4.3,4.3S466.5,119.9,464.1,119.9z
	 				 M464.1,112.4c-1.8,0-3.3,1.5-3.3,3.3s1.5,3.3,3.3,3.3s3.3-1.5,3.3-3.3S465.9,112.4,464.1,112.4z"/>
	 			<path class="st206" d="M467.6,143.2l-0.2-0.3c-1.2-1.4-1.8-3.2-1.8-5c0-4.4,3.6-8,8-8c1.8,0,3.5,0.6,4.9,1.7l0.3,0.2l-0.2,0.4
	 				c-2.1,4.8-5.9,8.6-10.7,10.8L467.6,143.2z M473.6,130.9c-3.8,0-7,3.1-7,7c0,1.5,0.5,2.9,1.3,4.1c4.3-2,7.7-5.5,9.7-9.8
	 				C476.4,131.3,475,130.9,473.6,130.9z"/>
	 		</g>
	 		<g>
	 			<path class="st206" d="M303.7,283.2c0,1.1-0.9,2-2,2c-1.1,0-2-0.9-2-2c0-1.1,0.9-2,2-2C302.8,281.2,303.7,282.1,303.7,283.2z"/>
	 			<path class="st206" d="M351.9,177.3c0,1.8-1.5,3.3-3.3,3.3s-3.3-1.5-3.3-3.3c0-1.8,1.5-3.3,3.3-3.3S351.9,175.5,351.9,177.3z"/>
	 			<path class="st206" d="M515.5,185.7c0,1.1-0.9,2-2,2c-1.1,0-2-0.9-2-2c0-1.1,0.9-2,2-2C514.6,183.7,515.5,184.6,515.5,185.7z"/>
	 			<path class="st206" d="M367.9,143c0,1.1-0.9,2-2,2s-2-0.9-2-2c0-1.1,0.9-2,2-2S367.9,141.9,367.9,143z"/>
	 			<path class="st206" d="M189.1,99c0.5,0,1,0.4,1,1s-0.4,1-1,1c-0.5,0-1-0.4-1-1S188.6,99,189.1,99z"/>
	 			<path class="st206" d="M124.4,42.5c1.8,0,3.3,1.5,3.3,3.3c0,1.8-1.5,3.3-3.3,3.3c-1.8,0-3.3-1.5-3.3-3.3
	 				C121.2,44,122.6,42.5,124.4,42.5z"/>
	 			<path class="st206" d="M158.8,29.2c0.6,0,1.2,0.5,1.2,1.2s-0.5,1.2-1.2,1.2c-0.6,0-1.2-0.5-1.2-1.2S158.1,29.2,158.8,29.2z"/>
	 			<path class="st206" d="M15.4,322.5c0-1.8,1.5-3.3,3.3-3.3c1.8,0,3.3,1.5,3.3,3.3c0,1.8-1.5,3.3-3.3,3.3
	 				C16.9,325.8,15.4,324.4,15.4,322.5z"/>
	 		</g>
	 	</g>
	 </g>
	 </svg>
