<svg class="c-svg-icon" version="1.1" id="Layer_1" xmlns="http://www.w3.org/2000/svg" xmlns:xlink="http://www.w3.org/1999/xlink" x="0px" y="0px"
	 viewBox="0 0 1350.4 1452.4" style="enable-background:new 0 0 1350.4 1452.4;" xml:space="preserve">
<style type="text/css">
	.st120{fill:#f2f5fa;}
</style>
<path class="st120" d="M893.5,1111.6c0,24.4-5.6,48.2-8.7,72c-2.6,20.9-0.5,23.3,20.7,19.6c47.7-8.2,90.8-28.3,132.4-51.9
	c44.5-25.4,86.9-54.3,134.5-73.3c36.8-14.8,74.4-24.6,114.4-24.6c34.7,0,58.8,18.8,63,48.5c4,27.5-11.1,53.8-38.7,59.6
	c-78.9,16.7-147,55.6-213.4,98.8c-89,57.5-185.9,99-286.8,130.8c-3.7,1.1-8.5,1.9-10.9,4.2c-23.8,25.2-55.3,29.4-87.1,33.6
	c-89.2,11.7-179,16.9-269,22.2c-25.9,1.6-51.9,2.4-77.8-2.6c-41.3-8.2-58.8-23.6-65.1-57.5c-5.6-30.5,8.7-59.3,39.2-79.2
	c3.2-2.1,6.6-4.2,11.7-7.4c-16.4-10.1-29.9-22-40.2-36.8c-5-6.9-7.7-2.6-9.3,3.2c-5,19.1-10.1,38.4-15.1,57.5
	c-3.4,12.7-7.7,25.2-13,37.3c-15.4,35.2-43.4,52.2-80.5,55.6c-37.9,3.4-73.6-5-107.5-21.7c-23.3-11.4-30.2-28.6-22.5-53.8
	c4-13.5,11.7-25.2,20.9-39.5c-32,6.4-46.1-12.2-57.2-34.7c-24.9-49.3-33.4-101.4-23.3-155.4c8.2-42.9,33.4-77.8,63.6-108
	c17.7-17.7,23-34.7,22.5-59.6c-4-143.8,50.3-261.9,162.1-353.2c9.8-8.2,19.6-16.7,29.9-24.1c6.4-4.5,7.1-7.4,1.9-14
	c-28.9-36.3-51.4-75.7-61.7-121.5c-11.7-51.6,5.8-96.4,31.8-139.3c3.7-5.8,9.5-8.7,15.9-11.1c32.6-11.7,60.1-29.4,85-54.3
	c56.1-56.1,125.5-81.8,204.9-78.4c10.1,0.5,14.6-2.4,17.7-11.9c11.9-34.7,26.7-68.1,46.6-99c7.4-11.7,15.6-22.5,26.2-31.2
	c19.6-16.2,36.3-13.8,49.5,7.7c24.4,38.9,43.2,80.8,62.2,122.6c4.8,10.6,8.5,14.3,19.6,7.1c13-8.2,27.5-14,42.1-19.1
	c11.7-4,18.5-1.3,23.6,10.9c14.8,35.7,22.8,73.1,27.3,111.5c1.3,10.6,3.7,20.9,2.4,31.5c-0.8,23,0.3,46.1,0.5,69.4
	c0,10.3-3.7,20.7-0.5,31.2c-2.4,63-19.1,122.6-43.4,180.3c-22.8,54-55.9,101.9-89,149.9c-13,18.5-12.7,18.8,4.2,33.9
	c82.6,74.4,128.2,167.9,143.5,277c0.5,4.2,0.3,8.7,0.3,13.2c-3.4,10.1,0.3,19.9,0.5,29.7C894.3,1082.2,890.9,1097.1,893.5,1111.6
	L893.5,1111.6z"/>
</svg>
